<svg width="176" height="32" viewBox="0 0 176 32" fill="none" xmlns="http://www.w3.org/2000/svg">
<path d="M28.5227 21.6818C27.7955 21.6818 27.1534 21.4981 26.5966 21.1307C26.0398 20.7595 25.6042 20.2367 25.2898 19.5625C24.9754 18.8845 24.8182 18.0833 24.8182 17.1591C24.8182 16.2424 24.9754 15.447 25.2898 14.7727C25.6042 14.0985 26.0417 13.5777 26.6023 13.2102C27.1629 12.8428 27.8106 12.6591 28.5455 12.6591C29.1136 12.6591 29.5625 12.7538 29.892 12.9432C30.2254 13.1288 30.4792 13.3409 30.6534 13.5795C30.8314 13.8144 30.9697 14.0076 31.0682 14.1591H31.1818V9.86364H32.5227V21.5H31.2273V20.1591H31.0682C30.9697 20.3182 30.8295 20.5189 30.6477 20.7614C30.4659 21 30.2064 21.214 29.8693 21.4034C29.5322 21.589 29.0833 21.6818 28.5227 21.6818ZM28.7045 20.4773C29.2424 20.4773 29.697 20.3371 30.0682 20.0568C30.4394 19.7727 30.7216 19.3807 30.9148 18.8807C31.108 18.3769 31.2045 17.7955 31.2045 17.1364C31.2045 16.4848 31.1098 15.9148 30.9205 15.4261C30.7311 14.9337 30.4508 14.5511 30.0795 14.2784C29.7083 14.0019 29.25 13.8636 28.7045 13.8636C28.1364 13.8636 27.6629 14.0095 27.2841 14.3011C26.9091 14.589 26.6269 14.9811 26.4375 15.4773C26.2519 15.9697 26.1591 16.5227 26.1591 17.1364C26.1591 17.7576 26.2538 18.322 26.4432 18.8295C26.6364 19.3333 26.9205 19.7348 27.2955 20.0341C27.6742 20.3295 28.1439 20.4773 28.7045 20.4773ZM38.3902 21.6818C37.6023 21.6818 36.9111 21.4943 36.3164 21.1193C35.7255 20.7443 35.2633 20.2197 34.93 19.5455C34.6005 18.8712 34.4357 18.0833 34.4357 17.1818C34.4357 16.2727 34.6005 15.4792 34.93 14.8011C35.2633 14.1231 35.7255 13.5966 36.3164 13.2216C36.9111 12.8466 37.6023 12.6591 38.3902 12.6591C39.1781 12.6591 39.8675 12.8466 40.4584 13.2216C41.0531 13.5966 41.5152 14.1231 41.8448 14.8011C42.1781 15.4792 42.3448 16.2727 42.3448 17.1818C42.3448 18.0833 42.1781 18.8712 41.8448 19.5455C41.5152 20.2197 41.0531 20.7443 40.4584 21.1193C39.8675 21.4943 39.1781 21.6818 38.3902 21.6818ZM38.3902 20.4773C38.9887 20.4773 39.4811 20.3239 39.8675 20.017C40.2539 19.7102 40.5398 19.3068 40.7255 18.8068C40.9111 18.3068 41.0039 17.7652 41.0039 17.1818C41.0039 16.5985 40.9111 16.0549 40.7255 15.5511C40.5398 15.0473 40.2539 14.6402 39.8675 14.3295C39.4811 14.0189 38.9887 13.8636 38.3902 13.8636C37.7917 13.8636 37.2993 14.0189 36.913 14.3295C36.5266 14.6402 36.2406 15.0473 36.055 15.5511C35.8694 16.0549 35.7766 16.5985 35.7766 17.1818C35.7766 17.7652 35.8694 18.3068 36.055 18.8068C36.2406 19.3068 36.5266 19.7102 36.913 20.017C37.2993 20.3239 37.7917 20.4773 38.3902 20.4773ZM47.3671 21.6818C46.6398 21.6818 45.9978 21.4981 45.441 21.1307C44.8841 20.7595 44.4485 20.2367 44.1341 19.5625C43.8198 18.8845 43.6626 18.0833 43.6626 17.1591C43.6626 16.2424 43.8198 15.447 44.1341 14.7727C44.4485 14.0985 44.886 13.5777 45.4466 13.2102C46.0073 12.8428 46.655 12.6591 47.3898 12.6591C47.958 12.6591 48.4069 12.7538 48.7364 12.9432C49.0698 13.1288 49.3235 13.3409 49.4978 13.5795C49.6758 13.8144 49.8141 14.0076 49.9126 14.1591H50.0262V9.86364H51.3671V21.5H50.0716V20.1591H49.9126C49.8141 20.3182 49.6739 20.5189 49.4921 20.7614C49.3103 21 49.0508 21.214 48.7137 21.4034C48.3766 21.589 47.9277 21.6818 47.3671 21.6818ZM47.5489 20.4773C48.0868 20.4773 48.5413 20.3371 48.9126 20.0568C49.2838 19.7727 49.566 19.3807 49.7591 18.8807C49.9523 18.3769 50.0489 17.7955 50.0489 17.1364C50.0489 16.4848 49.9542 15.9148 49.7648 15.4261C49.5754 14.9337 49.2951 14.5511 48.9239 14.2784C48.5527 14.0019 48.0944 13.8636 47.5489 13.8636C46.9807 13.8636 46.5073 14.0095 46.1285 14.3011C45.7535 14.589 45.4713 14.9811 45.2819 15.4773C45.0963 15.9697 45.0035 16.5227 45.0035 17.1364C45.0035 17.7576 45.0982 18.322 45.2876 18.8295C45.4807 19.3333 45.7648 19.7348 46.1398 20.0341C46.5186 20.3295 46.9883 20.4773 47.5489 20.4773Z" fill="white"/>
<path d="M59.871 14.7273L58.6664 15.0682C58.5907 14.8674 58.4789 14.6723 58.3312 14.483C58.1873 14.2898 57.9903 14.1307 57.7403 14.0057C57.4903 13.8807 57.1702 13.8182 56.7801 13.8182C56.246 13.8182 55.8009 13.9413 55.4448 14.1875C55.0926 14.4299 54.9164 14.7386 54.9164 15.1136C54.9164 15.447 55.0376 15.7102 55.2801 15.9034C55.5225 16.0966 55.9013 16.2576 56.4164 16.3864L57.7119 16.7045C58.4922 16.8939 59.0736 17.1837 59.4562 17.5739C59.8388 17.9602 60.0301 18.4583 60.0301 19.0682C60.0301 19.5682 59.8861 20.0152 59.5982 20.4091C59.3141 20.803 58.9164 21.1136 58.4051 21.3409C57.8937 21.5682 57.299 21.6818 56.621 21.6818C55.7308 21.6818 54.9941 21.4886 54.4107 21.1023C53.8274 20.7159 53.4581 20.1515 53.3028 19.4091L54.5755 19.0909C54.6967 19.5606 54.9259 19.9129 55.263 20.1477C55.6039 20.3826 56.049 20.5 56.5982 20.5C57.2232 20.5 57.7195 20.3674 58.0869 20.1023C58.4581 19.8333 58.6437 19.5114 58.6437 19.1364C58.6437 18.8333 58.5376 18.5795 58.3255 18.375C58.1134 18.1667 57.7876 18.0114 57.3482 17.9091L55.8937 17.5682C55.0945 17.3788 54.5073 17.0852 54.1323 16.6875C53.7611 16.286 53.5755 15.7841 53.5755 15.1818C53.5755 14.6894 53.7138 14.2538 53.9903 13.875C54.2706 13.4962 54.6513 13.1989 55.1323 12.983C55.6172 12.767 56.1664 12.6591 56.7801 12.6591C57.6437 12.6591 58.3217 12.8485 58.8141 13.2273C59.3104 13.6061 59.6626 14.1061 59.871 14.7273ZM67.2285 17.9318V12.7727H68.5694V21.5H67.2285V20.0227H67.1376C66.9331 20.4659 66.6149 20.8428 66.1831 21.1534C65.7513 21.4602 65.2058 21.6136 64.5467 21.6136C64.0013 21.6136 63.5164 21.4943 63.0922 21.2557C62.6679 21.0133 62.3346 20.6496 62.0922 20.1648C61.8497 19.6761 61.7285 19.0606 61.7285 18.3182V12.7727H63.0694V18.2273C63.0694 18.8636 63.2475 19.3712 63.6035 19.75C63.9634 20.1288 64.4217 20.3182 64.9785 20.3182C65.3119 20.3182 65.6509 20.233 65.9956 20.0625C66.3441 19.892 66.6357 19.6307 66.8706 19.2784C67.1092 18.9261 67.2285 18.4773 67.2285 17.9318ZM70.7054 21.5V12.7727H72.0009V14.0909H72.0918C72.2509 13.6591 72.5387 13.3087 72.9554 13.0398C73.3721 12.7708 73.8418 12.6364 74.3645 12.6364C74.463 12.6364 74.5861 12.6383 74.7338 12.642C74.8815 12.6458 74.9933 12.6515 75.069 12.6591V14.0227C75.0236 14.0114 74.9194 13.9943 74.7565 13.9716C74.5974 13.9451 74.4289 13.9318 74.2509 13.9318C73.8266 13.9318 73.4478 14.0208 73.1145 14.1989C72.7849 14.3731 72.5236 14.6155 72.3304 14.9261C72.141 15.233 72.0463 15.5833 72.0463 15.9773V21.5H70.7054ZM83.7405 12.7727L80.5132 21.5H79.1496L75.9223 12.7727H77.3769L79.786 19.7273H79.8769L82.286 12.7727H83.7405ZM88.537 21.6818C87.6961 21.6818 86.9707 21.4962 86.3609 21.125C85.7548 20.75 85.287 20.2273 84.9574 19.5568C84.6317 18.8826 84.4688 18.0985 84.4688 17.2045C84.4688 16.3106 84.6317 15.5227 84.9574 14.8409C85.287 14.1553 85.7453 13.6212 86.3324 13.2386C86.9234 12.8523 87.6127 12.6591 88.4006 12.6591C88.8552 12.6591 89.304 12.7348 89.7472 12.8864C90.1904 13.0379 90.5938 13.2841 90.9574 13.625C91.3211 13.9621 91.6109 14.4091 91.8268 14.9659C92.0427 15.5227 92.1506 16.2083 92.1506 17.0227V17.5909H85.4234V16.4318H90.787C90.787 15.9394 90.6885 15.5 90.4915 15.1136C90.2984 14.7273 90.0218 14.4223 89.662 14.1989C89.3059 13.9754 88.8855 13.8636 88.4006 13.8636C87.8665 13.8636 87.4044 13.9962 87.0143 14.2614C86.6279 14.5227 86.3305 14.8636 86.1222 15.2841C85.9139 15.7045 85.8097 16.1553 85.8097 16.6364V17.4091C85.8097 18.0682 85.9234 18.6269 86.1506 19.0852C86.3817 19.5398 86.7018 19.8864 87.1109 20.125C87.5199 20.3598 87.9953 20.4773 88.537 20.4773C88.8893 20.4773 89.2074 20.428 89.4915 20.3295C89.7794 20.2273 90.0275 20.0758 90.2359 19.875C90.4442 19.6705 90.6052 19.4167 90.7188 19.1136L92.0143 19.4773C91.8779 19.9167 91.6487 20.303 91.3268 20.6364C91.0048 20.9659 90.6071 21.2235 90.1336 21.4091C89.6601 21.5909 89.1279 21.6818 88.537 21.6818ZM94.4684 24.7727C94.2411 24.7727 94.0385 24.7538 93.8605 24.7159C93.6824 24.6818 93.5593 24.6477 93.4911 24.6136L93.832 23.4318C94.1578 23.5152 94.4457 23.5455 94.6957 23.5227C94.9457 23.5 95.1673 23.3883 95.3605 23.1875C95.5574 22.9905 95.7374 22.6705 95.9002 22.2273L96.1502 21.5455L92.923 12.7727H94.3775L96.7866 19.7273H96.8775L99.2866 12.7727H100.741L97.0366 22.7727C96.8699 23.2235 96.6635 23.5966 96.4173 23.892C96.1711 24.1913 95.8851 24.4129 95.5593 24.5568C95.2374 24.7008 94.8737 24.7727 94.4684 24.7727ZM108.373 14.7273L107.168 15.0682C107.093 14.8674 106.981 14.6723 106.833 14.483C106.689 14.2898 106.492 14.1307 106.242 14.0057C105.992 13.8807 105.672 13.8182 105.282 13.8182C104.748 13.8182 104.303 13.9413 103.947 14.1875C103.594 14.4299 103.418 14.7386 103.418 15.1136C103.418 15.447 103.54 15.7102 103.782 15.9034C104.024 16.0966 104.403 16.2576 104.918 16.3864L106.214 16.7045C106.994 16.8939 107.575 17.1837 107.958 17.5739C108.341 17.9602 108.532 18.4583 108.532 19.0682C108.532 19.5682 108.388 20.0152 108.1 20.4091C107.816 20.803 107.418 21.1136 106.907 21.3409C106.396 21.5682 105.801 21.6818 105.123 21.6818C104.233 21.6818 103.496 21.4886 102.913 21.1023C102.329 20.7159 101.96 20.1515 101.805 19.4091L103.077 19.0909C103.199 19.5606 103.428 19.9129 103.765 20.1477C104.106 20.3826 104.551 20.5 105.1 20.5C105.725 20.5 106.221 20.3674 106.589 20.1023C106.96 19.8333 107.146 19.5114 107.146 19.1364C107.146 18.8333 107.04 18.5795 106.827 18.375C106.615 18.1667 106.29 18.0114 105.85 17.9091L104.396 17.5682C103.596 17.3788 103.009 17.0852 102.634 16.6875C102.263 16.286 102.077 15.7841 102.077 15.1818C102.077 14.6894 102.216 14.2538 102.492 13.875C102.772 13.4962 103.153 13.1989 103.634 12.983C104.119 12.767 104.668 12.6591 105.282 12.6591C106.146 12.6591 106.824 12.8485 107.316 13.2273C107.812 13.6061 108.165 14.1061 108.373 14.7273ZM114.026 12.7727V13.9091H109.503V12.7727H114.026ZM110.821 10.6818H112.162V19C112.162 19.3788 112.217 19.6629 112.327 19.8523C112.441 20.0379 112.585 20.1629 112.759 20.2273C112.937 20.2879 113.124 20.3182 113.321 20.3182C113.469 20.3182 113.59 20.3106 113.685 20.2955C113.78 20.2765 113.855 20.2614 113.912 20.25L114.185 21.4545C114.094 21.4886 113.967 21.5227 113.804 21.5568C113.641 21.5947 113.435 21.6136 113.185 21.6136C112.806 21.6136 112.435 21.5322 112.071 21.3693C111.711 21.2064 111.412 20.9583 111.174 20.625C110.939 20.2917 110.821 19.8712 110.821 19.3636V10.6818ZM115.723 21.5V12.7727H117.018V14.0909H117.109C117.268 13.6591 117.556 13.3087 117.973 13.0398C118.39 12.7708 118.859 12.6364 119.382 12.6364C119.48 12.6364 119.604 12.6383 119.751 12.642C119.899 12.6458 120.011 12.6515 120.087 12.6591V14.0227C120.041 14.0114 119.937 13.9943 119.774 13.9716C119.615 13.9451 119.446 13.9318 119.268 13.9318C118.844 13.9318 118.465 14.0208 118.132 14.1989C117.802 14.3731 117.541 14.6155 117.348 14.9261C117.159 15.233 117.064 15.5833 117.064 15.9773V21.5H115.723ZM124.749 21.6818C123.909 21.6818 123.183 21.4962 122.573 21.125C121.967 20.75 121.499 20.2273 121.17 19.5568C120.844 18.8826 120.681 18.0985 120.681 17.2045C120.681 16.3106 120.844 15.5227 121.17 14.8409C121.499 14.1553 121.958 13.6212 122.545 13.2386C123.136 12.8523 123.825 12.6591 124.613 12.6591C125.068 12.6591 125.517 12.7348 125.96 12.8864C126.403 13.0379 126.806 13.2841 127.17 13.625C127.534 13.9621 127.823 14.4091 128.039 14.9659C128.255 15.5227 128.363 16.2083 128.363 17.0227V17.5909H121.636V16.4318H126.999C126.999 15.9394 126.901 15.5 126.704 15.1136C126.511 14.7273 126.234 14.4223 125.874 14.1989C125.518 13.9754 125.098 13.8636 124.613 13.8636C124.079 13.8636 123.617 13.9962 123.227 14.2614C122.84 14.5227 122.543 14.8636 122.335 15.2841C122.126 15.7045 122.022 16.1553 122.022 16.6364V17.4091C122.022 18.0682 122.136 18.6269 122.363 19.0852C122.594 19.5398 122.914 19.8864 123.323 20.125C123.732 20.3598 124.208 20.4773 124.749 20.4773C125.102 20.4773 125.42 20.428 125.704 20.3295C125.992 20.2273 126.24 20.0758 126.448 19.875C126.657 19.6705 126.818 19.4167 126.931 19.1136L128.227 19.4773C128.09 19.9167 127.861 20.303 127.539 20.6364C127.217 20.9659 126.82 21.2235 126.346 21.4091C125.873 21.5909 125.34 21.6818 124.749 21.6818ZM132.651 21.7045C132.098 21.7045 131.596 21.6004 131.145 21.392C130.695 21.1799 130.337 20.875 130.072 20.4773C129.806 20.0758 129.674 19.5909 129.674 19.0227C129.674 18.5227 129.772 18.1174 129.969 17.8068C130.166 17.4924 130.429 17.2462 130.759 17.0682C131.089 16.8902 131.452 16.7576 131.85 16.6705C132.251 16.5795 132.655 16.5076 133.06 16.4545C133.59 16.3864 134.02 16.3352 134.35 16.3011C134.683 16.2633 134.926 16.2008 135.077 16.1136C135.233 16.0265 135.31 15.875 135.31 15.6591V15.6136C135.31 15.053 135.157 14.6174 134.85 14.3068C134.547 13.9962 134.087 13.8409 133.469 13.8409C132.829 13.8409 132.327 13.9811 131.964 14.2614C131.6 14.5417 131.344 14.8409 131.197 15.1591L129.924 14.7045C130.151 14.1742 130.454 13.7614 130.833 13.4659C131.215 13.1667 131.632 12.9583 132.083 12.8409C132.537 12.7197 132.984 12.6591 133.424 12.6591C133.704 12.6591 134.026 12.6932 134.39 12.7614C134.757 12.8258 135.111 12.9602 135.452 13.1648C135.797 13.3693 136.083 13.678 136.31 14.0909C136.537 14.5038 136.651 15.0568 136.651 15.75V21.5H135.31V20.3182H135.242C135.151 20.5076 135 20.7102 134.787 20.9261C134.575 21.142 134.293 21.3258 133.941 21.4773C133.589 21.6288 133.159 21.7045 132.651 21.7045ZM132.856 20.5C133.386 20.5 133.833 20.3958 134.197 20.1875C134.564 19.9792 134.84 19.7102 135.026 19.3807C135.215 19.0511 135.31 18.7045 135.31 18.3409V17.1136C135.253 17.1818 135.128 17.2443 134.935 17.3011C134.746 17.3542 134.526 17.4015 134.276 17.4432C134.03 17.4811 133.789 17.5152 133.554 17.5455C133.323 17.572 133.136 17.5947 132.992 17.6136C132.644 17.6591 132.318 17.733 132.015 17.8352C131.715 17.9337 131.473 18.0833 131.287 18.2841C131.106 18.4811 131.015 18.75 131.015 19.0909C131.015 19.5568 131.187 19.9091 131.532 20.1477C131.88 20.3826 132.322 20.5 132.856 20.5ZM138.779 21.5V12.7727H140.074V14.1364H140.188C140.369 13.6705 140.663 13.3087 141.068 13.0511C141.474 12.7898 141.96 12.6591 142.529 12.6591C143.104 12.6591 143.583 12.7898 143.966 13.0511C144.352 13.3087 144.654 13.6705 144.869 14.1364H144.96C145.184 13.6856 145.519 13.3277 145.966 13.0625C146.413 12.7936 146.949 12.6591 147.574 12.6591C148.354 12.6591 148.993 12.9034 149.489 13.392C149.985 13.8769 150.233 14.6326 150.233 15.6591V21.5H148.892V15.6591C148.892 15.0152 148.716 14.5549 148.364 14.2784C148.011 14.0019 147.597 13.8636 147.119 13.8636C146.506 13.8636 146.03 14.0492 145.693 14.4205C145.356 14.7879 145.188 15.2538 145.188 15.8182V21.5H143.824V15.5227C143.824 15.0265 143.663 14.6269 143.341 14.3239C143.019 14.017 142.604 13.8636 142.097 13.8636C141.748 13.8636 141.422 13.9564 141.119 14.142C140.82 14.3277 140.578 14.5852 140.392 14.9148C140.21 15.2405 140.119 15.6174 140.119 16.0455V21.5H138.779Z" fill="#AFCBE8"/>
</svg>
