<svg width="328" height="284" viewBox="0 0 328 284" fill="none" xmlns="http://www.w3.org/2000/svg">
<rect x="0.5" y="0.5" width="327" height="283" rx="7.5" fill="white"/>
<g clip-path="url(#clip0_382_35175)">
<path d="M150.593 135.221L212.334 135.111C212.445 135.111 212.551 135.067 212.629 134.989C212.707 134.911 212.751 134.805 212.751 134.695C212.751 134.584 212.707 134.478 212.629 134.4C212.551 134.322 212.445 134.279 212.334 134.279L150.593 134.389C150.482 134.389 150.376 134.433 150.298 134.511C150.22 134.589 150.176 134.695 150.176 134.805C150.176 134.915 150.22 135.021 150.298 135.099C150.376 135.177 150.482 135.221 150.593 135.221Z" fill="#3F3D56"/>
<path d="M149.67 141.047C152.888 141.047 155.496 138.439 155.496 135.221C155.496 132.004 152.888 129.395 149.67 129.395C146.453 129.395 143.845 132.004 143.845 135.221C143.845 138.439 146.453 141.047 149.67 141.047Z" fill="#3F3D56"/>
<path d="M209.567 135.191C201.669 135.191 193.948 132.849 187.381 128.462C180.814 124.074 175.696 117.837 172.673 110.54C169.651 103.243 168.86 95.214 170.401 87.4677C171.942 79.7215 175.745 72.606 181.33 67.0213C186.915 61.4365 194.03 57.6333 201.776 56.0924C209.523 54.5516 217.552 55.3424 224.849 58.3649C232.145 61.3873 238.382 66.5056 242.77 73.0726C247.158 79.6396 249.5 87.3603 249.5 95.2583C249.488 105.846 245.277 115.996 237.791 123.482C230.304 130.968 220.154 135.18 209.567 135.191ZM209.567 58.0791C202.213 58.0791 195.025 60.2597 188.911 64.345C182.797 68.4303 178.032 74.2368 175.218 81.0305C172.404 87.8241 171.667 95.2996 173.102 102.512C174.537 109.724 178.078 116.348 183.277 121.548C188.477 126.748 195.101 130.289 202.314 131.723C209.526 133.158 217.001 132.421 223.795 129.607C230.588 126.793 236.395 122.028 240.48 115.914C244.565 109.8 246.746 102.612 246.746 95.2583C246.735 85.4012 242.814 75.951 235.844 68.981C228.874 62.011 219.424 58.0903 209.567 58.0791Z" fill="#3F3D56"/>
<path d="M226.797 111.259C225.336 111.26 223.907 110.827 222.691 110.016C221.475 109.205 220.527 108.051 219.967 106.701C219.407 105.351 219.259 103.865 219.543 102.432C219.828 100.998 220.531 99.6807 221.563 98.6465C222.596 97.6123 223.913 96.9075 225.346 96.6214C226.779 96.3353 228.265 96.4806 229.616 97.0391C230.967 97.5975 232.122 98.5439 232.935 99.7586C233.747 100.973 234.182 102.402 234.183 103.864C234.183 105.823 233.406 107.703 232.021 109.09C230.636 110.476 228.757 111.257 226.797 111.259ZM209.567 111.259C207.609 111.257 205.732 110.478 204.347 109.093C202.963 107.709 202.184 105.832 202.182 103.874V86.6429C202.182 84.6843 202.96 82.8058 204.345 81.4208C205.73 80.0358 207.608 79.2577 209.567 79.2577C211.525 79.2577 213.404 80.0358 214.789 81.4208C216.174 82.8058 216.952 84.6843 216.952 86.6429V103.874C216.95 105.832 216.171 107.709 214.786 109.093C213.402 110.478 211.525 111.257 209.567 111.259ZM192.341 111.259C190.382 111.257 188.503 110.477 187.118 109.092C185.732 107.706 184.953 105.828 184.951 103.868V96.9841C184.951 95.0241 185.729 93.1443 187.115 91.7584C188.501 90.3724 190.381 89.5938 192.341 89.5938C194.301 89.5938 196.181 90.3724 197.567 91.7584C198.953 93.1443 199.731 95.0241 199.731 96.9841V103.868C199.729 105.828 198.95 107.706 197.564 109.092C196.179 110.477 194.3 111.257 192.341 111.259Z" fill="#061178"/>
<path d="M89.2604 193.061V193.731C89.2614 194.841 89.7027 195.905 90.4875 196.69C91.2723 197.475 92.3364 197.916 93.4463 197.917H128.942C130.052 197.916 131.117 197.475 131.902 196.69C132.686 195.906 133.128 194.841 133.128 193.731V193.061C133.13 192.082 132.786 191.133 132.157 190.382C131.947 190.133 131.71 189.908 131.45 189.713H113.039C112.817 189.713 112.604 189.624 112.447 189.467C112.29 189.31 112.202 189.097 112.202 188.875H93.4463C92.3366 188.877 91.2728 189.319 90.4881 190.103C89.7035 190.888 89.262 191.952 89.2604 193.061Z" fill="#3F3D56"/>
<path d="M108.852 228.558H113.205V197.751H108.852V228.558Z" fill="#3F3D56"/>
<path d="M96.4617 228.405C96.4617 228.876 103.058 228.587 111.196 228.587C119.333 228.587 125.93 228.876 125.93 228.405C125.93 227.935 119.333 224.205 111.196 224.205C103.058 224.205 96.4617 227.935 96.4617 228.405Z" fill="#3F3D56"/>
<path d="M96.0917 192.355L110.946 194.726L128.205 197.482L134.189 198.436C134.764 198.527 135.351 198.386 135.822 198.044C136.293 197.703 136.609 197.189 136.701 196.614L136.972 194.92L137.223 193.343L137.431 192.043C137.478 191.753 137.465 191.456 137.394 191.17C137.322 190.885 137.194 190.617 137.016 190.382C136.805 190.094 136.525 189.864 136.202 189.713H113.039C112.817 189.713 112.604 189.624 112.447 189.467C112.29 189.31 112.202 189.098 112.202 188.876V188.216C112.202 187.994 112.29 187.781 112.447 187.624C112.604 187.467 112.817 187.379 113.039 187.379H122.141L117.945 186.709L105.046 184.649L97.5149 183.447C96.939 183.356 96.3505 183.497 95.8784 183.839C95.4063 184.181 95.0892 184.697 94.9967 185.272L94.2666 189.84C94.1775 190.415 94.3193 191.002 94.6612 191.473C95.003 191.944 95.5172 192.261 96.0917 192.355Z" fill="#061178"/>
<path d="M128.205 191.719V217.239C128.206 217.82 128.438 218.378 128.849 218.789C129.26 219.2 129.817 219.431 130.399 219.432H135.03C135.611 219.431 136.169 219.2 136.58 218.789C136.991 218.378 137.223 217.82 137.223 217.239V191.719C137.224 191.234 137.063 190.764 136.765 190.382C136.544 190.089 136.251 189.858 135.914 189.713H129.511C129.176 189.859 128.884 190.09 128.664 190.382C128.367 190.764 128.205 191.234 128.205 191.719Z" fill="#061178"/>
<path d="M114.248 148.524C114.272 148.752 114.33 148.974 114.422 149.184C114.562 149.504 114.776 149.785 115.048 150.004L115.059 150.011L128.272 160.73L128.466 160.884L131.202 163.104L132.029 163.774H146.338L145.515 163.104L134.206 153.929L126.628 147.781L120.731 142.999C120.386 142.718 119.963 142.549 119.519 142.517C119.517 142.515 119.515 142.513 119.512 142.513C119.381 142.504 119.248 142.506 119.117 142.52C118.92 142.54 118.728 142.587 118.544 142.661C118.419 142.706 118.3 142.767 118.189 142.841C117.981 142.968 117.797 143.13 117.644 143.32L114.77 146.86L114.727 146.917C114.545 147.14 114.409 147.396 114.326 147.672C114.244 147.948 114.218 148.238 114.248 148.524Z" fill="#061178"/>
<path d="M115.059 150.011C115.308 150.633 115.67 151.205 116.127 151.695L124.924 161.145C125.136 161.34 125.385 161.492 125.657 161.591C125.928 161.689 126.216 161.734 126.504 161.721C126.793 161.708 127.076 161.639 127.337 161.516C127.599 161.394 127.833 161.221 128.028 161.008L128.272 160.73L128.38 160.609L132.18 156.347L133.814 154.511C133.923 154.398 134.018 154.272 134.096 154.136C134.136 154.069 134.173 153.999 134.206 153.929C134.343 153.616 134.406 153.276 134.39 152.934C134.379 152.644 134.31 152.359 134.186 152.096C134.062 151.833 133.887 151.598 133.67 151.404L123.47 143.608C122.345 142.745 120.928 142.354 119.519 142.517C119.517 142.515 119.515 142.513 119.512 142.513C119.199 142.552 118.89 142.617 118.588 142.707C118.454 142.744 118.324 142.791 118.19 142.841C117.325 143.167 116.558 143.709 115.963 144.415C115.315 145.176 114.888 146.1 114.729 147.087C114.57 148.073 114.684 149.085 115.059 150.011Z" fill="#2F2E41"/>
<path d="M110.882 134.734C120.151 134.734 127.666 127.219 127.666 117.95C127.666 108.68 120.151 101.166 110.882 101.166C101.612 101.166 94.0974 108.68 94.0974 117.95C94.0974 127.219 101.612 134.734 110.882 134.734Z" fill="#061178"/>
<path d="M106.412 190.041L112.637 191.032L112.778 191.055L122.241 192.566L128.205 193.52L136.972 194.92L137.223 194.96L138.526 195.168L144.51 196.122C145.084 196.213 145.672 196.072 146.142 195.73C146.613 195.389 146.929 194.875 147.021 194.3L147.544 191.032L147.752 189.733C147.752 189.726 147.755 189.719 147.755 189.713H113.039C112.817 189.713 112.604 189.624 112.447 189.467C112.29 189.31 112.202 189.097 112.202 188.875V188.216C112.202 187.994 112.29 187.781 112.447 187.624C112.604 187.467 112.817 187.379 113.039 187.379H124.009V183.719L123.34 183.611L120.031 183.082L107.832 181.137C107.257 181.045 106.669 181.186 106.198 181.527C105.726 181.869 105.41 182.384 105.317 182.958L105.046 184.65L104.587 187.529C104.497 188.104 104.639 188.691 104.981 189.162C105.323 189.633 105.838 189.949 106.412 190.041Z" fill="#061178"/>
<path d="M88.0381 175.213C88.0381 188.896 89.4279 197.08 110.859 194.736C110.889 194.732 110.916 194.729 110.946 194.726C114.769 194.348 118.549 193.625 122.241 192.566C124.16 192.005 126.025 191.275 127.814 190.382C128.235 190.168 128.641 189.944 129.039 189.713H113.039C112.817 189.713 112.604 189.624 112.447 189.467C112.29 189.31 112.202 189.097 112.202 188.875V188.216C112.202 187.994 112.29 187.781 112.447 187.624C112.604 187.467 112.817 187.379 113.039 187.379H124.009V166.228C124.01 165.578 124.269 164.954 124.729 164.494C125.19 164.034 125.813 163.775 126.464 163.774H135.388C135.311 163.553 135.234 163.329 135.151 163.104C134.313 160.788 133.321 158.53 132.18 156.347C130.618 153.315 128.758 150.445 126.628 147.781C125.145 145.924 123.481 144.22 121.659 142.694C118.3 139.921 114.643 138.207 110.933 138.207C97.2504 138.207 88.0381 161.53 88.0381 175.213Z" fill="#2F2E41"/>
<path d="M110.529 124.171L110.511 123.543C111.678 123.511 112.707 123.438 113.48 122.873C113.699 122.704 113.879 122.489 114.008 122.244C114.137 121.999 114.212 121.729 114.227 121.453C114.24 121.284 114.215 121.114 114.152 120.957C114.089 120.799 113.991 120.658 113.865 120.545C113.352 120.112 112.527 120.252 111.925 120.528L111.406 120.766L112.401 113.493L113.022 113.578L112.176 119.765C112.994 119.524 113.751 119.628 114.27 120.066C114.469 120.24 114.626 120.458 114.727 120.702C114.828 120.946 114.872 121.211 114.854 121.475C114.835 121.846 114.736 122.209 114.563 122.538C114.389 122.867 114.146 123.154 113.85 123.38C112.857 124.105 111.566 124.141 110.529 124.171Z" fill="#2F2E41"/>
<path d="M119.474 114.112H116.096V114.739H119.474V114.112Z" fill="#2F2E41"/>
<path d="M108.811 114.112H105.433V114.739H108.811V114.112Z" fill="#2F2E41"/>
<path d="M97.4863 113.338C98.7917 111.373 101.089 110.54 103.354 110.338C105.903 110.11 108.366 110.601 110.855 111.079C113.595 111.605 116.494 112.096 119.254 111.432C120.475 111.149 121.616 110.593 122.591 109.806C123.566 109.018 124.349 108.019 124.882 106.885C125.893 104.672 126.111 102.178 125.499 99.8231C124.852 97.3185 123.247 95.1147 121.3 93.4502C117.328 90.0529 111.952 88.5261 106.782 88.6699C101.631 88.8028 96.6523 90.5533 92.5517 93.6734C88.4443 96.9061 85.5539 101.436 84.3524 106.523C83.0959 111.568 83.5052 116.884 85.5191 121.678C86.6506 124.302 88.2869 126.669 89.5496 129.227C90.7253 131.609 91.6307 134.379 90.8992 137.036C90.2573 139.368 88.3728 141.439 86.007 142.072C84.9306 142.355 83.7916 142.28 82.7614 141.86C81.7311 141.439 80.8653 140.695 80.2941 139.74C79.1114 137.875 79.0831 135.433 80.8588 133.927C81.3065 133.541 81.828 133.25 82.3917 133.072C82.9553 132.894 83.5492 132.833 84.1374 132.891C84.7256 132.95 85.2956 133.128 85.813 133.414C86.3303 133.699 86.7841 134.088 87.1467 134.554C87.8671 135.49 88.1896 136.672 88.0442 137.844C87.9567 138.436 88.8631 138.692 88.9514 138.094C89.1633 136.855 88.9283 135.58 88.2883 134.498C87.6483 133.416 86.6449 132.596 85.4568 132.185C84.2687 131.773 82.9732 131.797 81.8009 132.251C80.6287 132.706 79.6559 133.562 79.056 134.667C77.9851 136.68 78.5629 139.109 79.9223 140.83C80.6236 141.747 81.5742 142.442 82.6603 142.832C83.7464 143.223 84.9221 143.292 86.0466 143.032C88.521 142.461 90.5451 140.494 91.4971 138.183C92.5568 135.61 92.0713 132.739 91.0382 130.243C89.9214 127.544 88.2631 125.124 86.9516 122.523C85.7642 120.173 85.0085 117.628 84.7207 115.011C84.1447 109.755 85.3376 104.457 88.1106 99.9554C90.9371 95.5235 95.2514 92.2446 100.278 90.708C105.235 89.152 110.702 89.1997 115.555 91.1119C120.336 92.9955 124.952 97.1005 124.897 102.614C124.873 104.969 123.999 107.37 122.195 108.941C120.039 110.819 117.037 110.979 114.327 110.686C111.6 110.391 108.952 109.595 106.213 109.392C103.83 109.215 101.26 109.399 99.133 110.582C98.1424 111.135 97.299 111.917 96.674 112.863C96.338 113.369 97.1525 113.841 97.4863 113.338Z" fill="#2F2E41"/>
<path d="M100.157 154.418C100.184 154.479 100.214 154.538 100.247 154.595C100.281 154.655 100.318 154.713 100.358 154.769L107.698 165.334L108.267 166.155L114.255 174.768L120.031 183.082L122.369 186.451C122.432 186.543 122.502 186.629 122.58 186.709C122.941 187.089 123.427 187.327 123.949 187.379H124.009V173.01L123.34 172.045L115.829 161.236L107.762 149.626C107.43 149.148 106.922 148.822 106.349 148.718C105.777 148.615 105.186 148.742 104.708 149.073L102.233 150.791L100.904 151.715C100.483 152.008 100.179 152.438 100.042 152.932C99.9059 153.425 99.9465 153.951 100.157 154.418Z" fill="#061178"/>
<path d="M99.0084 154.16L99.3398 154.826L99.3432 154.83L99.4337 155.007L104.815 165.689C105.118 166.186 105.606 166.543 106.171 166.681C106.737 166.819 107.334 166.727 107.832 166.426L108.18 166.208L108.267 166.155L115.206 161.802C115.454 161.652 115.669 161.454 115.84 161.22C116.011 160.987 116.134 160.721 116.202 160.44C116.27 160.159 116.281 159.866 116.235 159.581C116.19 159.295 116.088 159.021 115.936 158.774L108.314 148.44C107.567 147.428 106.494 146.703 105.276 146.388C104.057 146.074 102.768 146.188 101.624 146.712C101.366 146.829 101.117 146.965 100.88 147.121C99.76 147.861 98.9506 148.987 98.6055 150.284C98.2604 151.582 98.4038 152.961 99.0084 154.16Z" fill="#2F2E41"/>
<path d="M138.526 189.713V214.925C138.527 215.506 138.758 216.064 139.169 216.475C139.581 216.886 140.138 217.117 140.719 217.118H145.351C145.932 217.117 146.489 216.886 146.901 216.475C147.312 216.064 147.543 215.506 147.544 214.925V189.713H138.526Z" fill="#061178"/>
<path d="M111.532 188.216V188.876C111.533 189.224 111.654 189.562 111.875 189.832C112.096 190.101 112.403 190.286 112.745 190.356C112.791 190.362 112.838 190.372 112.885 190.376C112.935 190.379 112.986 190.382 113.039 190.382H164.662C165.491 190.382 166.286 190.053 166.873 189.467C167.459 188.882 167.789 188.087 167.79 187.258V166.229C167.789 165.4 167.459 164.605 166.873 164.019C166.286 163.434 165.491 163.104 164.662 163.104H126.464C125.636 163.105 124.841 163.435 124.256 164.02C123.67 164.606 123.341 165.4 123.34 166.229V186.709H113.039C112.64 186.709 112.256 186.868 111.974 187.15C111.691 187.433 111.532 187.816 111.532 188.216Z" fill="white"/>
<path d="M111.532 188.216V188.876C111.533 189.224 111.654 189.562 111.875 189.832C112.096 190.101 112.403 190.286 112.745 190.356C112.791 190.362 112.838 190.372 112.885 190.376C112.935 190.379 112.986 190.382 113.039 190.382H164.662C165.491 190.382 166.286 190.053 166.873 189.467C167.459 188.882 167.789 188.087 167.79 187.258V166.229C167.789 165.4 167.459 164.605 166.873 164.019C166.286 163.434 165.491 163.104 164.662 163.104H126.464C125.636 163.105 124.841 163.435 124.256 164.02C123.67 164.606 123.341 165.4 123.34 166.229V186.709H113.039C112.64 186.709 112.256 186.868 111.974 187.15C111.691 187.433 111.532 187.816 111.532 188.216ZM112.202 188.876V188.216C112.202 187.994 112.29 187.781 112.447 187.624C112.604 187.467 112.817 187.379 113.039 187.379H124.009V166.229C124.01 165.578 124.269 164.954 124.729 164.494C125.19 164.034 125.813 163.775 126.464 163.774H164.662C165.314 163.774 165.938 164.033 166.399 164.493C166.86 164.953 167.119 165.577 167.12 166.229V187.258C167.119 187.909 166.86 188.534 166.399 188.994C165.938 189.454 165.314 189.712 164.662 189.713H113.039C112.817 189.713 112.604 189.624 112.447 189.467C112.29 189.31 112.202 189.098 112.202 188.876Z" fill="#3F3D56"/>
<path d="M145.564 179.319C146.987 179.319 148.14 178.166 148.14 176.744C148.14 175.321 146.987 174.168 145.564 174.168C144.142 174.168 142.989 175.321 142.989 176.744C142.989 178.166 144.142 179.319 145.564 179.319Z" fill="#061178"/>
<path d="M124.02 187.064H123.35V190.078H124.02V187.064Z" fill="#3F3D56"/>
</g>
<rect x="0.5" y="0.5" width="327" height="283" rx="7.5" stroke="#D9D9D9"/>
<defs>
<clipPath id="clip0_382_35175">
<rect width="171" height="173.35" fill="white" transform="translate(78.5 55.3251)"/>
</clipPath>
</defs>
</svg>
