<svg width="328" height="284" viewBox="0 0 328 284" fill="none" xmlns="http://www.w3.org/2000/svg">
<rect x="0.5" y="0.5" width="327" height="283" rx="7.5" fill="white"/>
<g clip-path="url(#clip0_382_35210)">
<path d="M232.427 230.172H78.8602C78.8602 230.172 75.7474 193.086 94.165 192.665C112.583 192.243 110.507 209.1 133.594 185.922C156.681 162.743 184.697 164.007 188.328 177.704C191.96 191.4 181.324 202.358 200.78 198.986C220.235 195.615 248.25 204.465 232.427 230.172Z" fill="#E6E6E6"/>
<path d="M153.051 230.181L152.533 230.164C153.742 205.747 160.037 190.058 165.105 181.197C170.608 171.576 175.911 167.681 175.964 167.642L176.309 167.957C176.256 167.995 171.015 171.852 165.557 181.408C160.516 190.231 154.255 205.855 153.051 230.181Z" fill="white"/>
<path d="M208.631 230.231L208.133 230.113C214.13 213.392 228.252 202.835 228.395 202.73L228.743 203.042C228.602 203.146 214.585 213.629 208.631 230.231Z" fill="white"/>
<path d="M103.048 230.201L102.534 230.143C104.175 220.88 102.367 211.336 97.4513 203.315C93.7248 197.187 89.4729 193.841 89.4304 193.807L89.7893 193.503C89.8325 193.537 94.1501 196.935 97.9164 203.128C102.878 211.222 104.703 220.853 103.048 230.201Z" fill="white"/>
<path d="M136.193 168.958L138.694 171.857C138.986 172.196 139.132 172.636 139.099 173.082C139.066 173.528 138.858 173.942 138.52 174.235L114.361 195.083C114.023 195.375 113.582 195.52 113.136 195.487C112.69 195.454 112.276 195.246 111.983 194.908L109.482 192.009C109.19 191.671 109.045 191.23 109.078 190.784C109.111 190.338 109.319 189.924 109.657 189.631L133.815 168.783C134.154 168.492 134.594 168.346 135.04 168.379C135.486 168.412 135.901 168.62 136.193 168.958Z" fill="#061178"/>
<path d="M158.313 170.966L156.558 167.564C156.354 167.166 156.316 166.704 156.452 166.278C156.588 165.852 156.887 165.498 157.284 165.292L185.647 150.669C186.044 150.465 186.507 150.427 186.932 150.563C187.358 150.699 187.713 150.998 187.918 151.395L189.672 154.798C189.877 155.196 189.915 155.658 189.779 156.084C189.643 156.51 189.344 156.864 188.947 157.07L160.584 171.692C160.187 171.897 159.724 171.935 159.298 171.799C158.873 171.663 158.518 171.364 158.313 170.966Z" fill="#061178"/>
<path d="M155.982 167.063C156.124 166.636 156.296 165.356 156.698 165.154L169.17 157.595C169.368 157.496 169.583 157.436 169.804 157.42C170.025 157.404 170.247 157.432 170.457 157.502C170.667 157.571 170.861 157.682 171.029 157.826C171.196 157.971 171.334 158.148 171.433 158.346L174.576 164.824C174.776 165.223 174.809 165.686 174.669 166.111C174.528 166.535 174.225 166.886 173.826 167.087L160.056 172.523C159.657 172.723 159.194 172.756 158.769 172.615C158.345 172.475 157.994 172.172 157.793 171.772L156.075 168.351C155.894 167.993 155.848 167.582 155.945 167.192C155.955 167.149 155.967 167.106 155.982 167.063Z" fill="#3F3D56"/>
<path d="M185.714 120.593H185.195V171.696H185.714V120.593Z" fill="#3F3D56"/>
<path d="M183.12 55.0752V118.681C183.12 119.129 183.265 119.564 183.533 119.922C183.801 120.28 184.177 120.543 184.606 120.669C185.035 120.796 185.494 120.781 185.914 120.626C186.333 120.471 186.692 120.185 186.935 119.81C189.917 115.275 193.592 111.237 197.825 107.841C197.952 107.737 198.081 107.635 198.21 107.535C199.491 106.524 200.821 105.574 202.199 104.686C202.288 104.63 202.378 104.572 202.467 104.518C210.754 99.2429 220.376 96.4488 230.199 96.4652H282.963C283.513 96.4652 284.041 96.2465 284.43 95.8573C284.819 95.4682 285.038 94.9403 285.038 94.3899V55.0752C285.038 54.5248 284.819 53.997 284.43 53.6078C284.041 53.2186 283.513 53 282.963 53H185.195C184.645 53 184.117 53.2186 183.728 53.6078C183.339 53.997 183.12 54.5248 183.12 55.0752Z" fill="#E6E6E6"/>
<path d="M255.27 68.0593H188.405C188.093 68.0588 187.793 67.9344 187.572 67.7132C187.352 67.4921 187.228 67.1923 187.228 66.8798C187.228 66.5673 187.352 66.2676 187.572 66.0464C187.793 65.8253 188.093 65.7008 188.405 65.7003H255.27C255.425 65.7001 255.578 65.7305 255.722 65.7896C255.865 65.8488 255.995 65.9356 256.105 66.0452C256.215 66.1547 256.302 66.2848 256.361 66.4281C256.42 66.5713 256.451 66.7248 256.451 66.8798C256.451 67.0349 256.42 67.1884 256.361 67.3316C256.302 67.4748 256.215 67.6049 256.105 67.7145C255.995 67.824 255.865 67.9108 255.722 67.97C255.578 68.0292 255.425 68.0595 255.27 68.0593Z" fill="#CCCCCC"/>
<path d="M255.27 73.3892H188.405C188.092 73.3892 187.792 73.2649 187.571 73.0437C187.35 72.8225 187.226 72.5225 187.226 72.2096C187.226 71.8968 187.35 71.5967 187.571 71.3755C187.792 71.1543 188.092 71.03 188.405 71.03H255.27C255.425 71.03 255.578 71.0605 255.721 71.1198C255.864 71.1791 255.994 71.266 256.104 71.3755C256.213 71.4851 256.3 71.6151 256.359 71.7582C256.419 71.9013 256.449 72.0547 256.449 72.2096C256.449 72.3645 256.419 72.5179 256.359 72.661C256.3 72.8042 256.213 72.9342 256.104 73.0437C255.994 73.1533 255.864 73.2402 255.721 73.2994C255.578 73.3587 255.425 73.3892 255.27 73.3892Z" fill="#CCCCCC"/>
<path d="M255.27 78.7189H188.405C188.093 78.7184 187.793 78.5939 187.572 78.3728C187.352 78.1516 187.228 77.8519 187.228 77.5394C187.228 77.2269 187.352 76.9271 187.572 76.706C187.793 76.4849 188.093 76.3604 188.405 76.3599H255.27C255.425 76.3597 255.578 76.39 255.722 76.4492C255.865 76.5084 255.995 76.5952 256.105 76.7048C256.215 76.8143 256.302 76.9444 256.361 77.0876C256.42 77.2308 256.451 77.3844 256.451 77.5394C256.451 77.6944 256.42 77.848 256.361 77.9912C256.302 78.1344 256.215 78.2645 256.105 78.374C255.995 78.4836 255.865 78.5704 255.722 78.6296C255.578 78.6888 255.425 78.7191 255.27 78.7189Z" fill="#CCCCCC"/>
<path d="M279.831 78.7189H268.986C268.676 78.7186 268.38 78.5955 268.161 78.3766C267.942 78.1578 267.819 77.8611 267.818 77.5516V66.7063C267.819 66.3968 267.942 66.1001 268.161 65.8813C268.38 65.6624 268.676 65.5393 268.986 65.539H279.831C280.141 65.5393 280.437 65.6624 280.656 65.8813C280.875 66.1001 280.998 66.3968 280.998 66.7063V77.5516C280.998 77.8611 280.875 78.1578 280.656 78.3766C280.437 78.5955 280.141 78.7186 279.831 78.7189ZM268.986 65.7984C268.745 65.7987 268.514 65.8944 268.344 66.0646C268.174 66.2349 268.078 66.4656 268.078 66.7063V77.5516C268.078 77.7923 268.174 78.023 268.344 78.1933C268.514 78.3635 268.745 78.4592 268.986 78.4595H279.831C280.072 78.4592 280.303 78.3635 280.473 78.1933C280.643 78.023 280.739 77.7923 280.739 77.5516V66.7063C280.739 66.4656 280.643 66.2349 280.473 66.0646C280.303 65.8944 280.072 65.7987 279.831 65.7984H268.986Z" fill="#061178"/>
<path d="M274.398 74.8635C274.319 74.8637 274.241 74.8468 274.17 74.8139C274.099 74.781 274.035 74.7329 273.984 74.673L270.578 70.7002C270.484 70.5902 270.438 70.4475 270.449 70.3033C270.46 70.1591 270.528 70.0252 270.638 69.9311C270.748 69.837 270.89 69.7903 271.034 69.8013C271.179 69.8123 271.313 69.8801 271.407 69.9898L274.114 73.147C274.142 73.1805 274.178 73.2069 274.218 73.2242C274.258 73.2415 274.302 73.2491 274.345 73.2466C274.389 73.2445 274.432 73.2324 274.47 73.2112C274.508 73.1901 274.541 73.1604 274.566 73.1245L282.868 61.2373C282.909 61.1784 282.961 61.1283 283.022 61.0896C283.082 61.051 283.15 61.0246 283.22 61.012C283.291 60.9995 283.363 61.0009 283.433 61.0163C283.503 61.0317 283.569 61.0608 283.628 61.1018C283.687 61.1429 283.737 61.1951 283.776 61.2555C283.814 61.3159 283.841 61.3834 283.853 61.454C283.866 61.5246 283.864 61.5969 283.849 61.6669C283.833 61.7369 283.804 61.8032 283.763 61.862L274.846 74.6302C274.798 74.6987 274.736 74.7553 274.663 74.7957C274.59 74.8361 274.509 74.8591 274.425 74.863C274.416 74.8633 274.407 74.8635 274.398 74.8635Z" fill="#061178"/>
<path d="M185.455 126.56C188.75 126.56 191.421 123.888 191.421 120.593C191.421 117.298 188.75 114.627 185.455 114.627C182.159 114.627 179.488 117.298 179.488 120.593C179.488 123.888 182.159 126.56 185.455 126.56Z" fill="#3F3D56"/>
<path d="M114.638 157.688H114.119V208.79H114.638V157.688Z" fill="#3F3D56"/>
<path d="M114.099 157.338C113.755 157.338 113.416 157.255 113.111 157.097C112.805 156.939 112.542 156.711 112.342 156.431C110.407 153.775 108.129 151.387 105.566 149.33C105.474 149.255 105.383 149.183 105.291 149.112C104.378 148.391 103.419 147.706 102.439 147.075L102.371 147.032C102.331 147.006 102.29 146.981 102.25 146.956C96.3453 143.193 89.4886 141.196 82.4871 141.199H45.1669C44.5823 141.199 44.0219 140.966 43.6085 140.553C43.1951 140.139 42.9626 139.579 42.9619 138.994V111.969C42.9626 111.384 43.1951 110.824 43.6085 110.41C44.0219 109.997 44.5823 109.765 45.1669 109.764H114.119C114.703 109.765 115.264 109.997 115.677 110.41C116.091 110.824 116.323 111.384 116.324 111.969V155.127C116.329 155.594 116.183 156.051 115.908 156.429C115.634 156.807 115.245 157.086 114.799 157.226C114.573 157.3 114.337 157.338 114.099 157.338Z" fill="#E6E6E6"/>
<path d="M112.403 120.732H64.4435C64.3276 120.732 64.2128 120.709 64.1057 120.665C63.9986 120.62 63.9013 120.555 63.8193 120.473C63.7374 120.391 63.6723 120.294 63.628 120.187C63.5836 120.08 63.5608 119.965 63.5608 119.849C63.5608 119.733 63.5836 119.618 63.628 119.511C63.6723 119.404 63.7374 119.307 63.8193 119.225C63.9013 119.143 63.9986 119.078 64.1057 119.034C64.2128 118.989 64.3276 118.966 64.4435 118.966H112.403C112.519 118.966 112.634 118.989 112.741 119.034C112.848 119.078 112.945 119.143 113.027 119.225C113.109 119.307 113.174 119.404 113.219 119.511C113.263 119.618 113.286 119.733 113.286 119.849C113.286 119.965 113.263 120.08 113.219 120.187C113.174 120.294 113.109 120.391 113.027 120.473C112.945 120.555 112.848 120.62 112.741 120.665C112.634 120.709 112.519 120.732 112.403 120.732Z" fill="#CCCCCC"/>
<path d="M112.403 124.555H64.4435C64.2096 124.554 63.9855 124.461 63.8203 124.296C63.6551 124.13 63.5623 123.906 63.5623 123.672C63.5623 123.438 63.6551 123.214 63.8203 123.048C63.9855 122.883 64.2096 122.79 64.4435 122.789H112.403C112.637 122.789 112.862 122.882 113.027 123.048C113.193 123.213 113.286 123.438 113.286 123.672C113.286 123.906 113.193 124.131 113.027 124.296C112.862 124.462 112.637 124.555 112.403 124.555Z" fill="#CCCCCC"/>
<path d="M112.403 128.378H64.4435C64.3276 128.378 64.2128 128.355 64.1057 128.31C63.9986 128.266 63.9013 128.201 63.8193 128.119C63.7374 128.037 63.6723 127.94 63.628 127.833C63.5836 127.726 63.5608 127.611 63.5608 127.495C63.5608 127.379 63.5836 127.264 63.628 127.157C63.6723 127.05 63.7374 126.953 63.8193 126.871C63.9013 126.789 63.9986 126.724 64.1057 126.679C64.2128 126.635 64.3276 126.612 64.4435 126.612H112.403C112.519 126.612 112.634 126.635 112.741 126.679C112.848 126.724 112.945 126.789 113.027 126.871C113.109 126.953 113.174 127.05 113.219 127.157C113.263 127.264 113.286 127.379 113.286 127.495C113.286 127.611 113.263 127.726 113.219 127.833C113.174 127.94 113.109 128.037 113.027 128.119C112.945 128.201 112.848 128.266 112.741 128.31C112.634 128.355 112.519 128.378 112.403 128.378Z" fill="#CCCCCC"/>
<path d="M54.3121 128.378H47.1197C46.8102 128.377 46.5135 128.254 46.2947 128.035C46.0759 127.816 45.9528 127.52 45.9524 127.21V120.018C45.9528 119.708 46.0759 119.412 46.2947 119.193C46.5135 118.974 46.8102 118.851 47.1197 118.851H54.3121C54.6216 118.851 54.9183 118.974 55.1371 119.193C55.356 119.412 55.4791 119.708 55.4794 120.018V127.21C55.4791 127.52 55.356 127.816 55.1371 128.035C54.9183 128.254 54.6216 128.377 54.3121 128.378Z" fill="#CCCCCC"/>
<path d="M50.6742 125.612C50.6125 125.612 50.5515 125.599 50.4955 125.573C50.4394 125.547 50.3897 125.51 50.3497 125.463L47.907 122.613C47.8333 122.527 47.7967 122.415 47.8054 122.302C47.8141 122.189 47.8672 122.084 47.9533 122.01C48.0395 121.936 48.1516 121.899 48.2648 121.908C48.378 121.916 48.4831 121.97 48.5571 122.056L50.4984 124.32C50.5156 124.339 50.5366 124.355 50.5601 124.365C50.5837 124.375 50.6091 124.38 50.6347 124.379C50.6605 124.378 50.6856 124.371 50.7082 124.358C50.7307 124.346 50.7502 124.328 50.7649 124.307L56.7197 115.781C56.7518 115.735 56.7927 115.695 56.8402 115.665C56.8876 115.634 56.9405 115.614 56.996 115.604C57.0514 115.594 57.1082 115.595 57.1632 115.607C57.2183 115.619 57.2703 115.642 57.3165 115.674C57.3627 115.706 57.402 115.747 57.4323 115.795C57.4626 115.842 57.4832 115.895 57.493 115.951C57.5028 116.006 57.5015 116.063 57.4893 116.118C57.4771 116.173 57.4541 116.225 57.4217 116.271L51.0258 125.429C50.9886 125.483 50.9394 125.527 50.8822 125.559C50.8249 125.591 50.7612 125.609 50.6959 125.612C50.6887 125.612 50.6814 125.612 50.6742 125.612Z" fill="white"/>
<path d="M114.378 163.654C117.673 163.654 120.344 160.983 120.344 157.688C120.344 154.393 117.673 151.722 114.378 151.722C111.083 151.722 108.412 154.393 108.412 157.688C108.412 160.983 111.083 163.654 114.378 163.654Z" fill="#3F3D56"/>
<path d="M147.905 156.558C155.572 156.558 161.788 150.343 161.788 142.675C161.788 135.008 155.572 128.792 147.905 128.792C140.237 128.792 134.022 135.008 134.022 142.675C134.022 150.343 140.237 156.558 147.905 156.558Z" fill="#061178"/>
<path d="M147.274 230.703H143.445C142.998 230.702 142.569 230.524 142.253 230.208C141.937 229.892 141.759 229.464 141.759 229.017V197.106C141.759 196.659 141.937 196.231 142.253 195.915C142.569 195.599 142.998 195.421 143.445 195.42H147.274C147.721 195.421 148.149 195.599 148.465 195.915C148.781 196.231 148.959 196.659 148.96 197.106V229.017C148.959 229.464 148.781 229.892 148.465 230.208C148.149 230.524 147.721 230.702 147.274 230.703Z" fill="#061178"/>
<path d="M167.862 213.588L164.748 215.814C164.384 216.074 163.932 216.179 163.491 216.105C163.05 216.032 162.656 215.787 162.396 215.424L143.836 189.466C143.576 189.102 143.472 188.65 143.545 188.209C143.618 187.768 143.863 187.374 144.227 187.114L147.341 184.887C147.705 184.627 148.157 184.523 148.598 184.596C149.039 184.669 149.433 184.915 149.694 185.278L168.253 211.235C168.513 211.599 168.618 212.051 168.544 212.492C168.471 212.933 168.226 213.327 167.862 213.588Z" fill="#061178"/>
<path d="M157.807 230.479L154.38 228.772C153.547 228.358 153.08 227.6 153.337 227.083L162.17 209.34C162.428 208.823 163.314 208.74 164.147 209.154L167.574 210.861C168.406 211.275 168.874 212.033 168.617 212.55L159.783 230.293C159.526 230.81 158.639 230.893 157.807 230.479Z" fill="#061178"/>
<path d="M169.996 190.041C169.996 201.359 159.35 205.01 148.032 205.01C136.714 205.01 129.011 201.359 129.011 190.041C129.011 178.724 136.629 159.432 147.947 159.432C159.265 159.432 169.996 178.724 169.996 190.041Z" fill="#3F3D56"/>
<path d="M139.642 165.733C140.034 165.817 140.383 166.04 140.625 166.359L142.945 169.405C143.215 169.761 143.334 170.21 143.274 170.653C143.214 171.096 142.981 171.497 142.625 171.768L131.695 181.751C131.339 182.022 130.89 182.14 130.447 182.08C130.004 182.02 129.603 181.787 129.332 181.432L124.892 175.763C124.758 175.587 124.66 175.386 124.603 175.172C124.547 174.958 124.533 174.735 124.563 174.515C124.592 174.296 124.665 174.085 124.776 173.893C124.888 173.702 125.036 173.534 125.212 173.4L137.48 165.515C137.838 165.242 139.064 165.65 139.51 165.71C139.555 165.716 139.599 165.724 139.642 165.733Z" fill="#3F3D56"/>
<path d="M147.68 128.894C146.044 125.535 147.494 121.431 150.162 119.057C153.384 116.189 158.191 116.206 162.016 117.728C166.169 119.382 169.258 122.892 171.479 126.665C172.599 128.567 173.473 130.581 174.401 132.579C175.31 134.536 176.335 136.491 177.868 138.04C179.15 139.355 180.838 140.199 182.66 140.435C184.332 140.649 186.133 140.31 187.411 139.152C187.717 138.87 187.984 138.549 188.206 138.198C188.477 137.775 187.804 137.385 187.534 137.805C186.602 139.255 184.889 139.797 183.234 139.71C181.408 139.597 179.689 138.805 178.418 137.489C176.872 135.927 175.873 133.926 174.964 131.95C174.028 129.915 173.122 127.876 171.962 125.954C169.663 122.148 166.509 118.716 162.319 117.017C158.412 115.432 153.563 115.406 150.117 118.087C147.223 120.338 145.48 124.367 146.505 127.989C146.634 128.436 146.802 128.87 147.008 129.287C147.227 129.737 147.899 129.343 147.68 128.894Z" fill="#2F2E41"/>
<path d="M148.156 127.621L144.461 126.401C144.283 126.342 144.118 126.249 143.976 126.127C143.835 126.004 143.718 125.855 143.634 125.688C143.55 125.521 143.499 125.338 143.485 125.151C143.472 124.965 143.495 124.777 143.554 124.599C143.612 124.421 143.705 124.256 143.828 124.115C143.95 123.973 144.099 123.856 144.267 123.772C144.434 123.688 144.616 123.637 144.803 123.624C144.99 123.61 145.178 123.633 145.355 123.692L149.05 124.912C149.229 124.97 149.393 125.063 149.536 125.185C149.678 125.308 149.795 125.457 149.879 125.624C149.964 125.792 150.014 125.974 150.028 126.161C150.042 126.348 150.019 126.536 149.96 126.714C149.901 126.893 149.808 127.057 149.686 127.199C149.563 127.341 149.414 127.458 149.246 127.542C149.078 127.626 148.896 127.676 148.709 127.69C148.522 127.704 148.334 127.68 148.156 127.621Z" fill="#2F2E41"/>
<path d="M146.057 147.821L146.042 147.302C147.007 147.275 147.858 147.215 148.498 146.748C148.679 146.608 148.828 146.43 148.934 146.228C149.041 146.025 149.103 145.802 149.115 145.573C149.127 145.433 149.105 145.293 149.054 145.163C149.002 145.032 148.92 144.916 148.816 144.822C148.392 144.464 147.709 144.58 147.211 144.808L146.782 145.005L147.605 138.989L148.119 139.059L147.419 144.177C148.095 143.978 148.722 144.063 149.151 144.426C149.316 144.57 149.445 144.75 149.529 144.952C149.613 145.154 149.649 145.373 149.634 145.591C149.619 145.898 149.536 146.199 149.393 146.471C149.25 146.743 149.048 146.98 148.804 147.167C147.982 147.767 146.914 147.797 146.057 147.821Z" fill="#2F2E41"/>
<path d="M153.455 139.501H150.661V140.02H153.455V139.501Z" fill="#2F2E41"/>
<path d="M144.635 139.501H141.841V140.02H144.635V139.501Z" fill="#2F2E41"/>
<path d="M196.163 230.419H112.108V231H196.163V230.419Z" fill="#3F3D56"/>
</g>
<rect x="0.5" y="0.5" width="327" height="283" rx="7.5" stroke="#D9D9D9"/>
<defs>
<clipPath id="clip0_382_35210">
<rect width="242.076" height="178" fill="white" transform="translate(42.9619 53)"/>
</clipPath>
</defs>
</svg>
