<svg width="527" height="336" viewBox="0 0 527 336" fill="none" xmlns="http://www.w3.org/2000/svg">
<g clip-path="url(#clip0_62_6545)">
<path d="M93.6526 333.077C98.6739 328.834 101.724 322.131 100.924 315.606C100.124 309.081 95.1701 303.083 88.7439 301.697C82.3177 300.312 74.9924 304.147 73.0405 310.425C71.9663 298.322 70.7285 285.712 64.294 275.406C58.4677 266.074 48.3765 259.396 37.4399 258.201C26.5033 257.007 14.9884 261.519 8.16762 270.151C1.34685 278.783 -0.3232 291.332 4.45389 301.243C7.97301 308.543 14.4565 313.977 21.2495 318.397C43.2003 332.56 69.5273 338.319 95.3867 334.616L93.6526 333.077Z" fill="#F2F2F2"/>
<path d="M18.9828 261.769C28.0068 269.119 36.2855 277.34 43.6989 286.312C51.1135 295.275 57.6413 304.936 63.1906 315.159C66.2923 320.894 69.0787 326.794 71.5373 332.833C72.0386 334.061 70.0439 334.596 69.5482 333.381C65.1935 322.735 59.8058 312.541 53.4625 302.946C47.15 293.386 39.9251 284.46 31.8891 276.295C27.3439 271.679 22.5483 267.317 17.5241 263.227C16.4943 262.389 17.9614 260.937 18.9828 261.769V261.769Z" fill="white"/>
<path d="M393.297 0H121.366C120.33 0.00114984 119.336 0.413319 118.604 1.14608C117.871 1.87885 117.459 2.87237 117.458 3.90865V188.174C117.459 189.21 117.871 190.204 118.604 190.936C119.336 191.669 120.33 192.081 121.366 192.082H393.297C394.333 192.081 395.327 191.669 396.059 190.936C396.792 190.204 397.204 189.21 397.206 188.174V3.90865C397.204 2.87237 396.792 1.87885 396.059 1.14608C395.327 0.413319 394.333 0.00114984 393.297 0V0ZM396.089 188.174C396.088 188.914 395.794 189.624 395.271 190.148C394.747 190.671 394.037 190.965 393.297 190.966H121.366C120.626 190.965 119.916 190.671 119.392 190.148C118.869 189.624 118.575 188.914 118.574 188.174V3.90865C118.575 3.16829 118.869 2.45833 119.392 1.93482C119.916 1.4113 120.626 1.11705 121.366 1.11676H393.297C394.037 1.11705 394.747 1.4113 395.271 1.93482C395.794 2.45833 396.088 3.16829 396.089 3.90865V188.174Z" fill="#3F3D56"/>
<path d="M396.647 15.657H118.016V16.7737H396.647V15.657Z" fill="#3F3D56"/>
<path d="M127.508 11.7259C129.359 11.7259 130.859 10.226 130.859 8.37567C130.859 6.52536 129.359 5.02539 127.508 5.02539C125.658 5.02539 124.158 6.52536 124.158 8.37567C124.158 10.226 125.658 11.7259 127.508 11.7259Z" fill="#3F3D56"/>
<path d="M137.14 11.7259C138.991 11.7259 140.491 10.226 140.491 8.37567C140.491 6.52536 138.991 5.02539 137.14 5.02539C135.29 5.02539 133.79 6.52536 133.79 8.37567C133.79 10.226 135.29 11.7259 137.14 11.7259Z" fill="#3F3D56"/>
<path d="M146.772 11.7259C148.623 11.7259 150.123 10.226 150.123 8.37567C150.123 6.52536 148.623 5.02539 146.772 5.02539C144.922 5.02539 143.422 6.52536 143.422 8.37567C143.422 10.226 144.922 11.7259 146.772 11.7259Z" fill="#3F3D56"/>
<path d="M280.783 41.5992H233.879C232.843 41.5992 231.849 41.1874 231.116 40.4544C230.383 39.7213 229.971 38.7272 229.971 37.6905C229.971 36.6539 230.383 35.6597 231.116 34.9267C231.849 34.1937 232.843 33.7819 233.879 33.7819H280.783C281.82 33.7819 282.814 34.1937 283.547 34.9267C284.28 35.6597 284.692 36.6539 284.692 37.6905C284.692 38.7272 284.28 39.7213 283.547 40.4544C282.814 41.1874 281.82 41.5992 280.783 41.5992V41.5992Z" fill="#CCCCCC"/>
<path d="M312.89 60.5842H201.773C200.736 60.5842 199.742 60.1724 199.009 59.4393C198.276 58.7063 197.864 57.7121 197.864 56.6755C197.864 55.6389 198.276 54.6447 199.009 53.9117C199.742 53.1786 200.736 52.7668 201.773 52.7668H312.89C313.927 52.7668 314.921 53.1786 315.654 53.9117C316.387 54.6447 316.799 55.6389 316.799 56.6755C316.799 57.7121 316.387 58.7063 315.654 59.4393C314.921 60.1724 313.927 60.5842 312.89 60.5842Z" fill="#CCCCCC"/>
<path d="M346.215 177.258C342.003 177.258 337.886 176.009 334.384 173.669C330.882 171.329 328.152 168.003 326.54 164.112C324.929 160.221 324.507 155.939 325.329 151.808C326.15 147.677 328.178 143.883 331.157 140.904C334.135 137.926 337.929 135.898 342.06 135.076C346.191 134.255 350.473 134.676 354.364 136.288C358.255 137.9 361.581 140.629 363.921 144.131C366.261 147.633 367.51 151.751 367.51 155.963C367.504 161.608 365.258 167.021 361.266 171.014C357.274 175.006 351.861 177.252 346.215 177.258V177.258ZM346.215 136.136C342.293 136.136 338.46 137.299 335.2 139.477C331.939 141.656 329.398 144.752 327.897 148.375C326.397 151.998 326.004 155.985 326.769 159.831C327.534 163.677 329.422 167.209 332.195 169.982C334.968 172.755 338.501 174.643 342.347 175.408C346.193 176.173 350.179 175.781 353.802 174.28C357.425 172.779 360.522 170.238 362.7 166.978C364.879 163.717 366.042 159.884 366.042 155.963C366.036 150.706 363.945 145.666 360.228 141.949C356.511 138.233 351.471 136.142 346.215 136.136V136.136Z" fill="#3F3D56"/>
<path d="M167.681 120.224C163.469 120.224 159.352 118.975 155.85 116.635C152.348 114.295 149.618 110.969 148.006 107.078C146.395 103.186 145.973 98.9045 146.795 94.7736C147.616 90.6427 149.644 86.8482 152.623 83.87C155.601 80.8918 159.395 78.8636 163.526 78.0419C167.657 77.2202 171.939 77.6419 175.83 79.2537C179.721 80.8655 183.047 83.595 185.387 87.097C187.727 90.599 188.976 94.7163 188.976 98.9281C188.97 104.574 186.724 109.987 182.732 113.979C178.74 117.972 173.327 120.217 167.681 120.224V120.224ZM167.681 79.1014C163.759 79.1014 159.926 80.2642 156.666 82.4428C153.405 84.6214 150.864 87.7179 149.363 91.3407C147.863 94.9636 147.47 98.9501 148.235 102.796C149 106.642 150.888 110.175 153.661 112.948C156.434 115.721 159.967 117.609 163.813 118.374C167.659 119.139 171.645 118.746 175.268 117.246C178.891 115.745 181.988 113.204 184.166 109.943C186.345 106.683 187.508 102.849 187.508 98.9281C187.502 93.6716 185.411 88.632 181.694 84.9151C177.977 81.1981 172.937 79.1073 167.681 79.1014V79.1014Z" fill="#3F3D56"/>
<path d="M175.953 110.217C175.395 110.217 174.86 109.996 174.466 109.602C174.071 109.208 173.849 108.674 173.848 108.116V96.1676C173.849 95.6106 174.07 95.0765 174.464 94.6826C174.858 94.2888 175.392 94.0672 175.949 94.0666H175.953C176.51 94.0672 177.044 94.2888 177.438 94.6826C177.832 95.0765 178.053 95.6106 178.054 96.1676V108.116C178.053 108.673 177.832 109.207 177.438 109.601C177.044 109.995 176.51 110.216 175.953 110.217ZM170.467 110.217C170.189 110.22 169.913 110.168 169.655 110.063C169.397 109.959 169.163 109.805 168.965 109.61C168.767 109.414 168.609 109.182 168.501 108.926C168.393 108.669 168.337 108.394 168.336 108.116V101.68C168.337 101.123 168.558 100.589 168.952 100.195C169.346 99.801 169.88 99.5795 170.437 99.5789H170.467C171.024 99.5795 171.558 99.801 171.952 100.195C172.346 100.589 172.567 101.123 172.568 101.68V108.116C172.567 108.673 172.346 109.207 171.952 109.601C171.558 109.995 171.024 110.216 170.467 110.217V110.217ZM164.929 110.217C164.371 110.217 163.836 109.996 163.442 109.602C163.047 109.208 162.825 108.674 162.824 108.116V89.7403C162.825 89.1833 163.046 88.6493 163.44 88.2554C163.834 87.8615 164.368 87.6399 164.925 87.6393H164.929C165.486 87.6399 166.02 87.8615 166.413 88.2554C166.807 88.6493 167.029 89.1833 167.029 89.7403V108.116C167.029 108.673 166.807 109.207 166.413 109.601C166.02 109.995 165.486 110.216 164.929 110.217V110.217ZM159.411 110.217C159.135 110.217 158.861 110.163 158.606 110.058C158.351 109.952 158.119 109.797 157.923 109.602C157.728 109.407 157.573 109.175 157.468 108.919C157.362 108.664 157.308 108.391 157.308 108.114L157.31 105.355C157.311 104.797 157.532 104.263 157.926 103.869C158.32 103.475 158.855 103.254 159.412 103.255C159.969 103.255 160.503 103.476 160.897 103.871C161.291 104.265 161.512 104.799 161.512 105.356V108.116C161.511 108.673 161.29 109.207 160.896 109.601C160.502 109.995 159.968 110.216 159.411 110.217V110.217Z" fill="#061178"/>
<path d="M490.727 334.641C486.516 334.641 482.398 333.392 478.896 331.052C475.394 328.712 472.665 325.386 471.053 321.495C469.441 317.604 469.019 313.322 469.841 309.191C470.663 305.06 472.691 301.266 475.669 298.288C478.647 295.309 482.442 293.281 486.573 292.459C490.704 291.638 494.985 292.06 498.877 293.671C502.768 295.283 506.094 298.013 508.434 301.515C510.774 305.017 512.023 309.134 512.023 313.346C512.016 318.992 509.771 324.405 505.778 328.397C501.786 332.389 496.373 334.635 490.727 334.641ZM490.727 293.519C486.806 293.519 482.973 294.682 479.712 296.86C476.452 299.039 473.91 302.135 472.41 305.758C470.909 309.381 470.517 313.368 471.282 317.214C472.047 321.06 473.935 324.593 476.708 327.365C479.48 330.138 483.013 332.026 486.859 332.792C490.705 333.557 494.692 333.164 498.315 331.663C501.938 330.163 505.034 327.621 507.213 324.361C509.391 321.1 510.554 317.267 510.554 313.346C510.548 308.089 508.457 303.05 504.74 299.333C501.023 295.616 495.984 293.525 490.727 293.519V293.519Z" fill="#3F3D56"/>
<path d="M496.598 309.65L492.446 315.998C492.779 316.403 492.961 316.912 492.959 317.436C492.958 318.041 492.717 318.621 492.289 319.049C491.86 319.477 491.28 319.717 490.675 319.717C490.07 319.717 489.489 319.477 489.061 319.049C488.633 318.621 488.392 318.041 488.391 317.436C488.392 317.289 488.405 317.143 488.43 316.998L485.69 315.402C485.336 315.744 484.881 315.963 484.392 316.025C483.904 316.086 483.408 315.988 482.981 315.744L480.065 318.475V321.198C480.066 321.736 480.28 322.252 480.661 322.633C481.041 323.015 481.557 323.23 482.095 323.232H499.355C499.894 323.23 500.41 323.015 500.791 322.634C501.172 322.253 501.387 321.737 501.39 321.198V311.101L498.601 309.247C498.321 309.464 497.995 309.614 497.647 309.684C497.299 309.754 496.94 309.742 496.598 309.65H496.598Z" fill="#061178"/>
<path d="M484.107 311.491C484.713 311.491 485.294 311.732 485.722 312.16C486.151 312.589 486.391 313.17 486.391 313.775V313.775V314.069L489.25 315.669C489.658 315.335 490.169 315.152 490.697 315.152C490.863 315.153 491.029 315.171 491.192 315.205L495.353 308.764C495.145 308.472 495.009 308.135 494.956 307.781C494.903 307.427 494.935 307.065 495.048 306.725C495.161 306.385 495.353 306.076 495.609 305.825C495.864 305.573 496.175 305.385 496.516 305.276C496.858 305.168 497.22 305.141 497.574 305.199C497.927 305.257 498.262 305.397 498.551 305.609C498.841 305.821 499.076 306.098 499.237 306.417C499.399 306.737 499.483 307.091 499.482 307.449C499.482 307.631 499.462 307.811 499.421 307.988L501.39 309.304V305.494C501.387 304.955 501.172 304.439 500.791 304.058C500.41 303.677 499.894 303.462 499.355 303.459H482.095C481.557 303.462 481.041 303.677 480.661 304.058C480.28 304.439 480.066 304.955 480.065 305.494V316.406L481.968 314.582C481.841 314.237 481.799 313.867 481.845 313.503C481.892 313.138 482.026 312.791 482.236 312.489C482.447 312.188 482.726 311.942 483.052 311.772C483.378 311.602 483.74 311.513 484.107 311.513V311.491Z" fill="#061178"/>
<path d="M258.176 120.224C253.964 120.224 249.847 118.975 246.345 116.635C242.843 114.295 240.113 110.969 238.502 107.078C236.89 103.186 236.468 98.9045 237.29 94.7736C238.111 90.6427 240.14 86.8482 243.118 83.87C246.096 80.8918 249.89 78.8636 254.021 78.0419C258.152 77.2202 262.434 77.6419 266.325 79.2537C270.217 80.8655 273.542 83.595 275.882 87.097C278.222 90.599 279.471 94.7163 279.471 98.9281C279.465 104.574 277.219 109.987 273.227 113.979C269.235 117.972 263.822 120.217 258.176 120.224V120.224ZM258.176 79.1014C254.255 79.1014 250.421 80.2642 247.161 82.4428C243.9 84.6214 241.359 87.7179 239.858 91.3407C238.358 94.9636 237.965 98.9501 238.73 102.796C239.495 106.642 241.383 110.175 244.156 112.948C246.929 115.721 250.462 117.609 254.308 118.374C258.154 119.139 262.14 118.746 265.763 117.246C269.386 115.745 272.483 113.204 274.661 109.943C276.84 106.683 278.003 102.849 278.003 98.9281C277.997 93.6716 275.906 88.632 272.189 84.9151C268.472 81.1981 263.432 79.1073 258.176 79.1014V79.1014Z" fill="#3F3D56"/>
<path d="M246.862 106.647C246.556 106.647 246.257 106.557 246.002 106.387C245.748 106.217 245.55 105.975 245.432 105.692C245.315 105.41 245.284 105.099 245.343 104.798C245.403 104.498 245.55 104.222 245.766 104.006L253.634 96.115C253.757 95.9915 253.903 95.8936 254.063 95.8269C254.224 95.7602 254.396 95.7261 254.57 95.7266H254.571C254.744 95.7261 254.917 95.76 255.077 95.8265C255.238 95.8929 255.383 95.9906 255.506 96.1137L259.155 99.763C259.229 99.8369 259.316 99.8956 259.412 99.9355C259.509 99.9754 259.612 99.9958 259.716 99.9955H259.717C259.821 99.9958 259.924 99.9754 260.02 99.9354C260.117 99.8955 260.204 99.8368 260.278 99.7627L265.43 94.6019C265.454 94.5773 265.474 94.5482 265.487 94.5161C265.5 94.484 265.507 94.4496 265.507 94.4148C265.507 94.3801 265.5 94.3457 265.487 94.3136C265.474 94.2815 265.454 94.2524 265.429 94.2279L263.762 92.5637C263.651 92.4528 263.576 92.3114 263.545 92.1574C263.514 92.0035 263.53 91.8438 263.59 91.6988C263.65 91.5537 263.751 91.4297 263.882 91.3424C264.013 91.2552 264.166 91.2086 264.323 91.2086H270.244C270.454 91.2088 270.656 91.2925 270.805 91.4413C270.953 91.59 271.037 91.7917 271.037 92.0021V97.9193C271.037 98.0762 270.991 98.2297 270.904 98.3602C270.817 98.4907 270.693 98.5924 270.548 98.6525C270.403 98.7126 270.243 98.7283 270.089 98.6977C269.935 98.6671 269.794 98.5915 269.683 98.4806L268.013 96.8109C267.989 96.7863 267.96 96.7668 267.928 96.7535C267.895 96.7402 267.861 96.7334 267.826 96.7334C267.792 96.7334 267.757 96.7402 267.725 96.7535C267.693 96.7668 267.664 96.7863 267.639 96.8109L260.663 103.783C260.54 103.906 260.394 104.004 260.234 104.07C260.073 104.137 259.901 104.171 259.728 104.17H259.727C259.554 104.171 259.382 104.137 259.221 104.07C259.061 104.004 258.915 103.906 258.792 103.783L255.141 100.132C254.99 99.9874 254.789 99.9069 254.58 99.9069C254.371 99.9069 254.17 99.9874 254.019 100.132L247.957 106.194C247.814 106.338 247.643 106.452 247.455 106.53C247.267 106.608 247.066 106.648 246.862 106.647V106.647Z" fill="#061178"/>
<path d="M258.176 176.061C253.964 176.061 249.847 174.812 246.345 172.473C242.843 170.133 240.113 166.807 238.502 162.915C236.89 159.024 236.468 154.742 237.29 150.611C238.111 146.481 240.14 142.686 243.118 139.708C246.096 136.73 249.89 134.701 254.021 133.88C258.152 133.058 262.434 133.48 266.325 135.092C270.217 136.703 273.542 139.433 275.882 142.935C278.222 146.437 279.471 150.554 279.471 154.766C279.465 160.412 277.219 165.825 273.227 169.817C269.235 173.809 263.822 176.055 258.176 176.061V176.061Z" fill="#E6E6E6"/>
<path d="M346.4 118.548C342.188 118.548 338.071 117.299 334.569 114.959C331.067 112.619 328.337 109.294 326.726 105.402C325.114 101.511 324.692 97.2293 325.514 93.0984C326.335 88.9675 328.364 85.173 331.342 82.1948C334.32 79.2166 338.114 77.1884 342.245 76.3667C346.376 75.545 350.658 75.9667 354.549 77.5785C358.441 79.1903 361.766 81.9198 364.106 85.4219C366.446 88.9239 367.695 93.0411 367.695 97.253C367.689 102.899 365.443 108.312 361.451 112.304C357.459 116.296 352.046 118.542 346.4 118.548V118.548Z" fill="#E6E6E6"/>
<path d="M167.681 133.47C164.026 133.475 160.433 134.417 157.245 136.206C161.852 136.613 166.171 138.617 169.457 141.872C172.742 145.127 174.787 149.427 175.237 154.029C175.687 158.632 174.515 163.247 171.923 167.077C169.331 170.906 165.483 173.71 161.043 175.002C161.874 175.278 162.723 175.5 163.583 175.667C164.933 175.933 166.306 176.065 167.681 176.063C173.33 176.063 178.747 173.82 182.74 169.826C186.734 165.832 188.978 160.415 188.978 154.767C188.978 149.119 186.734 143.702 182.74 139.708C178.747 135.714 173.33 133.47 167.681 133.47V133.47Z" fill="#E6E6E6"/>
<path d="M159.602 135.067C158.252 134.797 156.879 134.662 155.503 134.665C150.027 134.659 144.76 136.761 140.791 140.534C136.823 144.307 134.459 149.462 134.188 154.931C133.918 160.4 135.762 165.763 139.339 169.909C142.916 174.055 147.95 176.666 153.4 177.201C158.849 177.735 164.296 176.153 168.61 172.781C172.924 169.409 175.775 164.506 176.573 159.088C177.37 153.671 176.052 148.155 172.893 143.683C169.733 139.21 164.974 136.126 159.602 135.067V135.067ZM161.042 175.002C158.315 175.796 155.449 175.994 152.639 175.583C149.828 175.173 147.139 174.164 144.752 172.624C142.366 171.083 140.338 169.049 138.806 166.657C137.274 164.265 136.274 161.572 135.874 158.76C135.473 155.948 135.681 153.083 136.484 150.359C137.286 147.634 138.665 145.114 140.526 142.969C142.387 140.823 144.688 139.103 147.272 137.923C149.856 136.744 152.663 136.134 155.503 136.134C156.09 136.134 156.67 136.162 157.245 136.206C161.852 136.613 166.171 138.617 169.457 141.872C172.742 145.126 174.787 149.427 175.237 154.029C175.687 158.632 174.515 163.247 171.923 167.077C169.331 170.906 165.483 173.71 161.042 175.002V175.002Z" fill="#3F3D56"/>
<path d="M167.903 152.213C167.199 149.128 165.299 146.448 162.621 144.762C159.944 143.076 156.706 142.521 153.62 143.22C153.318 143.289 153.006 143.374 152.731 143.458L155.577 155.964L168.082 153.123C168.03 152.832 167.971 152.515 167.903 152.213Z" fill="#061178"/>
<path d="M166.691 155.318L154.18 158.159L151.34 145.654C149.158 146.329 147.216 147.615 145.744 149.36C144.271 151.105 143.33 153.236 143.032 155.499C142.733 157.763 143.09 160.065 144.06 162.132C145.03 164.199 146.573 165.945 148.505 167.162C150.437 168.379 152.677 169.016 154.96 168.999C157.243 168.981 159.474 168.31 161.387 167.063C163.3 165.817 164.815 164.048 165.754 161.966C166.692 159.884 167.014 157.577 166.681 155.318H166.691Z" fill="#061178"/>
<path d="M386.53 255.431C382.319 255.431 378.201 254.182 374.699 251.842C371.197 249.502 368.468 246.176 366.856 242.285C365.244 238.394 364.822 234.112 365.644 229.981C366.466 225.85 368.494 222.056 371.472 219.077C374.451 216.099 378.245 214.071 382.376 213.249C386.507 212.428 390.789 212.849 394.68 214.461C398.571 216.073 401.897 218.803 404.237 222.305C406.577 225.807 407.826 229.924 407.826 234.136C407.819 239.782 405.574 245.194 401.582 249.187C397.589 253.179 392.176 255.425 386.53 255.431V255.431ZM386.53 214.309C382.609 214.309 378.776 215.472 375.515 217.65C372.255 219.829 369.714 222.925 368.213 226.548C366.712 230.171 366.32 234.158 367.085 238.004C367.85 241.85 369.738 245.382 372.511 248.155C375.284 250.928 378.816 252.816 382.662 253.581C386.508 254.346 390.495 253.954 394.118 252.453C397.741 250.953 400.837 248.411 403.016 245.151C405.194 241.89 406.357 238.057 406.357 234.136C406.351 228.879 404.26 223.84 400.543 220.123C396.827 216.406 391.787 214.315 386.53 214.309V214.309Z" fill="#3F3D56"/>
<path d="M395.719 242.668C394.94 242.669 394.178 242.438 393.529 242.006C392.881 241.573 392.375 240.958 392.077 240.238C391.778 239.518 391.699 238.726 391.851 237.961C392.002 237.197 392.377 236.494 392.928 235.943C393.479 235.391 394.181 235.015 394.945 234.863C395.709 234.71 396.502 234.788 397.222 235.085C397.943 235.383 398.558 235.888 398.992 236.536C399.425 237.183 399.657 237.945 399.658 238.725C399.658 239.77 399.243 240.772 398.505 241.512C397.766 242.251 396.764 242.667 395.719 242.668ZM386.53 242.668C385.486 242.667 384.485 242.252 383.747 241.514C383.009 240.775 382.593 239.774 382.592 238.73V229.541C382.593 228.498 383.009 227.497 383.747 226.76C384.486 226.022 385.487 225.608 386.53 225.608C387.574 225.608 388.575 226.022 389.314 226.76C390.052 227.497 390.468 228.498 390.469 229.541V238.73C390.468 239.774 390.052 240.775 389.314 241.514C388.576 242.252 387.575 242.667 386.53 242.668V242.668ZM377.344 242.668C376.299 242.667 375.298 242.252 374.559 241.513C373.82 240.774 373.404 239.772 373.403 238.727V235.056C373.403 234.011 373.819 233.008 374.558 232.269C375.297 231.53 376.299 231.115 377.344 231.115C378.39 231.115 379.392 231.53 380.131 232.269C380.87 233.008 381.285 234.011 381.285 235.056V238.727C381.284 239.772 380.869 240.774 380.13 241.513C379.391 242.252 378.389 242.667 377.344 242.668V242.668Z" fill="#061178"/>
<path d="M116.495 329.677L122.986 328.94L123.234 303.553L113.654 304.641L116.495 329.677Z" fill="#A0616A"/>
<path d="M136.188 333.547L115.788 335.862L114.894 327.98L127.412 326.559C129.502 326.322 131.601 326.925 133.247 328.235C134.893 329.546 135.951 331.456 136.188 333.547V333.547L136.188 333.547Z" fill="#2F2E41"/>
<path d="M49.741 329.271L56.2735 329.271L59.3808 304.074L49.7399 304.074L49.741 329.271Z" fill="#A0616A"/>
<path d="M68.8719 335.336L48.3412 335.337L48.3408 327.405L60.9393 327.404C63.043 327.404 65.0607 328.24 66.5484 329.727C68.036 331.215 68.8719 333.232 68.8719 335.336V335.336L68.8719 335.336Z" fill="#2F2E41"/>
<path d="M96.6101 216.592L100.34 228.725L120.588 272.541L125.916 314.102L113.661 314.635L106.201 276.271L80.6248 248.563L58.2456 321.029L48.1216 319.964C48.1216 319.964 56.647 226.184 68.3695 216.592C68.3695 216.592 87.5518 207.534 96.6101 216.592Z" fill="#2F2E41"/>
<path d="M80.0648 164.243C87.2926 164.243 93.1519 158.384 93.1519 151.156C93.1519 143.928 87.2926 138.069 80.0648 138.069C72.837 138.069 66.9777 143.928 66.9777 151.156C66.9777 158.384 72.837 164.243 80.0648 164.243Z" fill="#A0616A"/>
<path d="M97.9421 218.99C97.9421 218.99 99.5407 164.64 77.1614 168.37C54.7821 172.1 64.1068 224.585 64.1068 224.585C64.1068 224.585 68.9023 234.176 80.6248 223.519C92.3473 212.863 97.9421 218.99 97.9421 218.99Z" fill="#061178"/>
<path d="M144.273 173.752C143.853 174.413 143.293 174.974 142.632 175.395C141.972 175.817 141.227 176.088 140.451 176.19C139.674 176.293 138.885 176.224 138.138 175.988C137.391 175.752 136.704 175.355 136.127 174.826L119.364 183.857L120.242 174.001L136.026 166.936C136.98 166.025 138.235 165.497 139.553 165.45C140.871 165.403 142.16 165.841 143.177 166.681C144.193 167.521 144.867 168.705 145.069 170.008C145.271 171.311 144.987 172.644 144.273 173.752L144.273 173.752Z" fill="#A0616A"/>
<path d="M79.9398 175.006L107.15 179.605L131.535 168.094L135.237 176.011L108.543 193.013C108.543 193.013 80.282 194.932 73.7481 187.479C71.2979 184.685 71.0178 182.141 71.6248 180.053C72.1565 178.342 73.2953 176.885 74.8268 175.955C76.3583 175.026 78.1767 174.688 79.9398 175.006V175.006Z" fill="#061178"/>
<path d="M78.5083 164.907C78.5708 164.851 78.6194 164.781 78.6502 164.703C78.681 164.625 78.6932 164.541 78.6858 164.457C78.6784 164.374 78.6516 164.293 78.6075 164.221C78.5635 164.15 78.5034 164.09 78.432 164.046C77.2699 163.326 76.323 162.306 75.6909 161.094C75.0588 159.882 74.7649 158.522 74.8399 157.157C74.9149 155.793 75.3561 154.473 76.1172 153.338C76.8784 152.202 77.9312 151.293 79.1653 150.705C83.0129 148.87 88.2268 150.297 91.0711 146.772C91.6496 146.018 92.0586 145.148 92.2703 144.221C92.4821 143.294 92.4915 142.333 92.2981 141.402C91.6843 138.073 89.1813 135.6 86.3781 133.906C82.9345 131.824 78.9768 130.748 74.9533 130.801C70.9298 130.853 67.0014 132.031 63.6132 134.202C60.225 136.372 57.5124 139.448 55.7829 143.081C54.0533 146.715 53.3758 150.76 53.8273 154.758C54.1891 157.963 55.1779 161.556 53.2725 164.158C51.5954 166.448 48.4299 166.877 45.6493 167.446C39.6851 168.666 33.9312 171.482 29.8838 176.029C25.8364 180.576 23.6773 186.957 24.8976 192.921C26.1179 198.885 31.0135 204.126 37.0307 205.051C41.9284 205.803 46.9856 203.723 50.5822 200.315C54.1787 196.906 56.4521 192.303 57.8861 187.56C59.588 181.931 60.2594 175.864 63.3322 170.849C66.339 165.942 72.8188 162.424 77.8973 164.98C77.9946 165.031 78.1051 165.051 78.2141 165.038C78.3232 165.025 78.4257 164.979 78.5083 164.907V164.907Z" fill="#2F2E41"/>
<path d="M457.764 261.777C458.472 261.425 459.095 260.921 459.587 260.302C460.08 259.683 460.431 258.964 460.615 258.194C460.8 257.425 460.813 256.625 460.655 255.85C460.497 255.075 460.17 254.344 459.699 253.708L472.308 183.925L460.542 183.77L451.785 252.777C450.77 253.639 450.107 254.844 449.921 256.163C449.736 257.482 450.04 258.823 450.777 259.932C451.514 261.042 452.632 261.842 453.92 262.182C455.208 262.522 456.575 262.378 457.764 261.777H457.764Z" fill="#FFB8B8"/>
<path d="M421.245 258.469L416.778 279.687L417.336 327.149H425.712L429.62 280.804L435.762 261.261L421.245 258.469Z" fill="#FFB8B8"/>
<path d="M448.926 260.061L444.459 281.279L445.017 328.741H453.393L457.301 282.396L463.444 262.853L448.926 260.061Z" fill="#FFB8B8"/>
<path d="M414.411 326.61L427.613 326.577L427.634 334.889L406.119 334.943C406.117 333.851 406.329 332.77 406.744 331.76C407.159 330.751 407.769 329.833 408.539 329.059C409.309 328.285 410.224 327.671 411.231 327.25C412.239 326.83 413.319 326.612 414.411 326.61V326.61Z" fill="#2F2E41"/>
<path d="M442.298 327.507L455.5 327.474L455.521 335.787L434.006 335.841C434.003 334.749 434.216 333.668 434.631 332.658C435.046 331.649 435.656 330.731 436.426 329.957C437.196 329.183 438.111 328.568 439.118 328.148C440.126 327.728 441.206 327.51 442.298 327.507V327.507Z" fill="#2F2E41"/>
<path d="M441.626 154.411C449.2 154.411 455.34 148.271 455.34 140.697C455.34 133.122 449.2 126.982 441.626 126.982C434.051 126.982 427.911 133.122 427.911 140.697C427.911 148.271 434.051 154.411 441.626 154.411Z" fill="#FFB8B8"/>
<path d="M471.933 174.618C467.761 168.07 454.66 152.543 435.166 161.456C433.63 162.166 432.348 163.33 431.493 164.79C430.638 166.25 430.25 167.937 430.382 169.624C431.325 182.076 432.515 213.8 422.361 232.783C422.361 232.783 451.955 241.717 468.148 233.341C468.148 233.341 462.565 195.93 468.148 188.671C470.01 186.351 471.518 183.769 472.623 181.007C473.01 179.961 473.15 178.84 473.03 177.731C472.911 176.622 472.535 175.556 471.933 174.618V174.618Z" fill="#3F3D56"/>
<path d="M466.473 174.153L471.953 176.436C472.318 176.588 472.632 176.841 472.858 177.166C473.084 177.49 473.213 177.872 473.229 178.267L473.732 190.346L461.448 189.229L466.473 174.153Z" fill="#3F3D56"/>
<path d="M424.595 231.666C424.595 231.666 412.311 254.56 414.544 275.778L431.854 278.57L444.138 248.976L441.346 279.128L459.214 279.687C459.214 279.687 470.94 236.133 467.032 232.225L424.595 231.666Z" fill="#2F2E41"/>
<path d="M407.148 233.71C407.93 233.59 408.676 233.301 409.334 232.861C409.992 232.422 410.546 231.844 410.956 231.168C411.366 230.491 411.623 229.733 411.709 228.947C411.795 228.16 411.707 227.365 411.452 226.616L436.372 179.639L425.213 175.902L404.2 223.315C402.97 223.826 401.971 224.772 401.392 225.971C400.812 227.17 400.693 228.54 401.057 229.822C401.42 231.103 402.241 232.207 403.363 232.923C404.486 233.64 405.833 233.92 407.148 233.71H407.148Z" fill="#FFB8B8"/>
<path d="M439.774 166.922L435.158 164.858C435.158 164.858 431.245 162.432 427.776 167.77C424.307 173.108 420.56 184.807 420.56 184.807L435.619 189.045L439.774 166.922Z" fill="#3F3D56"/>
<path d="M443.822 147.299C444.315 145.59 444.172 143.276 442.515 142.629C441.651 142.293 440.688 142.558 439.766 142.653C437.961 142.83 436.155 142.333 434.695 141.257C432.981 139.982 431.922 138.034 430.916 136.149L429.395 133.299C429.056 132.704 428.768 132.083 428.532 131.441C427.686 128.924 428.605 126.01 430.486 124.136C432.452 122.307 435.039 121.293 437.724 121.298C440.388 121.318 443.02 121.881 445.458 122.955C449.792 124.722 453.717 127.359 456.99 130.703C459.13 132.892 461.078 135.743 460.631 138.772C460.283 141.129 458.565 143.016 456.926 144.746L450.982 151.02C449.93 152.132 448.805 153.288 447.335 153.715C445.865 154.142 443.972 153.515 443.571 152.038C443.571 152.038 443.33 149.009 443.822 147.299Z" fill="#2F2E41"/>
<path d="M525.993 336H0.558379C0.410288 336 0.268261 335.941 0.163545 335.837C0.0588286 335.732 0 335.59 0 335.442C0 335.294 0.0588286 335.152 0.163545 335.047C0.268261 334.942 0.410288 334.883 0.558379 334.883H525.993C526.141 334.883 526.283 334.942 526.388 335.047C526.493 335.152 526.552 335.294 526.552 335.442C526.552 335.59 526.493 335.732 526.388 335.837C526.283 335.941 526.141 336 525.993 336Z" fill="#3F3D56"/>
<path d="M354.032 164.897H338.398C337.953 164.897 337.527 164.72 337.213 164.406C336.899 164.092 336.722 163.666 336.722 163.222C336.722 162.777 336.899 162.351 337.213 162.037C337.527 161.723 337.953 161.546 338.398 161.546H354.032C354.476 161.546 354.903 161.723 355.217 162.037C355.531 162.351 355.707 162.777 355.707 163.222C355.707 163.666 355.531 164.092 355.217 164.406C354.903 164.72 354.476 164.897 354.032 164.897V164.897Z" fill="#061178"/>
<path d="M354.032 157.638H338.398C337.953 157.638 337.527 157.461 337.213 157.147C336.899 156.833 336.722 156.407 336.722 155.963C336.722 155.518 336.899 155.092 337.213 154.778C337.527 154.464 337.953 154.287 338.398 154.287H354.032C354.476 154.287 354.903 154.464 355.217 154.778C355.531 155.092 355.707 155.518 355.707 155.963C355.707 156.407 355.531 156.833 355.217 157.147C354.903 157.461 354.476 157.638 354.032 157.638V157.638Z" fill="#061178"/>
<path d="M354.032 150.379H338.398C337.953 150.379 337.527 150.202 337.213 149.888C336.899 149.574 336.722 149.148 336.722 148.704C336.722 148.259 336.899 147.833 337.213 147.519C337.527 147.205 337.953 147.029 338.398 147.029H354.032C354.476 147.029 354.903 147.205 355.217 147.519C355.531 147.833 355.707 148.259 355.707 148.704C355.707 149.148 355.531 149.574 355.217 149.888C354.903 150.202 354.476 150.379 354.032 150.379V150.379Z" fill="#061178"/>
</g>
<defs>
<clipPath id="clip0_62_6545">
<rect width="526.552" height="336" fill="white"/>
</clipPath>
</defs>
</svg>
