<svg width="739" height="361" viewBox="0 0 739 361" fill="none" xmlns="http://www.w3.org/2000/svg">
<g clip-path="url(#clip0_520_37826)">
<path d="M225.472 3.35847C236.204 -1.90407 249.656 -1.32539 258.436 7.54836C245.954 10.0888 234.65 17.6597 226.524 28.9215C223.404 33.2778 220.326 38.4993 215.528 39.5798C212.543 40.2521 209.424 39.095 206.875 37.1735C204.327 35.2519 202.252 32.6145 200.208 30.0072L199.496 29.7012C206.358 18.7939 214.741 8.62101 225.472 3.35847Z" fill="#F0F0F0"/>
<path d="M258.302 7.78483C248.856 5.51863 239.033 6.75623 230.23 11.3218C228.319 12.2658 226.55 13.5524 224.985 15.1345C223.505 16.7326 222.42 18.7608 221.845 21.0082C221.273 23.0912 220.896 25.2986 219.896 27.1843C219.372 28.1407 218.679 28.958 217.863 29.5827C217.047 30.2073 216.126 30.6251 215.161 30.8088C212.766 31.3388 210.349 30.8408 208.001 30.2587C205.393 29.6125 202.693 28.8933 200.043 29.6513C199.721 29.7431 199.617 29.1607 199.938 29.069C204.549 27.7503 209.01 30.6872 213.624 30.4222C215.778 30.2985 217.912 29.4227 219.201 27.3234C220.329 25.4875 220.719 23.2116 221.283 21.0967C221.816 18.8948 222.807 16.8775 224.169 15.221C225.658 13.5519 227.382 12.1884 229.267 11.189C233.479 8.86066 237.981 7.31366 242.609 6.60467C247.886 5.7616 253.248 5.97 258.465 7.22084C258.788 7.29841 258.622 7.86188 258.302 7.78482L258.302 7.78483Z" fill="white"/>
<path d="M232.99 9.65854C232.529 7.84426 232.64 5.8993 233.303 4.171C233.966 2.44269 235.138 1.04359 236.61 0.223547C236.908 0.0588043 237.143 0.587786 236.844 0.752744C235.473 1.51344 234.381 2.81682 233.766 4.42768C233.152 6.03854 233.055 7.85074 233.493 9.53722C233.587 9.90384 233.084 10.0231 232.99 9.65854Z" fill="white"/>
<path d="M222.016 19.9077C224.932 21.7889 228.354 22.3279 231.599 21.4174C231.921 21.3269 232.025 21.9092 231.704 21.9996C228.326 22.9398 224.766 22.3705 221.734 20.4052C221.445 20.2177 221.728 19.7212 222.016 19.9077Z" fill="white"/>
<path d="M247.703 6.52136C247.755 7.26638 247.966 7.98478 248.317 8.61202C248.668 9.23926 249.149 9.7557 249.715 10.115C250.005 10.2982 249.722 10.7945 249.433 10.6125C248.809 10.2122 248.28 9.64104 247.89 8.94903C247.501 8.25702 247.264 7.46518 247.2 6.64268C247.189 6.56573 247.203 6.48654 247.24 6.4212C247.277 6.35586 247.334 6.30927 247.399 6.29089C247.466 6.27522 247.535 6.29063 247.592 6.33378C247.649 6.37694 247.689 6.44435 247.703 6.52136Z" fill="white"/>
<path d="M257.386 53.2214C257.201 53.113 257.017 53.0045 256.829 52.8984C254.344 51.4556 251.761 50.2489 249.107 49.2903C248.903 49.2124 248.695 49.137 248.49 49.0661C242.074 46.8355 235.357 46.0033 228.68 46.6119C226.023 46.857 223.386 47.3357 220.792 48.044C217.209 49.0224 213.392 50.4133 209.843 49.9769C209.473 49.9362 209.105 49.869 208.741 49.7756L199.229 30.7304C199.226 30.6746 199.219 30.621 199.216 30.565L198.807 29.8247C198.938 29.7774 199.075 29.7315 199.207 29.6842C199.283 29.6563 199.362 29.6328 199.438 29.6049C199.489 29.5877 199.541 29.5707 199.587 29.5518C199.604 29.546 199.621 29.5403 199.634 29.537C199.68 29.5181 199.724 29.5061 199.766 29.4897C200.533 29.231 201.303 28.9782 202.076 28.7311C202.08 28.7286 202.08 28.7286 202.086 28.7303C207.961 26.7825 214.014 25.6485 220.119 25.352C220.302 25.346 220.488 25.3373 220.674 25.34C223.406 25.2668 226.138 25.4522 228.843 25.8943C230.324 26.1419 231.793 26.4762 233.245 26.8958C236.994 27.9884 240.571 29.757 243.845 32.1366C250.371 36.8816 255.515 43.9907 257.258 52.5648C257.303 52.7842 257.345 52.9995 257.386 53.2214Z" fill="#F0F0F0"/>
<path d="M257.156 53.3184C250.792 44.924 242.306 39.0647 232.903 36.5727C230.887 35.9946 228.805 35.7881 226.733 35.9608C224.72 36.2045 222.799 37.0681 221.172 38.4617C219.632 39.7258 218.183 41.2254 216.404 42.034C215.488 42.4323 214.51 42.6019 213.534 42.5317C212.557 42.4616 211.605 42.1532 210.739 41.6269C208.551 40.3805 206.88 38.2982 205.307 36.1961C203.561 33.8622 201.78 31.4059 199.269 30.1632C198.965 30.0127 199.185 29.475 199.488 29.6253C203.856 31.7873 205.891 37.2418 209.713 40.2471C211.496 41.6494 213.656 42.4379 215.777 41.6606C217.632 40.981 219.127 39.4361 220.677 38.1405C222.247 36.754 224.087 35.8339 226.036 35.4606C228.093 35.1663 230.179 35.2796 232.203 35.7956C236.777 36.873 241.176 38.7763 245.239 41.436C249.891 44.4417 254.065 48.3467 257.579 52.9819C257.797 53.2689 257.372 53.6035 257.156 53.3184H257.156Z" fill="white"/>
<path d="M235.971 37.1687C236.547 35.3987 237.647 33.9232 239.075 33.0055C240.503 32.0878 242.166 31.7878 243.768 32.1591C244.091 32.2354 244.004 32.8217 243.68 32.7453C242.189 32.3964 240.64 32.676 239.311 33.5337C237.983 34.3914 236.963 35.7706 236.436 37.4225C236.321 37.7813 235.857 37.5256 235.971 37.1688V37.1687Z" fill="white"/>
<path d="M221.88 37.7016C223.231 41.2371 225.683 44.0531 228.747 45.5882C229.051 45.74 228.831 46.2777 228.528 46.1261C225.342 44.5218 222.795 41.5853 221.396 37.9027C221.263 37.5515 221.747 37.3525 221.88 37.7017V37.7016Z" fill="white"/>
<path d="M249.35 44.921C249.004 45.5521 248.799 46.2728 248.754 47.0184C248.708 47.764 248.823 48.5111 249.088 49.1925C249.225 49.5415 248.74 49.7402 248.604 49.3935C248.314 48.639 248.189 47.8138 248.238 46.9899C248.287 46.166 248.509 45.3686 248.886 44.6672C248.916 44.5977 248.969 44.5443 249.032 44.5179C249.096 44.4915 249.166 44.4941 249.228 44.5251C249.289 44.5591 249.336 44.6197 249.359 44.6938C249.382 44.7679 249.379 44.8496 249.35 44.9209V44.921Z" fill="white"/>
<path d="M631.115 351.111H622.694L618.688 313.498L631.116 313.499L631.115 351.111Z" fill="#A0616A"/>
<path d="M633.263 360.563L606.108 360.562V360.164C606.109 356.919 607.222 353.806 609.204 351.511C611.186 349.216 613.875 347.927 616.678 347.926H616.678L633.263 347.927L633.263 360.563Z" fill="#2F2E41"/>
<path d="M696.688 346.89L688.361 348.347L679.544 311.851L690.46 309.7L696.688 346.89Z" fill="#A0616A"/>
<path d="M700.032 355.864L673.182 360.563L673.131 360.17C672.712 356.961 673.412 353.69 675.075 351.078C676.739 348.466 679.23 346.725 682.002 346.24L682.002 346.24L698.401 343.37L700.032 355.864Z" fill="#2F2E41"/>
<path d="M456.475 360.563H204.836V69.1917H456.475V360.563Z" fill="white"/>
<path d="M456.475 360.563H204.836V69.1917H456.475V360.563ZM208.554 356.258H452.757V73.4966H208.554V356.258Z" fill="#F0F0F0"/>
<path d="M418.105 194.449H256.721V201.045H418.105V194.449Z" fill="#536DFE"/>
<path d="M418.105 211.599H256.721V218.196H418.105V211.599Z" fill="#536DFE"/>
<path d="M418.105 228.75H256.721V235.347H418.105V228.75Z" fill="#536DFE"/>
<path d="M246.925 203.018C248.978 203.018 250.643 201.091 250.643 198.713C250.643 196.336 248.978 194.408 246.925 194.408C244.871 194.408 243.207 196.336 243.207 198.713C243.207 201.091 244.871 203.018 246.925 203.018Z" fill="#536DFE"/>
<path d="M418.105 120.546H256.721V127.143H418.105V120.546Z" fill="#F0F0F0"/>
<path d="M418.105 137.697H256.721V144.293H418.105V137.697Z" fill="#F0F0F0"/>
<path d="M418.105 154.848H256.721V161.444H418.105V154.848Z" fill="#F0F0F0"/>
<path d="M246.925 128.398C248.978 128.398 250.643 126.471 250.643 124.093C250.643 121.716 248.978 119.788 246.925 119.788C244.871 119.788 243.207 121.716 243.207 124.093C243.207 126.471 244.871 128.398 246.925 128.398Z" fill="#F0F0F0"/>
<path d="M418.105 269.068H256.721V275.665H418.105V269.068Z" fill="#F0F0F0"/>
<path d="M418.105 286.219H256.721V292.816H418.105V286.219Z" fill="#F0F0F0"/>
<path d="M418.105 303.37H256.721V309.966H418.105V303.37Z" fill="#F0F0F0"/>
<path d="M246.925 276.921C248.978 276.921 250.643 274.993 250.643 272.616C250.643 270.238 248.978 268.311 246.925 268.311C244.871 268.311 243.207 270.238 243.207 272.616C243.207 274.993 244.871 276.921 246.925 276.921Z" fill="#E5E5E5"/>
<path d="M591.554 245.463H445.138C442.944 245.456 441.166 241.246 441.163 236.047V109.922C441.163 104.725 442.944 100.515 445.138 100.507H591.554C593.748 100.513 595.525 104.724 595.528 109.922V236.046C595.525 241.244 593.745 245.456 591.554 245.463Z" fill="white"/>
<path d="M591.554 245.463H445.138C442.944 245.456 441.166 241.246 441.163 236.047V109.922C441.163 104.725 442.944 100.515 445.138 100.507H591.554C593.748 100.513 595.525 104.724 595.528 109.922V236.046C595.525 241.244 593.745 245.456 591.554 245.463ZM445.138 104.273C443.821 104.273 442.755 106.804 442.753 109.922V236.046C442.753 239.164 443.821 241.692 445.138 241.695H591.554C592.871 241.695 593.937 239.165 593.939 236.046V109.922C593.939 106.804 592.871 104.276 591.554 104.273L445.138 104.273Z" fill="#E6E6E6"/>
<path d="M538.17 203.346H498.758V206.776H538.17V203.346Z" fill="#536DFE"/>
<path d="M543.084 212.258H493.485V215.688H543.084V212.258Z" fill="#536DFE"/>
<path d="M544.08 160.078C544.078 165.233 542.922 170.3 540.724 174.783C538.526 179.266 535.361 183.012 531.539 185.656C527.717 188.3 523.368 189.751 518.917 189.867C514.466 189.983 510.065 188.761 506.144 186.319L506.139 186.314C502.133 183.815 498.772 180.132 496.396 175.639C494.021 171.146 492.716 166.005 492.615 160.738C492.515 155.472 493.622 150.268 495.824 145.658C498.025 141.049 501.243 137.197 505.149 134.496C509.055 131.795 513.51 130.341 518.059 130.283C522.608 130.224 527.09 131.563 531.047 134.164C535.003 136.764 538.294 140.532 540.583 145.084C542.873 149.636 544.079 154.81 544.08 160.078Z" fill="#CACACA"/>
<path d="M518.477 158.631C522.34 158.631 525.473 155.005 525.473 150.531C525.473 146.058 522.34 142.431 518.477 142.431C514.613 142.431 511.481 146.058 511.481 150.531C511.481 155.005 514.613 158.631 518.477 158.631Z" fill="white"/>
<path d="M530.422 175.368C522.601 178.547 514.074 178.509 506.275 175.26L506.27 175.256L511.481 163.344H525.473L530.422 175.368Z" fill="white"/>
<path d="M415.192 290.561H525.053V234.785H523.362V288.604H415.192V290.561Z" fill="#3F3D56"/>
<path d="M524.208 254.586C529.342 254.586 533.504 249.767 533.504 243.822C533.504 237.878 529.342 233.058 524.208 233.058C519.074 233.058 514.912 237.878 514.912 243.822C514.912 249.767 519.074 254.586 524.208 254.586Z" fill="#3F3D56"/>
<path d="M212.048 168.219H65.6312C63.4377 168.213 61.6598 164.002 61.657 158.804V32.6789C61.657 27.4814 63.4377 23.2721 65.6312 23.2635H212.048C214.241 23.27 216.019 27.4803 216.022 32.6789V158.803C216.019 164 214.238 168.213 212.048 168.219Z" fill="white"/>
<path d="M212.048 168.219H65.6312C63.4377 168.213 61.6598 164.002 61.657 158.804V32.6789C61.657 27.4814 63.4377 23.2721 65.6312 23.2635H212.048C214.241 23.27 216.019 27.4803 216.022 32.6789V158.803C216.019 164 214.238 168.213 212.048 168.219ZM65.6312 27.0294C64.3146 27.0294 63.2482 29.5606 63.2463 32.6788V158.803C63.2463 161.921 64.3145 164.449 65.6312 164.452H212.048C213.364 164.452 214.431 161.922 214.432 158.803V32.6789C214.432 29.5606 213.364 27.0327 212.048 27.0295L65.6312 27.0294Z" fill="#E6E6E6"/>
<path d="M171.344 62.6657C164.829 54.656 155.859 49.9257 146.364 49.4915V91.5896L171.344 62.6657Z" fill="#3F3D56"/>
<path d="M171.344 67.9073L146.364 96.8313H181.274C181.286 86.073 177.732 75.7196 171.344 67.9073Z" fill="#E4E4E4"/>
<path d="M181.311 99.8565C181.313 102.48 181.103 105.099 180.685 107.678C180.653 107.882 180.618 108.084 180.582 108.286C179.794 112.785 178.371 117.102 176.371 121.065C176.265 121.277 176.155 121.49 176.045 121.698V121.7C174.074 125.457 171.608 128.834 168.738 131.71C168.596 131.853 168.454 131.995 168.31 132.135C162.141 138.144 154.418 141.599 146.363 141.954V99.8565H181.311Z" fill="#F0F0F0"/>
<path d="M142.833 141.991C143.316 141.991 143.796 141.977 144.275 141.955V99.8555L117.833 130.472C124.582 137.882 133.532 142.006 142.833 141.991Z" fill="#CACACA"/>
<path d="M142.882 54.6957C138.103 54.6957 133.371 55.7856 128.956 57.9031C124.541 60.0206 120.529 63.1243 117.15 67.0369C113.771 70.9496 111.091 75.5946 109.262 80.7067C107.433 85.8189 106.492 91.298 106.492 96.8314H144.362V54.7332C143.871 54.7105 143.378 54.6957 142.882 54.6957Z" fill="#536DFE"/>
<path d="M134.2 99.8565L126.55 108.715L126.299 109.005L126.294 109.011L119.622 116.734L119.368 117.028L112.16 125.374L111.907 125.668V125.67L107.758 130.472C104.156 126.539 101.287 121.793 99.3281 116.528C97.3692 111.263 96.3615 105.589 96.3673 99.8565H134.2Z" fill="#536DFE"/>
<path d="M257.14 215.034H147.28V159.258H148.97V213.077H257.14V215.034Z" fill="#3F3D56"/>
<path d="M148.124 179.059C153.259 179.059 157.42 174.24 157.42 168.295C157.42 162.351 153.259 157.532 148.124 157.532C142.99 157.532 138.829 162.351 138.829 168.295C138.829 174.24 142.99 179.059 148.124 179.059Z" fill="#3F3D56"/>
<path d="M670.722 164.715L661.372 167.551L661.994 185.105L662.071 217.065C661.149 217.802 660.443 218.847 660.046 220.059C659.648 221.272 659.578 222.595 659.844 223.855C660.111 225.115 660.701 226.252 661.537 227.114C662.373 227.977 663.416 228.526 664.528 228.688C665.639 228.849 666.767 228.616 667.761 228.02C668.756 227.423 669.571 226.491 670.098 225.347C670.625 224.203 670.84 222.9 670.714 221.611C670.587 220.323 670.126 219.109 669.391 218.13L672.265 186.053L670.722 164.715Z" fill="#A0616A"/>
<path d="M673.339 175.27L659.671 169.94L659.639 169.702C659.619 169.552 657.614 154.563 657.639 144.28C657.611 143.134 657.8 141.996 658.192 140.944C658.583 139.891 659.169 138.951 659.907 138.187C660.933 137.102 662.211 136.388 663.583 136.133C664.956 135.877 666.363 136.091 667.631 136.749C668.987 137.396 670.152 138.481 670.989 139.875C671.826 141.269 672.298 142.912 672.35 144.608L673.339 175.27Z" fill="#E4E4E4"/>
<path d="M647.912 173.799L627.007 167.533L617.344 205.217L617 345.601L632.986 345.486L639.669 231.862L682.258 336.852L699.431 334.466L661.994 221.92C661.994 221.92 664.054 202.035 657.529 192.093L658.902 181.753L647.912 173.799Z" fill="#2F2E41"/>
<path d="M659.521 184.537L657.939 184.508L625.814 169.64L641.183 130.004L648.48 131.54L647.151 125.387L663.274 120.824L666.08 133.816L670.219 138.173C671.262 139.271 672.006 140.697 672.362 142.276C672.719 143.854 672.671 145.519 672.226 147.068L662.691 180.191C662.769 180.725 662.746 181.272 662.623 181.795C662.5 182.317 662.279 182.802 661.978 183.216C661.676 183.63 661.3 183.962 660.875 184.19C660.451 184.419 659.989 184.537 659.521 184.537L659.521 184.537Z" fill="#E4E4E4"/>
<path d="M635.361 154.858L626.91 149.426L616.883 162.612L597.865 185.774C596.759 185.57 595.625 185.76 594.614 186.318C593.603 186.876 592.762 187.777 592.203 188.901C591.643 190.024 591.392 191.318 591.481 192.611C591.571 193.904 591.997 195.135 592.704 196.141C593.411 197.147 594.365 197.881 595.439 198.246C596.514 198.611 597.66 198.589 598.724 198.184C599.788 197.778 600.72 197.008 601.398 195.976C602.076 194.944 602.468 193.697 602.52 192.402L623.741 171.516L635.361 154.858Z" fill="#A0616A"/>
<path d="M630.953 164.58L624.255 149.792L624.374 149.594C624.449 149.47 631.946 137.031 638.1 129.618C638.764 128.769 639.58 128.097 640.491 127.649C641.402 127.202 642.387 126.991 643.376 127.029C644.765 127.067 646.115 127.574 647.259 128.487C648.404 129.401 649.293 130.681 649.818 132.171C650.411 133.723 650.606 135.44 650.379 137.117C650.152 138.793 649.513 140.359 648.538 141.627L630.953 164.58Z" fill="#E4E4E4"/>
<path d="M651.345 118.406C658.42 118.406 664.156 111.765 664.156 103.573C664.156 95.3813 658.42 88.7403 651.345 88.7403C644.27 88.7403 638.535 95.3813 638.535 103.573C638.535 111.765 644.27 118.406 651.345 118.406Z" fill="#A0616A"/>
<path d="M635.93 94.8758C638.084 90.4103 638.909 88.5449 641.686 85.8295C644.142 83.428 647.164 82.7227 649.6 84.9982C652.483 83.556 655.691 83.229 658.747 84.0657C661.803 84.9025 664.544 86.8584 666.564 89.6428C668.583 92.4273 669.773 95.8918 669.957 99.5218C670.141 103.152 669.308 106.753 667.583 109.792C665.858 112.83 663.333 115.144 660.382 116.388C657.432 117.632 654.213 117.741 651.204 116.698C648.196 115.656 645.558 113.518 643.683 110.601C641.807 107.684 640.795 104.145 640.795 100.509C640.797 99.8703 640.83 99.2324 640.894 98.5982C638.776 98.2537 638.048 95.2203 635.93 94.8758Z" fill="#2F2E41"/>
<path d="M69.3725 224.548C69.9756 224.128 70.4918 223.561 70.8848 222.885C71.2779 222.209 71.5382 221.442 71.6475 220.637C71.7567 219.833 71.7123 219.01 71.5172 218.227C71.3222 217.445 70.9813 216.721 70.5186 216.107L76.7724 143.442L66.3298 144.244L63.4369 215.798C62.5981 216.766 62.0952 218.057 62.0235 219.426C61.9518 220.795 62.3164 222.147 63.048 223.225C63.7797 224.304 64.8276 225.034 65.9932 225.278C67.1589 225.522 68.3613 225.262 69.3725 224.548V224.548Z" fill="#FFB8B8"/>
<path d="M62.0993 140.751L64.8371 164.844L64.457 179.61L75.9422 180.828L78.2441 168.547L79.5122 136.033C79.6079 133.58 78.8972 131.177 77.5234 129.307C76.1495 127.438 74.2147 126.24 72.1088 125.957C69.9239 125.663 67.7268 126.375 65.9916 127.94C64.2563 129.505 63.1221 131.798 62.8337 134.322L62.0993 140.751Z" fill="#2F2E41"/>
<path d="M106.083 352.743H113.05L116.364 321.628H106.082L106.083 352.743Z" fill="#FFB7B7"/>
<path d="M104.306 350.11L118.026 350.109H118.027C120.346 350.109 122.57 351.176 124.209 353.075C125.849 354.973 126.77 357.548 126.771 360.233V360.562L104.306 360.563L104.306 350.11Z" fill="#2F2E41"/>
<path d="M48.5561 352.743H55.5228L58.8368 321.628H48.5546L48.5561 352.743Z" fill="#FFB7B7"/>
<path d="M46.7786 350.11L60.499 350.109H60.4995C62.8185 350.109 65.0424 351.176 66.6821 353.075C68.3218 354.973 69.2431 357.548 69.2433 360.233V360.562L46.779 360.563L46.7786 350.11Z" fill="#2F2E41"/>
<path d="M75.6474 114.504C83.9897 114.504 90.7524 106.673 90.7524 97.014C90.7524 87.3546 83.9897 79.524 75.6474 79.524C67.3052 79.524 60.5425 87.3546 60.5425 97.014C60.5425 106.673 67.3052 114.504 75.6474 114.504Z" fill="#FFB8B8"/>
<path d="M77.5992 121.605L67.1167 122.992C64.5677 127.178 62.9149 132.005 62.2947 137.076C61.6745 142.148 62.1048 147.317 63.5499 152.157L71.4595 178.652C71.4595 178.652 60.4797 204.139 60.4797 227.802C60.4797 251.466 39.5692 335.933 39.5692 335.933L69.0027 339.488L81.8455 249.506L99.5436 339.125L119.748 335.317L108.62 217.817L101.266 179.143L100.953 160.282C100.953 160.282 104.08 146.131 96.2546 137.07L86.7008 121.655L77.5992 121.605Z" fill="#2F2E41"/>
<path d="M151.497 183.908C151.467 183.017 151.268 182.143 150.914 181.35C150.56 180.557 150.061 179.863 149.451 179.318C148.84 178.773 148.134 178.389 147.382 178.194C146.63 177.998 145.85 177.996 145.097 178.188L88.0953 132.96L83.2613 145L141.11 185.903C141.472 187.346 142.279 188.586 143.377 189.387C144.475 190.187 145.789 190.494 147.069 190.248C148.349 190.002 149.507 189.221 150.324 188.052C151.14 186.884 151.557 185.41 151.497 183.908H151.497Z" fill="#FFB8B8"/>
<path d="M78.1341 147.866L99.5681 157.51L111.621 165.71L118.68 153.574L109.702 144.545L83.3901 126.01C81.4056 124.612 79.0372 124.137 76.7623 124.68C74.4873 125.224 72.4748 126.746 71.1305 128.939C69.7357 131.215 69.1696 134.035 69.5544 136.789C69.9392 139.544 71.2439 142.013 73.1871 143.664L78.1341 147.866Z" fill="#2F2E41"/>
<path d="M93.2554 90.7678H71.0591V79.5649C75.931 77.3238 80.6983 75.4178 83.5801 79.5649C86.1461 79.5649 88.6071 80.7452 90.4215 82.8461C92.236 84.9471 93.2554 87.7966 93.2554 90.7678V90.7678Z" fill="#2F2E41"/>
<path d="M75.0189 78.4461C61.7496 78.5141 58.0354 97.7049 58.0354 108.57C58.0354 114.629 60.402 116.796 64.1208 117.529L65.4342 109.419L68.5102 117.878C69.5549 117.884 70.6523 117.861 71.79 117.837L72.8329 115.35L75.1587 117.792C84.4735 117.808 98.0097 116.845 92.0021 108.57C83.954 97.484 86.5847 78.3868 75.0189 78.4461Z" fill="#2F2E41"/>
<path d="M683.243 138.756C682.657 136.185 682.569 133.494 682.987 130.879C683.606 125.828 684.998 120.954 686.272 116.07C687.545 111.186 688.713 106.205 688.86 101.106C689.007 96.0071 688.052 90.7211 685.426 86.6242C682.8 82.5271 678.323 79.8423 673.968 80.6127C669.806 81.3487 666.172 85.6955 666.15 90.5182C665.405 92.079 666.368 94.2105 667.738 95.1363C669.175 96.1074 670.908 96.2363 672.502 96.7885C674.068 97.3746 675.511 98.3288 676.743 99.5911C677.975 100.853 678.968 102.397 679.661 104.124C681.028 107.612 681.392 111.516 680.699 115.262C680.071 118.891 678.626 122.25 677.544 125.732C676.461 129.215 675.737 133.039 676.607 136.601C677.329 139.231 678.848 141.471 680.884 142.907C682.919 144.343 685.335 144.88 687.685 144.417C686.612 143.944 685.651 143.185 684.879 142.202C684.108 141.218 683.547 140.038 683.243 138.756Z" fill="#2F2E41"/>
<path d="M738.259 361H0.741224C0.544639 361 0.356105 360.91 0.217099 360.749C0.0780924 360.588 0 360.369 0 360.142C0 359.914 0.0780924 359.696 0.217099 359.535C0.356105 359.374 0.544639 359.283 0.741224 359.283H738.259C738.455 359.283 738.644 359.374 738.783 359.535C738.922 359.696 739 359.914 739 360.142C739 360.369 738.922 360.588 738.783 360.749C738.644 360.91 738.455 361 738.259 361Z" fill="#CACACA"/>
<path d="M569.974 319.275C568.536 305.884 561.369 292.69 550.339 288.332C554.689 302.115 554.688 317.236 550.336 331.018C548.641 336.327 546.279 342.027 547.873 347.377C548.865 350.705 551.292 353.252 554.004 354.845C556.717 356.437 559.727 357.196 562.7 357.94L563.285 358.5C568.004 346.162 571.412 332.666 569.974 319.275Z" fill="#F0F0F0"/>
<path d="M550.229 288.585C556.653 296.918 560.645 307.383 561.639 318.493C561.89 320.881 561.814 323.299 561.414 325.659C560.961 327.943 559.987 330.045 558.595 331.747C557.324 333.363 555.863 334.846 554.953 336.793C554.501 337.797 554.237 338.9 554.178 340.031C554.12 341.162 554.268 342.294 554.614 343.353C555.417 346.019 556.999 348.192 558.61 350.255C560.399 352.545 562.288 354.891 563.048 357.928C563.141 358.295 563.628 358.108 563.536 357.741C562.213 352.459 557.785 349.458 555.673 344.7C554.687 342.48 554.273 339.902 555.197 337.559C556.005 335.509 557.511 333.978 558.81 332.354C560.189 330.718 561.201 328.715 561.758 326.521C562.26 324.192 562.416 321.781 562.22 319.392C561.852 314.004 560.755 308.717 558.968 303.724C556.956 298.012 554.116 292.741 550.569 288.139C550.35 287.854 550.011 288.302 550.229 288.585H550.229Z" fill="white"/>
<path d="M561.501 314.894C563.088 314.448 564.486 313.363 565.446 311.833C566.407 310.303 566.866 308.428 566.742 306.542C566.716 306.161 566.203 306.19 566.229 306.572C566.347 308.328 565.919 310.074 565.022 311.497C564.126 312.919 562.82 313.924 561.34 314.329C561.018 314.418 561.181 314.982 561.501 314.894V314.894Z" fill="white"/>
<path d="M559.332 331.025C556.466 329.043 554.349 325.883 553.406 322.175C553.312 321.807 552.825 321.994 552.918 322.361C553.906 326.218 556.114 329.502 559.101 331.557C559.386 331.752 559.616 331.22 559.332 331.025L559.332 331.025Z" fill="white"/>
<path d="M556.48 298.576C555.897 298.897 555.254 299.045 554.61 299.007C553.965 298.969 553.338 298.746 552.786 298.359C552.504 298.159 552.275 298.692 552.555 298.89C553.167 299.315 553.859 299.56 554.571 299.603C555.283 299.647 555.994 299.488 556.641 299.141C556.704 299.114 556.757 299.06 556.787 298.99C556.817 298.92 556.824 298.84 556.804 298.765C556.783 298.69 556.737 298.629 556.676 298.593C556.615 298.558 556.545 298.552 556.48 298.576Z" fill="white"/>
<path d="M516.719 312.25C516.892 312.381 517.066 312.511 517.239 312.647C519.562 314.415 521.757 316.4 523.802 318.58C523.963 318.746 524.123 318.916 524.279 319.087C529.159 324.4 533.144 330.717 536.032 337.714C537.179 340.5 538.141 343.383 538.91 346.338C539.972 350.419 540.844 354.942 542.946 358.28C543.162 358.631 543.397 358.966 543.648 359.283H562.649C562.692 359.258 562.736 359.238 562.779 359.213L563.538 359.253C563.507 359.098 563.473 358.937 563.442 358.782C563.425 358.691 563.403 358.601 563.386 358.51C563.373 358.45 563.36 358.39 563.351 358.335C563.347 358.315 563.343 358.295 563.338 358.28C563.33 358.224 563.316 358.174 563.308 358.124C563.117 357.225 562.921 356.327 562.718 355.428C562.718 355.423 562.718 355.423 562.714 355.418C561.229 348.555 559.046 341.919 556.211 335.651C556.125 335.466 556.038 335.275 555.943 335.089C554.63 332.315 553.123 329.669 551.438 327.178C550.512 325.818 549.527 324.513 548.486 323.268C545.793 320.058 542.68 317.357 539.261 315.267C532.446 311.101 524.557 309.505 517.274 312.05C517.088 312.115 516.905 312.18 516.719 312.25Z" fill="#F0F0F0"/>
<path d="M516.762 312.53C526.223 314.705 534.852 320.278 541.423 328.456C542.864 330.187 544.061 332.171 544.969 334.334C545.795 336.474 546.111 338.831 545.884 341.16C545.71 343.337 545.314 345.54 545.6 347.727C545.761 348.845 546.123 349.91 546.665 350.853C547.206 351.797 547.913 352.597 548.741 353.202C550.768 354.771 553.161 355.403 555.52 355.927C558.139 356.509 560.867 357.065 563.053 358.959C563.318 359.189 563.61 358.699 563.345 358.47C559.542 355.175 554.446 355.866 550.286 353.54C548.344 352.454 546.674 350.684 546.193 348.169C545.772 345.969 546.179 343.697 546.371 341.495C546.622 339.227 546.388 336.922 545.692 334.782C544.882 332.572 543.753 330.539 542.354 328.768C539.259 324.723 535.633 321.266 531.611 318.525C527.035 315.367 522.026 313.139 516.801 311.936C516.478 311.862 516.44 312.456 516.762 312.53L516.762 312.53Z" fill="white"/>
<path d="M539.441 325.678C540.476 324.215 541.029 322.374 541 320.483C540.971 318.592 540.363 316.775 539.283 315.356C539.064 315.069 538.669 315.45 538.889 315.737C539.896 317.057 540.463 318.75 540.487 320.511C540.51 322.271 539.99 323.984 539.019 325.34C538.808 325.634 539.232 325.971 539.441 325.678Z" fill="white"/>
<path d="M546.097 340.07C542.778 340.486 539.445 339.438 536.763 337.135C536.498 336.906 536.206 337.395 536.471 337.624C539.266 340.014 542.736 341.097 546.189 340.655C546.518 340.612 546.425 340.028 546.097 340.07Z" fill="white"/>
<path d="M526.947 316.149C526.649 316.812 526.212 317.378 525.678 317.797C525.143 318.216 524.527 318.475 523.885 318.551C523.556 318.588 523.65 319.173 523.977 319.136C524.686 319.049 525.366 318.762 525.958 318.3C526.549 317.839 527.034 317.216 527.37 316.488C527.406 316.422 527.42 316.343 527.408 316.266C527.396 316.189 527.359 316.12 527.305 316.074C527.249 316.029 527.18 316.012 527.113 316.026C527.046 316.04 526.986 316.085 526.947 316.149Z" fill="white"/>
<path d="M142.384 319.275C143.823 305.884 150.99 292.69 162.02 288.332C157.67 302.115 157.671 317.236 162.022 331.018C163.717 336.327 166.08 342.027 164.485 347.377C163.493 350.705 161.067 353.252 158.355 354.845C155.642 356.437 152.632 357.196 149.659 357.94L149.074 358.5C144.355 346.162 140.946 332.666 142.384 319.275Z" fill="#F0F0F0"/>
<path d="M162.129 288.585C155.706 296.918 151.714 307.383 150.72 318.493C150.469 320.881 150.545 323.299 150.944 325.659C151.398 327.943 152.371 330.045 153.764 331.747C155.034 333.363 156.496 334.846 157.405 336.793C157.858 337.797 158.122 338.9 158.18 340.031C158.239 341.162 158.09 342.294 157.744 343.353C156.942 346.019 155.359 348.192 153.748 350.255C151.96 352.545 150.07 354.891 149.31 357.928C149.218 358.295 148.73 358.108 148.822 357.741C150.145 352.459 154.574 349.458 156.686 344.7C157.672 342.48 158.085 339.902 157.161 337.559C156.353 335.509 154.847 333.978 153.549 332.354C152.169 330.718 151.157 328.715 150.6 326.521C150.098 324.192 149.942 321.781 150.138 319.392C150.507 314.004 151.604 308.717 153.39 303.724C155.402 298.012 158.243 292.741 161.789 288.139C162.009 287.854 162.347 288.302 162.129 288.585H162.129Z" fill="white"/>
<path d="M150.858 314.894C149.271 314.448 147.872 313.363 146.912 311.833C145.952 310.303 145.493 308.428 145.617 306.542C145.643 306.161 146.156 306.19 146.13 306.572C146.012 308.328 146.44 310.074 147.336 311.497C148.233 312.919 149.539 313.924 151.019 314.329C151.341 314.418 151.178 314.982 150.858 314.894V314.894Z" fill="white"/>
<path d="M153.026 331.025C155.893 329.043 158.009 325.883 158.953 322.175C159.046 321.807 159.534 321.994 159.441 322.361C158.452 326.218 156.244 329.502 153.257 331.557C152.972 331.752 152.743 331.22 153.026 331.025L153.026 331.025Z" fill="white"/>
<path d="M155.879 298.576C156.462 298.897 157.104 299.045 157.749 299.007C158.394 298.969 159.02 298.746 159.572 298.359C159.855 298.159 160.084 298.692 159.803 298.89C159.192 299.315 158.5 299.56 157.787 299.603C157.075 299.647 156.364 299.488 155.718 299.141C155.654 299.114 155.602 299.06 155.572 298.99C155.541 298.92 155.535 298.84 155.554 298.765C155.576 298.69 155.622 298.629 155.683 298.593C155.744 298.558 155.814 298.552 155.879 298.576Z" fill="white"/>
<path d="M195.64 312.25C195.466 312.381 195.293 312.511 195.119 312.647C192.796 314.415 190.602 316.4 188.556 318.58C188.396 318.746 188.235 318.916 188.079 319.087C183.2 324.4 179.215 330.717 176.327 337.714C175.18 340.5 174.218 343.383 173.448 346.338C172.386 350.419 171.515 354.942 169.412 358.28C169.196 358.631 168.962 358.966 168.71 359.283H149.71C149.666 359.258 149.623 359.238 149.58 359.213L148.821 359.253C148.851 359.098 148.886 358.937 148.916 358.782C148.934 358.691 148.955 358.601 148.973 358.51C148.986 358.45 148.999 358.39 149.007 358.335C149.012 358.315 149.016 358.295 149.02 358.28C149.029 358.224 149.042 358.174 149.051 358.124C149.242 357.225 149.438 356.327 149.64 355.428C149.64 355.423 149.64 355.423 149.645 355.418C151.129 348.555 153.312 341.919 156.147 335.651C156.234 335.466 156.321 335.275 156.416 335.089C157.729 332.315 159.235 329.669 160.92 327.178C161.847 325.818 162.832 324.513 163.872 323.268C166.566 320.058 169.679 317.357 173.097 315.267C179.912 311.101 187.802 309.505 195.085 312.05C195.271 312.115 195.453 312.18 195.64 312.25Z" fill="#F0F0F0"/>
<path d="M195.597 312.53C186.135 314.705 177.506 320.278 170.936 328.456C169.494 330.187 168.297 332.171 167.389 334.334C166.564 336.474 166.248 338.831 166.475 341.16C166.649 343.337 167.045 345.54 166.759 347.727C166.598 348.845 166.235 349.91 165.694 350.853C165.153 351.797 164.445 352.597 163.618 353.202C161.591 354.771 159.198 355.403 156.839 355.927C154.22 356.509 151.492 357.065 149.306 358.959C149.041 359.189 148.749 358.699 149.013 358.47C152.816 355.175 157.913 355.866 162.073 353.54C164.014 352.454 165.685 350.684 166.166 348.169C166.586 345.969 166.18 343.697 165.987 341.495C165.737 339.227 165.97 336.922 166.666 334.782C167.476 332.572 168.605 330.539 170.005 328.768C173.1 324.723 176.725 321.266 180.748 318.525C185.324 315.367 190.333 313.139 195.557 311.936C195.881 311.862 195.918 312.456 195.597 312.53H195.597Z" fill="white"/>
<path d="M172.918 325.678C171.882 324.215 171.33 322.374 171.359 320.483C171.388 318.592 171.996 316.775 173.075 315.356C173.295 315.069 173.689 315.45 173.47 315.737C172.463 317.057 171.896 318.75 171.872 320.511C171.848 322.271 172.369 323.984 173.34 325.34C173.551 325.634 173.127 325.971 172.918 325.678Z" fill="white"/>
<path d="M166.261 340.07C169.581 340.486 172.913 339.438 175.595 337.135C175.861 336.906 176.153 337.395 175.888 337.624C173.093 340.014 169.623 341.097 166.169 340.655C165.84 340.612 165.934 340.028 166.261 340.07Z" fill="white"/>
<path d="M185.411 316.149C185.71 316.812 186.146 317.378 186.681 317.797C187.215 318.216 187.831 318.475 188.473 318.551C188.803 318.588 188.709 319.173 188.382 319.136C187.672 319.049 186.992 318.762 186.401 318.3C185.81 317.839 185.325 317.216 184.989 316.488C184.952 316.422 184.939 316.343 184.951 316.266C184.963 316.189 185 316.12 185.054 316.074C185.11 316.029 185.179 316.012 185.246 316.026C185.313 316.04 185.372 316.085 185.411 316.149H185.411Z" fill="white"/>
</g>
<defs>
<clipPath id="clip0_520_37826">
<rect width="739" height="361" fill="white"/>
</clipPath>
</defs>
</svg>
