<svg width="94" height="12" viewBox="0 0 94 12" fill="none" xmlns="http://www.w3.org/2000/svg">
<g clip-path="url(#clip0_3817_111139)">
<path d="M90.037 9.16161L93.4999 9.16928L88.8962 0.5L87.4951 3.11439C87.7484 3.37507 87.9681 3.67407 88.1452 4.00183L88.8909 2.6103L91.8118 8.11126L90.0352 8.10742V9.16161H90.037Z" fill="white"/>
<path d="M88.7405 9.20953C89.0452 9.21144 89.295 8.94694 89.2967 8.61535C89.2985 8.28567 89.0541 8.01542 88.7476 8.0135C88.4429 8.01158 88.1932 8.27609 88.1914 8.60768C88.1896 8.93735 88.4341 9.20761 88.7405 9.20953Z" fill="#D49E00"/>
<path d="M50.122 9.34369C49.6969 9.34369 49.3178 9.22485 48.9848 8.9891C48.6518 8.75334 48.3914 8.41408 48.2019 7.97516C48.0123 7.53623 47.9185 7.00722 47.9185 6.39196C47.9185 5.77669 48.0141 5.24768 48.2054 4.81067C48.3967 4.37174 48.6589 4.03632 48.9936 3.8044C49.3284 3.57248 49.7057 3.45556 50.1291 3.45556C50.4568 3.45556 50.7207 3.51497 50.9209 3.63189C51.121 3.74881 51.2769 3.88682 51.3867 4.04207C51.4965 4.19732 51.5833 4.33533 51.6453 4.45416H51.7073V1.62701H52.7329V9.23252H51.7304V8.34508H51.6453C51.5833 8.46584 51.4948 8.60576 51.3796 8.76101C51.2645 8.91626 51.1051 9.05235 50.9049 9.16927C50.703 9.28619 50.4426 9.34369 50.122 9.34369ZM50.3487 8.39683C50.6445 8.39683 50.8943 8.3125 51.098 8.14191C51.3035 7.97324 51.4576 7.73749 51.5638 7.43465C51.6701 7.13181 51.7233 6.78105 51.7233 6.38046C51.7233 5.97986 51.6701 5.63869 51.5656 5.3416C51.4611 5.04451 51.3052 4.81259 51.1015 4.64775C50.8978 4.481 50.6463 4.39858 50.3469 4.39858C50.0476 4.39858 49.7801 4.48483 49.5746 4.65925C49.3692 4.83175 49.2133 5.06943 49.1088 5.36843C49.0043 5.66744 48.9529 6.0067 48.9529 6.38237C48.9529 6.75805 49.006 7.10689 49.1106 7.41165C49.2151 7.7164 49.3727 7.95599 49.5782 8.13425C49.7854 8.31058 50.0405 8.40067 50.3452 8.40067L50.3487 8.39683Z" fill="white"/>
<path d="M55.2465 9.35903C54.9117 9.35903 54.6106 9.29195 54.3413 9.15586C54.0721 9.02169 53.8578 8.82427 53.7019 8.56743C53.5443 8.31059 53.4663 7.99434 53.4663 7.62058C53.4663 7.29857 53.523 7.03406 53.6381 6.82514C53.7533 6.61814 53.9074 6.4533 54.1022 6.33063C54.2971 6.20988 54.5132 6.11788 54.7541 6.05654C54.995 5.99521 55.2394 5.94729 55.4892 5.91471C55.8045 5.87445 56.0613 5.84187 56.2579 5.81695C56.4545 5.79012 56.598 5.74795 56.6866 5.68853C56.7752 5.62912 56.8212 5.53328 56.8212 5.39911V5.37228C56.8212 5.04835 56.7362 4.79726 56.5697 4.61901C56.4014 4.44076 56.1516 4.35259 55.8204 4.35259C55.4892 4.35259 55.204 4.43501 55.0056 4.59984C54.8072 4.76468 54.6708 4.94677 54.5946 5.14802L53.631 4.91035C53.7462 4.56343 53.9127 4.28359 54.1341 4.06891C54.3555 3.85424 54.6088 3.69899 54.8975 3.60124C55.1863 3.50348 55.4892 3.45557 55.8062 3.45557C56.017 3.45557 56.2402 3.4824 56.4776 3.53607C56.7149 3.58974 56.9363 3.68557 57.1436 3.82741C57.3508 3.96924 57.5209 4.1705 57.6537 4.43117C57.7866 4.69184 57.8521 5.0311 57.8521 5.44703V9.23445H56.8495V8.45435H56.8088C56.7433 8.5981 56.6423 8.73994 56.5095 8.87794C56.3766 9.01594 56.2066 9.13095 55.9975 9.22295C55.7885 9.31495 55.5405 9.36095 55.25 9.36095L55.2465 9.35903ZM55.4697 8.46776C55.7531 8.46776 55.9958 8.40643 56.1995 8.28568C56.4032 8.16492 56.5573 8.00584 56.6636 7.80842C56.7698 7.61099 56.823 7.40016 56.823 7.1759V6.43988C56.7858 6.48014 56.7167 6.51655 56.6122 6.54914C56.5077 6.58172 56.389 6.61047 56.2579 6.63539C56.1251 6.65839 55.9958 6.67947 55.87 6.69864C55.7442 6.71781 55.6397 6.73314 55.5547 6.74464C55.3563 6.77148 55.1739 6.81748 55.0109 6.88264C54.8479 6.94781 54.7169 7.03982 54.6194 7.15865C54.522 7.2794 54.4742 7.43849 54.4742 7.63591C54.4742 7.91 54.5681 8.11892 54.7558 8.25884C54.9436 8.39876 55.1827 8.46776 55.4732 8.46776H55.4697Z" fill="white"/>
<path d="M61.1909 3.52842V4.41969H58.3125V3.52842H61.1909ZM59.083 2.1618H60.1086V7.55734C60.1086 7.77202 60.1387 7.93494 60.1972 8.04227C60.2574 8.14961 60.3336 8.22244 60.4292 8.26078C60.5249 8.29911 60.6276 8.31828 60.7392 8.31828C60.8207 8.31828 60.8933 8.31253 60.9553 8.29911C61.0173 8.28761 61.0651 8.27611 61.0988 8.26844L61.2848 9.18655C61.2246 9.21146 61.1413 9.23638 61.0315 9.26322C60.9217 9.29005 60.7853 9.30347 60.6205 9.30538C60.3513 9.31113 60.0998 9.25747 59.866 9.15013C59.6321 9.04088 59.4444 8.87221 59.2991 8.64604C59.1539 8.41986 59.083 8.13236 59.083 7.78735V2.1618Z" fill="white"/>
<path d="M63.3749 9.35903C63.0401 9.35903 62.739 9.29195 62.4698 9.15586C62.2005 9.02169 61.9862 8.82427 61.8303 8.56743C61.6727 8.31059 61.5947 7.99434 61.5947 7.62058C61.5947 7.29857 61.6514 7.03406 61.7665 6.82514C61.8817 6.61814 62.0358 6.4533 62.2306 6.33063C62.4255 6.20988 62.6416 6.11788 62.8825 6.05654C63.1234 5.99521 63.3678 5.94729 63.6176 5.91471C63.9329 5.87445 64.1897 5.84187 64.3863 5.81695C64.583 5.79012 64.7264 5.74795 64.815 5.68853C64.9036 5.62912 64.9496 5.53328 64.9496 5.39911V5.37228C64.9496 5.04835 64.8646 4.79726 64.6981 4.61901C64.5298 4.44076 64.2801 4.35259 63.9488 4.35259C63.6176 4.35259 63.3324 4.43501 63.134 4.59984C62.9356 4.76468 62.7992 4.94677 62.7231 5.14802L61.7595 4.91035C61.8746 4.56343 62.0411 4.28359 62.2625 4.06891C62.4839 3.85424 62.7372 3.69899 63.026 3.60124C63.3147 3.50348 63.6176 3.45557 63.9346 3.45557C64.1454 3.45557 64.3686 3.4824 64.606 3.53607C64.8433 3.58974 65.0648 3.68557 65.272 3.82741C65.4792 3.96924 65.6493 4.1705 65.7821 4.43117C65.915 4.69184 65.9805 5.0311 65.9805 5.44703V9.23445H64.978V8.45435H64.9372C64.8717 8.5981 64.7707 8.73994 64.6379 8.87794C64.505 9.01594 64.335 9.13095 64.126 9.22295C63.9169 9.31495 63.669 9.36095 63.3785 9.36095L63.3749 9.35903ZM63.5981 8.46776C63.8815 8.46776 64.1242 8.40643 64.3279 8.28568C64.5316 8.16492 64.6857 8.00584 64.792 7.80842C64.8982 7.61099 64.9514 7.40016 64.9514 7.1759V6.43988C64.9142 6.48014 64.8451 6.51655 64.7406 6.54914C64.6361 6.58172 64.5174 6.61047 64.3863 6.63539C64.2535 6.65839 64.1242 6.67947 63.9984 6.69864C63.8727 6.71781 63.7681 6.73314 63.6831 6.74464C63.4847 6.77148 63.3023 6.81748 63.1393 6.88264C62.9764 6.94781 62.8453 7.03982 62.7479 7.15865C62.6504 7.2794 62.6026 7.43849 62.6026 7.63591C62.6026 7.91 62.6965 8.11892 62.8843 8.25884C63.072 8.39876 63.3111 8.46776 63.6016 8.46776H63.5981Z" fill="white"/>
<path d="M69.3391 9.27662C68.9104 9.27662 68.5278 9.15778 68.1931 8.92011C67.8583 8.68244 67.5943 8.34126 67.4048 7.8985C67.2153 7.45574 67.1196 6.92482 67.1196 6.3038C67.1196 5.68279 67.2153 5.15186 67.4084 4.71101C67.6014 4.27017 67.8654 3.93091 68.2019 3.69707C68.5385 3.46324 68.9193 3.34632 69.3462 3.34632C69.6757 3.34632 69.9414 3.40573 70.1433 3.52457C70.3452 3.64341 70.5011 3.78141 70.6127 3.93858C70.7243 4.09575 70.8111 4.23375 70.8731 4.35451H70.9351V1.50244H71.9695V9.16353H70.9599V8.26843H70.8731C70.8111 8.3911 70.7207 8.53102 70.6056 8.68819C70.4905 8.84536 70.3293 8.98336 70.1273 9.10028C69.9254 9.2172 69.6615 9.27662 69.3391 9.27662ZM69.5676 8.3221C69.8652 8.3221 70.1167 8.23585 70.3222 8.06526C70.5277 7.89467 70.6853 7.657 70.7916 7.35224C70.8996 7.04748 70.9528 6.69289 70.9528 6.29038C70.9528 5.88787 70.8996 5.54287 70.7934 5.24386C70.6871 4.94485 70.5312 4.71101 70.3275 4.54426C70.122 4.37751 69.8687 4.29317 69.5676 4.29317C69.2665 4.29317 68.9972 4.38134 68.79 4.55576C68.5827 4.73018 68.4269 4.96785 68.3224 5.27069C68.2179 5.57162 68.1647 5.91279 68.1647 6.2923C68.1647 6.67181 68.2178 7.02257 68.3241 7.32924C68.4304 7.63591 68.5881 7.87934 68.7953 8.05759C69.0043 8.23584 69.2612 8.32593 69.5676 8.32593V8.3221Z" fill="#D49E00"/>
<path d="M75.2445 9.27852C74.7219 9.27852 74.272 9.15777 73.8947 8.91435C73.5174 8.67092 73.2269 8.32783 73.0232 7.88507C72.8195 7.44231 72.7168 6.92288 72.7168 6.32679C72.7168 5.73069 72.8195 5.21893 73.0232 4.77042C73.2269 4.32191 73.5139 3.97115 73.8806 3.72006C74.249 3.46897 74.6794 3.34247 75.1719 3.34247C75.4712 3.34247 75.7617 3.39614 76.0433 3.50347C76.325 3.61081 76.5765 3.77948 76.7997 4.00757C77.0229 4.23757 77.2 4.53466 77.3293 4.90075C77.4586 5.26685 77.5224 5.70961 77.5224 6.23095V6.62771H73.3013V5.79011H76.5092C76.5092 5.49493 76.4543 5.23426 76.3427 5.00617C76.2329 4.77808 76.077 4.59791 75.8768 4.46566C75.6767 4.33341 75.4446 4.26824 75.1772 4.26824C74.8867 4.26824 74.6334 4.34491 74.419 4.49824C74.2029 4.65158 74.0382 4.85092 73.9213 5.09626C73.8044 5.3416 73.7459 5.60802 73.7459 5.89553V6.55104C73.7459 6.93438 73.8079 7.26214 73.9337 7.53048C74.0595 7.79882 74.2348 8.00582 74.4615 8.14574C74.6865 8.28758 74.9504 8.35658 75.2533 8.35658C75.45 8.35658 75.6271 8.32591 75.79 8.26458C75.9512 8.20325 76.0912 8.11124 76.2081 7.99049C76.325 7.86782 76.4153 7.71832 76.4773 7.53815L77.4551 7.72982C77.3772 8.04224 77.2372 8.31441 77.0353 8.54634C76.8334 8.78018 76.5818 8.96035 76.2789 9.08877C75.976 9.21719 75.6306 9.28235 75.2427 9.28235L75.2445 9.27852Z" fill="#D49E00"/>
<path d="M79.2215 1.50244V9.16353H78.187V1.50244H79.2215Z" fill="#D49E00"/>
<path d="M82.6026 3.41721V4.31423H79.7012V3.41721H82.6026ZM80.4806 2.04102H81.515V7.47681C81.515 7.69339 81.5451 7.85631 81.6053 7.96557C81.6656 8.07482 81.7435 8.14765 81.8392 8.18599C81.9348 8.22432 82.0393 8.24349 82.1527 8.24349C82.2359 8.24349 82.3086 8.23774 82.3706 8.22432C82.4326 8.21282 82.4822 8.20132 82.5158 8.19366L82.7018 9.11751C82.6416 9.14243 82.5566 9.16734 82.4467 9.19418C82.3369 9.22101 82.197 9.23443 82.0322 9.23635C81.7595 9.2421 81.5062 9.18843 81.2723 9.07918C81.0368 8.96992 80.8472 8.79934 80.702 8.57125C80.5567 8.34316 80.4841 8.05374 80.4841 7.70681V2.04102H80.4806Z" fill="#D49E00"/>
<path d="M84.8027 9.29002C84.4661 9.29002 84.1614 9.22293 83.8904 9.08685C83.6176 8.95076 83.4033 8.75334 83.2457 8.49459C83.088 8.23583 83.0083 7.91766 83.0083 7.54006C83.0083 7.21614 83.0668 6.94972 83.1819 6.73888C83.297 6.52996 83.4529 6.3632 83.6478 6.24053C83.8444 6.11786 84.0622 6.02586 84.3049 5.96453C84.5476 5.90128 84.7938 5.85528 85.0453 5.82269C85.3642 5.78244 85.621 5.74986 85.8194 5.72302C86.0178 5.69619 86.1613 5.65402 86.2516 5.5946C86.3419 5.53518 86.3862 5.43743 86.3862 5.30326V5.27643C86.3862 4.95059 86.3012 4.69758 86.1329 4.51741C85.9646 4.33724 85.7113 4.24716 85.3783 4.24716C85.0453 4.24716 84.7566 4.32957 84.5564 4.49633C84.3563 4.66308 84.2199 4.84517 84.1437 5.04834L83.173 4.80875C83.2882 4.45991 83.4564 4.17624 83.6796 3.96157C83.9028 3.74689 84.1579 3.58972 84.4484 3.49006C84.7389 3.3923 85.0436 3.34247 85.3642 3.34247C85.5767 3.34247 85.8017 3.3693 86.0408 3.42297C86.2799 3.47664 86.5031 3.57439 86.7121 3.71623C86.9212 3.85806 87.0912 4.06123 87.2258 4.32382C87.3587 4.58641 87.426 4.92759 87.426 5.34735V9.16352H86.4163V8.37767H86.3756C86.3083 8.52142 86.2091 8.66517 86.0745 8.80509C85.9416 8.94501 85.7698 9.06001 85.559 9.15393C85.35 9.24594 85.0985 9.29194 84.8062 9.29194L84.8027 9.29002ZM85.0276 8.393C85.3128 8.393 85.559 8.33167 85.7627 8.209C85.9664 8.08633 86.1223 7.92724 86.2303 7.7279C86.3384 7.52856 86.3915 7.31773 86.3915 7.08964V6.34979C86.3543 6.39004 86.2835 6.42646 86.179 6.46096C86.0745 6.49546 85.954 6.52421 85.8212 6.54721C85.6883 6.57021 85.5572 6.59129 85.4297 6.61046C85.3022 6.62963 85.1977 6.64496 85.1109 6.65646C84.9107 6.68329 84.7283 6.7293 84.5635 6.79446C84.3988 6.85963 84.2677 6.95163 84.1685 7.07239C84.0711 7.19314 84.0215 7.35414 84.0215 7.55348C84.0215 7.82949 84.1154 8.03841 84.3049 8.18024C84.4944 8.32208 84.7353 8.39108 85.0276 8.39108V8.393Z" fill="#D49E00"/>
<path d="M10.6974 3.51691H9.6665V9.24404H10.6974V3.51691Z" fill="white"/>
<path d="M23.5275 3.51691H22.4966V9.24404H23.5275V3.51691Z" fill="white"/>
<path d="M1.50966 9.19229V1.74396H0.5V9.23254H1.50789V9.19229H1.50966Z" fill="white"/>
<path d="M28.1488 7.358C28.0425 7.63976 27.8849 7.85635 27.6794 8.00777C27.4739 8.15727 27.2224 8.23394 26.9266 8.23394C26.6308 8.23394 26.3651 8.15344 26.1561 7.99435C25.9488 7.83526 25.7912 7.61484 25.6849 7.33117C25.5786 7.04749 25.5273 6.71782 25.5273 6.34215C25.5273 5.96647 25.5786 5.64638 25.6849 5.34929C25.7894 5.05412 25.9453 4.81836 26.1525 4.64586C26.3598 4.47335 26.6184 4.3871 26.9284 4.3871C27.2384 4.3871 27.4828 4.46952 27.6865 4.63436C27.8902 4.79919 28.0461 5.0292 28.1524 5.32246C28.2586 5.61571 28.31 5.95497 28.31 6.34023C28.31 6.72549 28.2569 7.07433 28.1506 7.35609M28.3171 4.44269H28.2409C28.1789 4.32385 28.0904 4.18585 27.977 4.02868C27.8636 3.87151 27.706 3.73542 27.5041 3.61658C27.3021 3.49775 27.0364 3.44025 26.707 3.44025C26.2818 3.44025 25.901 3.55717 25.5662 3.78909C25.2314 4.02101 24.9675 4.35452 24.7762 4.78961C24.5849 5.2247 24.4893 5.74605 24.4893 6.35556C24.4893 6.96508 24.5867 7.47684 24.7798 7.89276C24.9746 8.30869 25.2385 8.62303 25.5715 8.83579C25.9063 9.04854 26.2818 9.15396 26.6999 9.15396C27.024 9.15396 27.2862 9.09837 27.4881 8.98912C27.69 8.87987 27.8495 8.75145 27.9646 8.60195C28.0815 8.45244 28.1701 8.31827 28.2321 8.1956H28.2976V9.32071C28.2976 9.76347 28.1701 10.0874 27.915 10.2906C27.6599 10.4937 27.3376 10.5953 26.9461 10.5953C26.6609 10.5953 26.4289 10.5512 26.2482 10.465C26.0675 10.3787 25.9258 10.2733 25.8213 10.1526C25.7168 10.0299 25.6335 9.91681 25.5715 9.81331L24.6859 10.2082C24.7798 10.4362 24.9232 10.649 25.1128 10.8445C25.3041 11.04 25.5503 11.1972 25.8514 11.316C26.1543 11.4348 26.5157 11.4943 26.9355 11.4943C27.3854 11.4943 27.791 11.4176 28.1506 11.2662C28.5102 11.1148 28.7954 10.8809 29.0061 10.5666C29.2169 10.2522 29.3232 9.85164 29.3232 9.3648V3.51691H28.3136V4.4446L28.3171 4.44269Z" fill="white"/>
<path d="M34.1161 3.68368C33.8433 3.52268 33.5262 3.44218 33.1631 3.44218C32.7521 3.44218 32.4191 3.53226 32.1641 3.71435C31.909 3.89644 31.7195 4.13986 31.5955 4.44845H31.5299V1.70947H30.5132V9.24406H31.5441V5.84382C31.5441 5.54098 31.599 5.28222 31.7071 5.06563C31.8169 4.85096 31.9674 4.68612 32.1587 4.57495C32.35 4.46379 32.5679 4.40628 32.8124 4.40628C33.1684 4.40628 33.4465 4.5232 33.6467 4.75513C33.8468 4.98705 33.946 5.31289 33.946 5.73456V9.24406H34.9769V5.60039C34.9769 5.12313 34.9025 4.72446 34.752 4.40437C34.6014 4.08428 34.3906 3.84469 34.1178 3.68368" fill="white"/>
<path d="M38.5408 8.27803C38.5072 8.2857 38.4576 8.29528 38.3956 8.30678C38.3336 8.3202 38.261 8.32595 38.1777 8.32595C38.0661 8.32595 37.9616 8.30678 37.866 8.26845C37.7703 8.23011 37.6941 8.15728 37.6339 8.04802C37.5737 7.94069 37.5436 7.77777 37.5436 7.56118V4.41011H38.6294V3.515H37.5436V2.14264H36.5127V3.515H35.7368V4.41011H36.5127V7.7931C36.5127 8.13811 36.5835 8.42562 36.7305 8.6537C36.8758 8.88179 37.0635 9.05238 37.2974 9.16163C37.5329 9.27088 37.7862 9.32264 38.0573 9.3188C38.222 9.31689 38.3602 9.30155 38.47 9.27664C38.5816 9.2498 38.6648 9.22488 38.725 9.19997L38.5391 8.27803H38.5408Z" fill="white"/>
<path d="M15.4518 3.68556C15.1808 3.52264 14.8655 3.44214 14.5041 3.44214C14.1073 3.44214 13.7779 3.53414 13.5175 3.71815C13.2571 3.90215 13.0658 4.14557 12.9436 4.44841H12.878V3.51689H11.8896V9.24402H12.9206V5.84378C12.9206 5.54094 12.9737 5.28218 13.08 5.06559C13.1863 4.85092 13.3333 4.68608 13.5175 4.57491C13.7017 4.46375 13.9143 4.40624 14.1534 4.40624C14.5024 4.40624 14.7769 4.52316 14.9771 4.75892C15.1772 4.99467 15.2764 5.3186 15.2764 5.73452V9.24402H16.3073V5.60035C16.3073 5.12884 16.2329 4.73208 16.0842 4.41008C15.9354 4.08999 15.7246 3.84848 15.4536 3.68556" fill="white"/>
<path d="M20.1123 6.0374L19.271 5.82848C18.9787 5.75373 18.7679 5.65789 18.6368 5.54097C18.5057 5.42405 18.4402 5.27072 18.4402 5.07905C18.4402 4.85862 18.5376 4.67654 18.7325 4.53662C18.9273 4.3967 19.1718 4.32578 19.4623 4.32578C19.6766 4.32578 19.8537 4.3622 19.9972 4.43695C20.1389 4.5117 20.2523 4.60754 20.3373 4.72445C20.4206 4.84137 20.4825 4.96404 20.5215 5.09438L21.455 4.91613C21.3487 4.46953 21.1326 4.11111 20.8032 3.84468C20.4755 3.57826 20.0238 3.44409 19.4516 3.44409C19.0549 3.44409 18.7024 3.51501 18.3942 3.65876C18.0859 3.80252 17.845 3.99994 17.6697 4.25294C17.4943 4.50595 17.4075 4.80304 17.4075 5.14038C17.4075 5.54864 17.5244 5.88406 17.76 6.15049C17.9956 6.41691 18.3605 6.6105 18.8547 6.73125L19.751 6.944C20.0043 7.00534 20.192 7.09734 20.3143 7.22001C20.4365 7.34268 20.4985 7.49218 20.4985 7.67044C20.4985 7.89086 20.3975 8.0787 20.1956 8.23203C19.9937 8.38537 19.7226 8.46204 19.3861 8.46204C19.0761 8.46204 18.8246 8.39112 18.6315 8.24737C18.4384 8.10361 18.3109 7.89278 18.2489 7.61102L17.2534 7.77586C17.3384 8.28378 17.5687 8.67479 17.9425 8.94888C18.3162 9.22297 18.7998 9.36098 19.3932 9.36098C19.8201 9.36098 20.1974 9.28431 20.5215 9.13289C20.8474 8.98147 21.1007 8.77255 21.2832 8.50421C21.4656 8.23778 21.5577 7.93111 21.5577 7.58802C21.5577 7.18359 21.4391 6.85392 21.1999 6.599C20.9608 6.34599 20.5977 6.15815 20.1106 6.03548" fill="white"/>
<path d="M10.7967 2.18097C10.7967 1.81296 10.5204 1.51587 10.182 1.51587C9.84371 1.51587 9.56738 1.81296 9.56738 2.18097C9.56738 2.54898 9.84371 2.84607 10.182 2.84607C10.5204 2.84607 10.7967 2.54898 10.7967 2.18097Z" fill="white"/>
<path d="M23.6263 2.18097C23.6263 1.81296 23.3517 1.51587 23.0116 1.51587C22.6715 1.51587 22.397 1.81296 22.397 2.18097C22.397 2.54898 22.6733 2.84607 23.0116 2.84607C23.3499 2.84607 23.6263 2.54898 23.6263 2.18097Z" fill="white"/>
<path d="M6.92819 2.18866C6.44108 1.88965 5.85831 1.74207 5.18166 1.74207H2.66992V2.72917H5.1179C5.62095 2.72917 6.04607 2.83459 6.3844 3.04735C6.72449 3.2601 6.98133 3.57061 7.15315 3.98078C7.32674 4.39096 7.41177 4.88739 7.41177 5.47582C7.41177 6.06425 7.3232 6.56834 7.15138 6.98044C6.97779 7.39061 6.71563 7.70495 6.36668 7.91962C6.01773 8.13429 5.58021 8.24355 5.05413 8.24355H2.69295V9.23065H5.11081C5.81403 9.23065 6.41274 9.07923 6.90871 8.77831C7.40291 8.47739 7.78374 8.04613 8.0459 7.48645C8.30983 6.92485 8.43913 6.25592 8.43913 5.47582C8.43913 4.69572 8.30983 4.03062 8.04944 3.47286C7.78906 2.91701 7.41531 2.48767 6.92996 2.19058" fill="white"/>
<path d="M3.70235 8.24159V3.61273H2.69092V9.22869H3.7236V8.24159H3.70235Z" fill="white"/>
<path d="M43.7662 1.38745H43.5483V9.85356H43.7662V1.38745Z" fill="white"/>
</g>
<defs>
<clipPath id="clip0_3817_111139">
<rect width="93" height="11" fill="white" transform="translate(0.5 0.5)"/>
</clipPath>
</defs>
</svg>
