<svg width="328" height="284" viewBox="0 0 328 284" fill="none" xmlns="http://www.w3.org/2000/svg">
<rect x="0.5" y="0.5" width="327" height="283" rx="7.5" fill="white"/>
<g clip-path="url(#clip0_382_35245)">
<path d="M197.396 236.899C200.064 231.306 202.73 225.629 203.888 219.569C205.046 213.508 204.56 206.931 201.244 201.675C197.928 196.418 191.399 192.854 185.168 194.042C180.051 195.018 175.941 198.93 173.535 203.422C171.129 207.913 170.164 212.979 169.228 217.96C168.926 212.302 168.606 206.553 166.669 201.208C164.733 195.863 160.92 190.882 155.486 188.814C150.053 186.746 142.984 188.372 140.12 193.309C136.085 200.264 141.435 210.02 136.796 216.61C136 209.999 128.878 204.777 122.11 205.84C115.342 206.903 110.281 214.039 111.673 220.555C112.501 224.433 115.227 227.731 118.485 230.114C121.744 232.497 125.534 235.259 129.283 236.82L197.396 236.899Z" fill="#F2F2F2"/>
<path d="M115.227 210.51C120.603 212.334 126.029 214.179 130.937 217.031C135.336 219.587 139.253 223.028 141.727 227.435C143.083 229.799 143.887 232.424 144.085 235.123C144.121 235.687 145.03 235.691 144.994 235.123C144.676 230.096 142.153 225.497 138.659 221.859C134.828 217.871 129.863 215.147 124.738 213.034C121.699 211.781 118.584 210.716 115.468 209.659C114.915 209.471 114.677 210.323 115.227 210.51Z" fill="white"/>
<path d="M146.238 189.69C149.541 195.032 152.186 200.732 154.118 206.673C156.055 212.612 157.275 218.749 157.753 224.96C158.018 228.438 158.047 231.928 157.84 235.409C157.806 235.977 158.716 235.975 158.75 235.409C159.116 229.133 158.725 222.837 157.584 216.649C156.444 210.462 154.571 204.424 152.001 198.654C150.559 195.414 148.896 192.271 147.023 189.245C146.96 189.148 146.861 189.079 146.746 189.052C146.631 189.024 146.51 189.041 146.408 189.099C146.307 189.157 146.232 189.251 146.2 189.361C146.168 189.472 146.182 189.59 146.238 189.69Z" fill="white"/>
<path d="M190.753 194.762C186.081 204.952 182.793 215.688 180.972 226.701C180.461 229.794 180.065 232.902 179.785 236.026C179.734 236.592 180.644 236.589 180.694 236.026C181.685 225.038 184.131 214.22 187.973 203.839C189.053 200.921 190.241 198.044 191.539 195.207C191.774 194.693 190.991 194.243 190.753 194.762Z" fill="white"/>
<path d="M60.6578 236.239C51.3395 233.884 43.1053 228.561 37.2752 221.123C31.4451 213.685 28.3567 204.561 28.505 195.216C28.5419 192.888 28.7941 190.51 29.8025 188.397C30.8109 186.284 32.6839 184.457 35.0268 183.956C37.5838 183.409 40.2819 184.526 42.1875 186.269C44.093 188.012 45.3424 190.312 46.492 192.595C53.4159 206.349 58.6765 221.106 60.6461 236.294L60.6578 236.239Z" fill="#F2F2F2"/>
<path d="M33.8667 184.415L38.7194 195.117L43.572 205.82C45.1089 209.209 46.6428 212.6 48.2313 215.968C49.8059 219.305 51.4344 222.62 53.1717 225.881C54.9065 229.137 56.7503 232.34 58.7516 235.449C59.0009 235.837 59.2526 236.222 59.5067 236.607C59.6826 236.873 60.1222 236.626 59.9451 236.358C57.9053 233.271 56.0258 230.088 54.263 226.845C52.4983 223.599 50.849 220.295 49.2606 216.965C47.6636 213.616 46.1281 210.241 44.5967 206.864C42.9847 203.31 41.373 199.755 39.7616 196.2L34.909 185.498L34.3051 184.166C34.1737 183.876 33.7362 184.127 33.8667 184.415L33.8667 184.415Z" fill="white"/>
<path d="M58.6334 236.313C53.1408 237.533 47.3854 236.927 42.2897 234.593C37.1941 232.259 33.0534 228.331 30.5313 223.44C29.9029 222.222 29.3727 220.921 29.3086 219.56C29.2444 218.199 29.7086 216.759 30.7857 215.885C31.9613 214.932 33.6728 214.804 35.1468 215.21C36.6209 215.615 37.9091 216.482 39.1409 217.366C46.5607 222.692 53.3962 228.976 58.6428 236.345L58.6334 236.313Z" fill="#F2F2F2"/>
<path d="M30.3112 216.428L35.8071 220.712L41.3031 224.997C43.0437 226.354 44.7831 227.713 46.5443 229.045C48.29 230.365 50.0573 231.659 51.8662 232.897C53.6725 234.133 55.5206 235.313 57.4245 236.403C57.6615 236.538 57.8995 236.673 58.1383 236.806C58.3036 236.898 58.4632 236.654 58.2967 236.562C56.3793 235.494 54.5181 234.333 52.7011 233.112C50.8821 231.889 49.1069 230.606 47.356 229.293C45.5957 227.973 43.8597 226.623 42.1255 225.271C40.3001 223.848 38.4747 222.425 36.6495 221.002L31.1536 216.717L30.4696 216.183C30.3209 216.068 30.1634 216.312 30.3112 216.428H30.3112Z" fill="white"/>
<path d="M292.557 237H41.7403C41.6928 237 41.6458 236.991 41.6019 236.974C41.5579 236.956 41.518 236.93 41.4844 236.898C41.4508 236.865 41.4241 236.826 41.4059 236.784C41.3877 236.741 41.3783 236.696 41.3783 236.65C41.3783 236.603 41.3877 236.558 41.4059 236.515C41.4241 236.473 41.4508 236.434 41.4844 236.401C41.518 236.369 41.5579 236.343 41.6019 236.326C41.6458 236.308 41.6928 236.299 41.7403 236.299H292.557C292.653 236.299 292.745 236.336 292.812 236.402C292.88 236.468 292.918 236.557 292.918 236.65C292.918 236.743 292.88 236.832 292.812 236.897C292.745 236.963 292.653 237 292.557 237Z" fill="#3F3D56"/>
<path d="M285.968 201.893H268.987C268.987 202.088 268.907 202.275 268.765 202.413C268.623 202.551 268.43 202.629 268.229 202.629H251.561C251.325 202.801 251.111 202.998 250.921 203.217C250.351 203.877 250.04 204.711 250.042 205.572V206.16C250.042 207.136 250.441 208.071 251.152 208.761C251.863 209.451 252.826 209.839 253.831 209.839H285.968C286.973 209.838 287.936 209.45 288.647 208.761C289.357 208.071 289.757 207.136 289.758 206.16V205.572C289.756 204.597 289.357 203.662 288.646 202.972C287.936 202.282 286.973 201.894 285.968 201.893Z" fill="#3F3D56"/>
<path d="M272.021 209.693H268.079V236.768H272.021V209.693Z" fill="#3F3D56"/>
<path d="M283.238 236.633C283.238 237.047 277.266 236.793 269.898 236.793C262.531 236.793 256.558 237.047 256.558 236.633C256.558 236.22 262.531 232.942 269.898 232.942C277.266 232.942 283.238 236.22 283.238 236.633Z" fill="#3F3D56"/>
<path d="M285.225 202.741L284.564 198.727C284.481 198.221 284.194 197.768 283.766 197.467C283.339 197.166 282.806 197.042 282.285 197.123L275.466 198.179L263.788 199.989L259.989 200.578H268.229C268.43 200.578 268.623 200.655 268.765 200.793C268.907 200.931 268.987 201.118 268.987 201.313V201.893C268.987 202.088 268.907 202.275 268.765 202.413C268.623 202.551 268.43 202.629 268.229 202.629H247.259C246.966 202.762 246.712 202.964 246.522 203.217C246.361 203.423 246.244 203.659 246.179 203.91C246.115 204.161 246.103 204.422 246.146 204.677L246.334 205.819L246.561 207.205L246.807 208.694C246.89 209.199 247.177 209.651 247.603 209.951C248.029 210.251 248.56 210.375 249.081 210.295L254.498 209.456L270.124 207.034L283.573 204.951C284.093 204.869 284.559 204.59 284.868 204.176C285.178 203.762 285.306 203.246 285.225 202.741Z" fill="#061178"/>
<path d="M254.083 203.217C253.884 202.96 253.62 202.758 253.316 202.629H247.519C247.214 202.757 246.949 202.96 246.749 203.217C246.479 203.553 246.333 203.966 246.334 204.392V226.82C246.335 227.331 246.544 227.821 246.916 228.182C247.289 228.543 247.793 228.747 248.32 228.747H252.513C253.039 228.747 253.544 228.543 253.916 228.182C254.288 227.821 254.498 227.331 254.498 226.82V204.392C254.499 203.966 254.352 203.553 254.083 203.217Z" fill="#061178"/>
<path d="M266.701 165.018L266.662 164.968L264.061 161.858C263.922 161.691 263.755 161.548 263.566 161.437C263.466 161.371 263.359 161.318 263.245 161.278C263.079 161.213 262.905 161.172 262.727 161.154C262.608 161.142 262.488 161.14 262.369 161.148C262.366 161.149 262.364 161.15 262.363 161.151C261.961 161.18 261.578 161.328 261.265 161.575L255.926 165.777L249.065 171.181L238.827 179.244L238.081 179.833H251.036L251.785 179.244L254.262 177.293L254.438 177.158L266.401 167.737L266.41 167.732C266.656 167.539 266.851 167.292 266.977 167.011C267.06 166.826 267.113 166.631 267.135 166.431C267.162 166.179 267.138 165.925 267.064 165.682C266.989 165.44 266.866 165.214 266.701 165.018Z" fill="#061178"/>
<path d="M266.662 164.968C266.495 164.175 266.123 163.436 265.583 162.82C265.044 162.199 264.349 161.723 263.566 161.437C263.445 161.393 263.327 161.351 263.206 161.319C262.932 161.24 262.652 161.183 262.369 161.148C262.367 161.149 262.364 161.15 262.363 161.151C261.087 161.008 259.804 161.352 258.785 162.111L249.551 168.962C249.354 169.132 249.196 169.339 249.084 169.57C248.972 169.801 248.909 170.051 248.899 170.307C248.884 170.607 248.941 170.906 249.065 171.181C249.096 171.243 249.129 171.304 249.166 171.363C249.236 171.483 249.322 171.593 249.42 171.693L250.9 173.306L254.341 177.052L254.438 177.158L254.659 177.402C254.835 177.59 255.048 177.741 255.284 177.849C255.521 177.956 255.777 178.018 256.039 178.029C256.3 178.04 256.56 178.001 256.806 177.914C257.052 177.827 257.277 177.694 257.469 177.523L265.434 169.218C265.848 168.787 266.176 168.285 266.401 167.738C266.765 166.859 266.856 165.896 266.662 164.968Z" fill="#2F2E41"/>
<path d="M270.183 154.312C278.575 154.312 285.379 147.708 285.379 139.561C285.379 131.415 278.575 124.811 270.183 124.811C261.79 124.811 254.987 131.415 254.987 139.561C254.987 147.708 261.79 154.312 270.183 154.312Z" fill="#061178"/>
<path d="M275.882 200.71L275.466 198.179L275.221 196.693C275.137 196.188 274.85 195.735 274.423 195.435C273.996 195.135 273.464 195.012 272.944 195.092L261.899 196.802L258.904 197.267L258.297 197.361V200.578H268.229C268.43 200.578 268.623 200.655 268.765 200.793C268.907 200.931 268.987 201.118 268.987 201.313V201.893C268.987 202.088 268.907 202.275 268.765 202.413C268.623 202.551 268.43 202.629 268.229 202.629H236.799C236.799 202.635 236.802 202.641 236.802 202.646L236.99 203.788L237.463 206.661C237.546 207.165 237.833 207.617 238.259 207.917C238.685 208.217 239.217 208.341 239.737 208.262L245.155 207.423L246.334 207.24L246.561 207.205L254.498 205.975L259.898 205.136L268.466 203.809L268.593 203.788L274.229 202.917C274.749 202.836 275.215 202.559 275.525 202.145C275.835 201.731 275.963 201.215 275.882 200.71Z" fill="#061178"/>
<path d="M290.864 189.886C290.864 201.911 289.606 209.103 270.203 207.043C270.176 207.04 270.151 207.037 270.124 207.034C266.663 206.703 263.241 206.067 259.898 205.136C258.161 204.644 256.472 204.002 254.853 203.217C254.471 203.029 254.104 202.832 253.743 202.629H268.229C268.43 202.629 268.623 202.551 268.765 202.413C268.907 202.275 268.987 202.088 268.987 201.893V201.313C268.987 201.118 268.907 200.931 268.765 200.793C268.623 200.655 268.43 200.578 268.229 200.578H258.297V181.99C258.296 181.418 258.062 180.87 257.645 180.466C257.229 180.061 256.664 179.834 256.075 179.833H247.995C248.065 179.639 248.135 179.442 248.21 179.244C248.968 177.208 249.867 175.224 250.9 173.306C252.314 170.641 253.998 168.119 255.926 165.777C257.269 164.146 258.776 162.648 260.425 161.307C263.466 158.87 266.777 157.364 270.136 157.364C282.524 157.364 290.864 177.861 290.864 189.886Z" fill="#2F2E41"/>
<path d="M270.502 145.028L270.518 144.477C269.462 144.448 268.53 144.384 267.83 143.888C267.632 143.739 267.469 143.551 267.352 143.335C267.235 143.12 267.168 142.883 267.154 142.64C267.142 142.491 267.165 142.342 267.222 142.204C267.279 142.065 267.367 141.942 267.481 141.842C267.946 141.461 268.694 141.584 269.238 141.827L269.708 142.036L268.807 135.644L268.245 135.719L269.011 141.156C268.697 141.043 268.36 141.008 268.028 141.054C267.697 141.101 267.383 141.227 267.115 141.421C266.935 141.574 266.793 141.765 266.701 141.98C266.61 142.195 266.57 142.427 266.587 142.659C266.603 142.986 266.693 143.304 266.85 143.594C267.007 143.883 267.227 144.135 267.495 144.333C268.395 144.971 269.563 145.003 270.502 145.028Z" fill="#2F2E41"/>
<path d="M265.462 136.188H262.404V136.739H265.462V136.188Z" fill="#2F2E41"/>
<path d="M275.116 136.188H272.058V136.739H275.116V136.188Z" fill="#2F2E41"/>
<path d="M282.31 135.508C281.129 133.781 279.049 133.049 276.998 132.871C274.69 132.671 272.46 133.103 270.207 133.523C267.726 133.985 265.102 134.417 262.603 133.833C261.497 133.585 260.464 133.096 259.581 132.404C258.699 131.712 257.989 130.834 257.507 129.837C256.592 127.892 256.395 125.7 256.949 123.631C257.534 121.43 258.988 119.493 260.75 118.03C264.347 115.044 269.214 113.702 273.895 113.829C278.558 113.946 283.066 115.484 286.778 118.226C290.497 121.067 293.114 125.048 294.201 129.518C295.339 133.952 294.968 138.624 293.145 142.837C292.121 145.144 290.639 147.223 289.496 149.472C288.432 151.566 287.612 154 288.274 156.335C288.855 158.384 290.562 160.205 292.703 160.761C293.678 161.009 294.709 160.943 295.642 160.574C296.575 160.204 297.359 159.55 297.876 158.711C298.946 157.072 298.972 154.926 297.364 153.602C296.959 153.263 296.487 153.008 295.977 152.851C295.466 152.695 294.929 152.641 294.396 152.692C293.864 152.744 293.347 152.9 292.879 153.151C292.411 153.402 292 153.744 291.672 154.154C291.019 154.976 290.727 156.015 290.859 157.045C290.938 157.565 290.118 157.79 290.038 157.264C289.846 156.175 290.059 155.055 290.638 154.104C291.217 153.153 292.126 152.433 293.202 152.071C294.277 151.709 295.45 151.73 296.511 152.13C297.573 152.529 298.453 153.282 298.997 154.253C299.966 156.022 299.443 158.156 298.212 159.669C297.577 160.475 296.717 161.085 295.733 161.429C294.75 161.772 293.686 161.833 292.668 161.604C290.427 161.102 288.595 159.374 287.733 157.343C286.773 155.082 287.213 152.559 288.148 150.364C289.159 147.993 290.661 145.866 291.848 143.58C292.923 141.515 293.607 139.279 293.868 136.978C294.39 132.359 293.31 127.703 290.799 123.747C288.24 119.852 284.334 116.97 279.783 115.62C275.264 114.211 270.387 114.336 265.952 115.975C261.623 117.63 257.444 121.238 257.494 126.083C257.516 128.153 258.307 130.264 259.94 131.644C261.892 133.294 264.61 133.435 267.063 133.177C269.532 132.918 271.93 132.218 274.41 132.04C276.567 131.884 278.894 132.046 280.82 133.086C281.716 133.572 282.48 134.259 283.046 135.091C283.35 135.535 282.613 135.95 282.31 135.508V135.508Z" fill="#2F2E41"/>
<path d="M279.216 169.235L278.013 168.423L275.772 166.913C275.339 166.623 274.805 166.511 274.286 166.602C273.768 166.693 273.308 166.979 273.007 167.399L265.704 177.602L258.904 187.102L258.297 187.95V200.578H258.352C258.824 200.532 259.264 200.323 259.592 199.989C259.662 199.919 259.726 199.843 259.783 199.762L261.899 196.802L267.129 189.495L272.55 181.925L273.065 181.204L279.711 171.919C279.747 171.87 279.78 171.819 279.811 171.766C279.841 171.716 279.868 171.664 279.892 171.61C280.083 171.2 280.12 170.738 279.996 170.304C279.873 169.871 279.597 169.492 279.216 169.235Z" fill="#061178"/>
<path d="M279.238 165.198C279.023 165.061 278.798 164.941 278.565 164.839C277.529 164.378 276.361 164.277 275.258 164.554C274.155 164.83 273.183 165.467 272.507 166.357L265.607 175.439C265.468 175.655 265.375 175.896 265.333 176.148C265.292 176.399 265.302 176.656 265.363 176.904C265.425 177.151 265.536 177.384 265.692 177.59C265.847 177.795 266.043 177.968 266.268 178.1L272.55 181.925L272.628 181.972L272.944 182.164C273.395 182.428 273.935 182.509 274.447 182.387C274.959 182.266 275.401 181.953 275.675 181.516L280.547 172.128L280.629 171.972L280.632 171.969L280.932 171.384C281.48 170.33 281.609 169.118 281.297 167.978C280.985 166.838 280.252 165.848 279.238 165.198Z" fill="#2F2E41"/>
<path d="M236.99 202.629V224.786C236.991 225.297 237.2 225.787 237.572 226.148C237.945 226.51 238.449 226.713 238.976 226.714H243.169C243.695 226.713 244.2 226.51 244.572 226.148C244.944 225.787 245.154 225.297 245.154 224.786V202.629H236.99Z" fill="#061178"/>
<path d="M268.229 199.989H258.904V181.99C258.903 181.262 258.604 180.564 258.074 180.049C257.544 179.535 256.825 179.245 256.075 179.244H221.491C220.741 179.244 220.021 179.534 219.49 180.049C218.959 180.563 218.661 181.262 218.66 181.99V200.472C218.661 201.2 218.959 201.898 219.49 202.413C220.021 202.928 220.741 203.217 221.491 203.217H268.229C268.278 203.217 268.323 203.214 268.369 203.212C268.411 203.209 268.454 203.2 268.496 203.194C268.805 203.133 269.084 202.97 269.284 202.733C269.484 202.496 269.593 202.199 269.594 201.893V201.313C269.594 200.962 269.45 200.625 269.194 200.377C268.938 200.129 268.591 199.989 268.229 199.989ZM268.229 202.629H221.491C220.902 202.629 220.336 202.401 219.919 201.997C219.502 201.593 219.267 201.044 219.266 200.472V181.99C219.267 181.418 219.502 180.869 219.919 180.465C220.336 180.06 220.902 179.833 221.491 179.833H256.075C256.664 179.834 257.229 180.061 257.645 180.466C258.062 180.87 258.296 181.418 258.297 181.99V200.578H268.229C268.43 200.578 268.623 200.655 268.765 200.793C268.907 200.931 268.987 201.118 268.987 201.313V201.893C268.987 202.088 268.907 202.275 268.765 202.413C268.623 202.551 268.43 202.629 268.229 202.629Z" fill="#3F3D56"/>
<path d="M238.782 193.494C240.07 193.494 241.114 192.481 241.114 191.231C241.114 189.981 240.07 188.968 238.782 188.968C237.494 188.968 236.451 189.981 236.451 191.231C236.451 192.481 237.494 193.494 238.782 193.494Z" fill="#061178"/>
<path d="M65.4864 153.34C74.4477 153.34 81.7122 146.288 81.7122 137.589C81.7122 128.891 74.4477 121.839 65.4864 121.839C56.5252 121.839 49.2606 128.891 49.2606 137.589C49.2606 146.288 56.5252 153.34 65.4864 153.34Z" fill="#061178"/>
<path d="M62.3234 196.84H57.8486C57.3261 196.841 56.8251 197.042 56.4557 197.401C56.0862 197.76 55.8784 198.246 55.8779 198.753V234.954C55.8784 235.461 56.0862 235.947 56.4557 236.306C56.8251 236.665 57.3261 236.866 57.8486 236.867H62.3234C62.8459 236.866 63.3469 236.665 63.7163 236.306C64.0858 235.947 64.2936 235.461 64.2941 234.954V198.753C64.2936 198.246 64.0858 197.76 63.7163 197.401C63.3469 197.042 62.8459 196.841 62.3234 196.84Z" fill="#2F2E41"/>
<path d="M71.7795 196.84H67.3046C66.7821 196.841 66.2812 197.042 65.9117 197.401C65.5423 197.76 65.3345 198.246 65.334 198.753V234.954C65.3345 235.461 65.5423 235.947 65.9117 236.306C66.2812 236.665 66.7821 236.866 67.3046 236.867H71.7795C72.0383 236.867 72.2945 236.817 72.5336 236.721C72.7727 236.625 72.99 236.484 73.173 236.307C73.356 236.129 73.5011 235.918 73.6001 235.686C73.6992 235.454 73.7501 235.205 73.7501 234.954V198.753C73.7501 198.502 73.6992 198.253 73.6001 198.021C73.5011 197.789 73.356 197.578 73.173 197.4C72.99 197.223 72.7727 197.082 72.5336 196.986C72.2945 196.89 72.0383 196.84 71.7795 196.84Z" fill="#2F2E41"/>
<path d="M75.0204 161.599C73.4522 159.631 71.2898 158.189 68.8355 157.474C66.3813 156.758 63.7581 156.806 61.3329 157.609C58.9077 158.412 56.8019 159.931 55.3101 161.954C53.8182 163.976 53.015 166.401 53.0128 168.888V200.948C53.0116 201.046 53.0197 201.144 53.0371 201.24C53.1091 201.73 53.3608 202.179 53.7462 202.504C54.1315 202.829 54.6246 203.008 55.1351 203.008H75.4692C76.0317 203.007 76.5709 202.79 76.9686 202.404C77.3664 202.018 77.5903 201.494 77.5915 200.948V168.888C77.5953 166.248 76.6903 163.682 75.0204 161.599Z" fill="#2F2E41"/>
<path d="M79.1888 144.552L79.1719 143.963C80.2999 143.933 81.2944 143.864 82.0417 143.334C82.2536 143.175 82.4277 142.974 82.5523 142.744C82.6769 142.514 82.749 142.261 82.7637 142.002C82.7768 141.843 82.7521 141.684 82.6915 141.536C82.6309 141.388 82.536 141.256 82.4142 141.15C81.9181 140.743 81.1199 140.875 80.5381 141.134L80.0364 141.357L80.9985 134.532L81.5992 134.612L80.7809 140.417C81.5714 140.192 82.3039 140.289 82.8056 140.7C82.9982 140.863 83.1493 141.068 83.2472 141.297C83.345 141.526 83.3869 141.775 83.3696 142.022C83.3519 142.371 83.2559 142.711 83.0883 143.02C82.9207 143.329 82.6855 143.598 82.3994 143.81C81.4392 144.491 80.1914 144.525 79.1888 144.552Z" fill="#2F2E41"/>
<path d="M77.5277 135.113H74.2621V135.701H77.5277V135.113Z" fill="#2F2E41"/>
<path d="M60.7287 162.052C60.5537 161.866 60.3424 161.716 60.1072 161.611C59.8719 161.505 59.6174 161.446 59.3584 161.437L55.8325 161.295L54.8895 161.257C54.3674 161.236 53.8582 161.418 53.4735 161.761C53.0887 162.104 52.8598 162.581 52.837 163.088L52.2792 176.131L51.2938 199.259C51.2737 199.742 51.4422 200.214 51.7654 200.581C52.0887 200.949 52.5429 201.184 53.0371 201.24C53.0857 201.246 53.1311 201.249 53.1797 201.252L55.8779 201.36L57.6515 201.431C57.7936 201.437 57.9359 201.428 58.076 201.405C58.4464 201.34 58.7902 201.175 59.0673 200.928C59.2585 200.758 59.413 200.553 59.5217 200.324C59.6305 200.096 59.6914 199.849 59.7009 199.598L59.8192 196.84L60.6894 176.443L61.2472 163.426C61.2689 162.919 61.0825 162.425 60.7287 162.052Z" fill="#061178"/>
<path d="M58.1457 159.197C57.7689 159.12 57.3848 159.081 56.9996 159.082C55.5127 159.084 54.0871 159.658 53.0356 160.679C51.9842 161.7 51.3927 163.083 51.3909 164.527V174.533C51.3917 174.85 51.4733 175.161 51.6283 175.44C51.7833 175.719 52.0069 175.956 52.2792 176.131C52.5013 176.273 52.751 176.369 53.0129 176.413C53.1278 176.434 53.2445 176.445 53.3615 176.446H60.6378C60.6551 176.446 60.6723 176.445 60.6894 176.443C61.2027 176.43 61.6905 176.223 62.0489 175.866C62.4074 175.51 62.6081 175.031 62.6084 174.533V164.527C62.6068 163.276 62.1625 162.065 61.3501 161.094C60.5376 160.124 59.4063 159.454 58.1457 159.197Z" fill="#2F2E41"/>
<path d="M97.007 187.693C96.5315 187.455 96.1581 187.061 95.9528 186.581C95.7475 186.101 95.7236 185.567 95.8852 185.071L97.6103 179.742L97.107 179.336L83.8672 168.703L75.0205 161.599L73.9443 160.733C73.5418 160.41 73.0235 160.255 72.5033 160.302C71.983 160.35 71.5035 160.596 71.1702 160.986L68.3173 164.335C68.1518 164.529 68.0273 164.752 67.9509 164.992C67.8745 165.232 67.8476 165.484 67.8718 165.734C67.896 165.985 67.9709 166.228 68.092 166.45C68.2132 166.672 68.3783 166.868 68.578 167.028L77.5916 174.268L78.6163 175.089L97.3132 190.104C97.659 190.383 98.0927 190.538 98.5422 190.545C98.9917 190.551 99.4299 190.408 99.784 190.139C99.8817 190.065 99.9711 189.981 100.051 189.889C100.064 189.877 100.076 189.864 100.087 189.851L100.448 189.427L97.007 187.693Z" fill="#061178"/>
<path d="M83.2305 166.66L75.254 160.324C74.6841 159.871 74.0278 159.532 73.3227 159.325C72.6176 159.118 71.8774 159.048 71.1444 159.119C70.4115 159.19 69.7001 159.4 69.0509 159.738C68.4017 160.076 67.8274 160.535 67.3607 161.088C66.8941 161.641 66.5443 162.278 66.3313 162.963C66.1183 163.647 66.0463 164.366 66.1193 165.077C66.2669 166.514 66.9964 167.835 68.1474 168.75L76.124 175.086C76.4754 175.365 76.9154 175.518 77.3696 175.519C77.8237 175.519 78.2641 175.367 78.6162 175.089C78.7211 175.01 78.8158 174.919 78.8981 174.818L83.5064 169.353C83.6695 169.161 83.7921 168.94 83.8672 168.703C83.9806 168.339 83.9807 167.951 83.8674 167.588C83.7541 167.225 83.5325 166.902 83.2305 166.66Z" fill="#2F2E41"/>
<path d="M61.4185 140.256C60.5736 138.886 59.9124 137.376 60.2262 135.753C60.5065 134.303 61.5813 133.174 63.1267 133.026C64.0573 132.937 64.9835 133.178 65.8925 133.335C66.6376 133.462 67.3948 133.51 68.1506 133.477C69.6712 133.41 71.1619 133.043 72.5318 132.399C73.9223 131.767 75.1573 130.854 76.1539 129.72C77.1504 128.587 77.8854 127.259 78.3093 125.827C79.2315 122.568 78.5468 118.867 76.3567 116.214L77.1168 116.02L76.1272 119.176C76.1079 119.24 76.0737 119.3 76.0273 119.35C75.9808 119.4 75.9233 119.439 75.859 119.465C75.7947 119.49 75.7253 119.501 75.6561 119.497C75.5868 119.492 75.5195 119.473 75.4591 119.44C73.6655 118.339 71.6603 117.604 69.5652 117.279C67.4701 116.954 65.3288 117.046 63.2712 117.548C62.1085 117.832 60.9856 118.251 59.9268 118.797C59.4103 119.063 58.9502 118.301 59.4678 118.034C61.4563 117.027 63.6347 116.422 65.871 116.256C68.1073 116.09 70.3552 116.366 72.4785 117.067C73.6878 117.467 74.8428 118.008 75.9182 118.677L75.2501 118.941L76.2398 115.785C76.2618 115.711 76.3032 115.644 76.3598 115.59C76.4165 115.537 76.4865 115.498 76.563 115.479C76.6395 115.459 76.72 115.459 76.7966 115.479C76.8731 115.498 76.9432 115.536 76.9999 115.59C78.0185 116.844 78.765 118.286 79.1944 119.827C79.6238 121.369 79.7272 122.979 79.4984 124.561C79.2773 126.12 78.7193 127.616 77.8609 128.95C77.0025 130.285 75.8632 131.429 74.5176 132.306C73.1734 133.187 71.6625 133.8 70.0725 134.111C68.4825 134.421 66.8449 134.422 65.2544 134.114C64.3643 133.948 63.3549 133.71 62.4816 134.072C62.1648 134.22 61.8856 134.434 61.6637 134.699C61.4419 134.964 61.2828 135.273 61.1979 135.604C60.703 137.232 61.5451 138.778 62.4053 140.132L61.4185 140.256Z" fill="#2F2E41"/>
<path d="M120.612 172.864L105.614 164.438C105.241 164.229 104.823 164.103 104.393 164.071C103.963 164.039 103.531 164.101 103.129 164.253C102.726 164.405 102.365 164.642 102.07 164.948C101.775 165.253 101.554 165.619 101.424 166.019L97.107 179.336L95.3061 184.895C95.1021 185.522 95.1329 186.199 95.393 186.806C95.6532 187.414 96.126 187.912 96.728 188.214L100.051 189.889L110.893 195.348C111.303 195.555 111.758 195.663 112.22 195.663C112.562 195.662 112.9 195.603 113.221 195.489L113.242 195.48C113.621 195.34 113.965 195.124 114.252 194.846C114.54 194.568 114.764 194.235 114.91 193.868L121.858 176.284C122.106 175.663 122.117 174.977 121.888 174.35C121.659 173.723 121.207 173.195 120.612 172.864ZM121.291 176.075L114.343 193.659C114.227 193.949 114.05 194.212 113.823 194.431C113.595 194.65 113.323 194.82 113.024 194.93L113.009 194.936C112.711 195.043 112.395 195.088 112.078 195.069C111.762 195.05 111.453 194.968 111.171 194.827L100.448 189.427L97.0071 187.693C96.5315 187.455 96.1581 187.061 95.9528 186.581C95.7475 186.101 95.7236 185.567 95.8853 185.071L97.6103 179.742L102 166.195C102.103 165.881 102.278 165.592 102.511 165.351C102.744 165.11 103.029 164.923 103.347 164.804C103.664 164.684 104.005 164.635 104.344 164.66C104.684 164.685 105.013 164.783 105.308 164.948L120.306 173.373C120.776 173.635 121.134 174.051 121.315 174.547C121.495 175.042 121.487 175.585 121.291 176.075Z" fill="#3F3D56"/>
<path d="M115.58 178.498C115.428 178.498 115.279 178.461 115.146 178.39L105.141 173.093C104.93 172.98 104.773 172.791 104.706 172.567C104.638 172.343 104.665 172.101 104.78 171.896C104.896 171.691 105.09 171.539 105.321 171.472C105.552 171.406 105.8 171.431 106.012 171.543L116.017 176.84C116.194 176.934 116.334 177.083 116.415 177.263C116.496 177.442 116.512 177.643 116.462 177.834C116.412 178.024 116.298 178.192 116.139 178.313C115.979 178.433 115.782 178.498 115.58 178.498H115.58Z" fill="#061178"/>
<path d="M113.761 182.324C113.609 182.324 113.46 182.287 113.326 182.216L103.322 176.919C103.111 176.806 102.954 176.617 102.887 176.393C102.819 176.168 102.846 175.927 102.961 175.722C103.077 175.517 103.271 175.365 103.502 175.298C103.732 175.232 103.981 175.257 104.193 175.368L114.197 180.666C114.375 180.76 114.515 180.908 114.596 181.088C114.677 181.268 114.693 181.469 114.643 181.659C114.593 181.849 114.479 182.018 114.32 182.138C114.16 182.259 113.963 182.324 113.761 182.324H113.761Z" fill="#061178"/>
<path d="M112.245 186.444C112.093 186.444 111.944 186.407 111.811 186.336L101.806 181.039C101.595 180.926 101.438 180.737 101.371 180.513C101.303 180.288 101.33 180.047 101.445 179.842C101.561 179.637 101.755 179.485 101.986 179.418C102.217 179.352 102.465 179.377 102.677 179.488L112.682 184.786C112.859 184.88 112.999 185.028 113.08 185.208C113.161 185.388 113.177 185.589 113.127 185.779C113.077 185.97 112.963 186.138 112.804 186.258C112.644 186.379 112.447 186.444 112.245 186.444H112.245Z" fill="#061178"/>
<path d="M218.046 103.075H175.987C175.382 103.075 174.803 102.841 174.375 102.426C173.948 102.011 173.707 101.449 173.706 100.862V49.2135C173.707 48.6266 173.948 48.064 174.375 47.6491C174.803 47.2341 175.382 47.0007 175.987 47H218.046C218.651 47.0007 219.23 47.2341 219.658 47.6491C220.085 48.064 220.326 48.6266 220.326 49.2135V100.862C220.326 101.449 220.085 102.011 219.658 102.426C219.23 102.841 218.651 103.075 218.046 103.075ZM175.987 47.4919C175.517 47.4924 175.066 47.674 174.733 47.9967C174.401 48.3195 174.214 48.7571 174.213 49.2135V100.862C174.214 101.318 174.401 101.756 174.733 102.079C175.066 102.401 175.517 102.583 175.987 102.583H218.046C218.516 102.583 218.967 102.401 219.3 102.079C219.632 101.756 219.819 101.318 219.82 100.862V49.2135C219.819 48.7571 219.632 48.3195 219.3 47.9967C218.967 47.674 218.516 47.4924 218.046 47.4919H175.987Z" fill="#3F3D56"/>
<path d="M193.518 71.826H184.26C183.957 71.8257 183.667 71.709 183.454 71.5015C183.24 71.294 183.12 71.0127 183.119 70.7193V60.1143C183.12 59.8208 183.24 59.5395 183.454 59.332C183.667 59.1245 183.957 59.0078 184.26 59.0075H193.518C193.82 59.0078 194.11 59.1245 194.324 59.332C194.537 59.5395 194.657 59.8208 194.658 60.1143V70.7193C194.657 71.0127 194.537 71.294 194.324 71.5015C194.11 71.709 193.82 71.8257 193.518 71.826Z" fill="#061178"/>
<path d="M211.507 76.745H202.249C201.947 76.7446 201.657 76.6279 201.443 76.4204C201.229 76.213 201.109 75.9316 201.109 75.6382V65.0332C201.109 64.7397 201.229 64.4584 201.443 64.2509C201.657 64.0435 201.947 63.9267 202.249 63.9264H211.507C211.809 63.9267 212.099 64.0435 212.313 64.2509C212.527 64.4584 212.647 64.7397 212.647 65.0332V75.6382C212.647 75.9316 212.527 76.213 212.313 76.4204C212.099 76.6279 211.809 76.7446 211.507 76.745Z" fill="#CCCCCC"/>
<path d="M197.065 91.7476H187.807C187.504 91.7472 187.215 91.6305 187.001 91.423C186.787 91.2155 186.667 90.9342 186.667 90.6408V80.0358C186.667 79.7423 186.787 79.461 187.001 79.2535C187.215 79.046 187.504 78.9293 187.807 78.929H197.065C197.367 78.9293 197.657 79.046 197.871 79.2535C198.084 79.461 198.205 79.7423 198.205 80.0358V90.6408C198.205 90.9342 198.084 91.2155 197.871 91.423C197.657 91.6305 197.367 91.7472 197.065 91.7476Z" fill="#FF6584"/>
<path d="M163.183 89.1153C163.008 88.7122 162.715 88.3678 162.341 88.1246C161.966 87.8814 161.526 87.75 161.076 87.7468H119.016C118.412 87.7472 117.832 87.9804 117.404 88.3954C116.977 88.8103 116.737 89.3731 116.736 89.9599V141.608C116.737 142.195 116.977 142.758 117.404 143.173C117.832 143.588 118.412 143.821 119.016 143.821H161.076C161.68 143.821 162.26 143.587 162.687 143.172C163.114 142.757 163.355 142.195 163.356 141.608V89.9599C163.357 89.67 163.298 89.3828 163.183 89.1153ZM162.849 141.608C162.849 142.065 162.662 142.502 162.329 142.825C161.997 143.148 161.546 143.329 161.076 143.33H119.016C118.546 143.33 118.095 143.148 117.762 142.826C117.429 142.503 117.243 142.065 117.242 141.608V89.9599C117.243 89.5035 117.43 89.0659 117.763 88.7432C118.095 88.4205 118.546 88.2389 119.016 88.2383H161.076C161.43 88.2396 161.776 88.3433 162.069 88.5362C162.362 88.7291 162.59 89.0024 162.722 89.3213C162.748 89.3848 162.77 89.4497 162.789 89.5155C162.829 89.6604 162.849 89.8098 162.849 89.9599V141.608Z" fill="#3F3D56"/>
<path d="M154.404 99.9411H141.736C141.467 99.9411 141.209 99.8375 141.019 99.653C140.829 99.4685 140.722 99.2183 140.722 98.9574C140.722 98.6964 140.829 98.4462 141.019 98.2617C141.209 98.0772 141.467 97.9736 141.736 97.9736H154.404C154.673 97.9736 154.931 98.0772 155.121 98.2617C155.311 98.4462 155.418 98.6964 155.418 98.9574C155.418 99.2183 155.311 99.4685 155.121 99.653C154.931 99.8375 154.673 99.9411 154.404 99.9411Z" fill="#3F3D56"/>
<path d="M154.404 105.106H141.736C141.467 105.106 141.209 105.002 141.019 104.818C140.829 104.633 140.722 104.383 140.722 104.122C140.722 103.861 140.829 103.611 141.019 103.427C141.209 103.242 141.467 103.138 141.736 103.138H154.404C154.673 103.138 154.931 103.242 155.121 103.427C155.311 103.611 155.418 103.861 155.418 104.122C155.418 104.383 155.311 104.633 155.121 104.818C154.931 105.002 154.673 105.106 154.404 105.106Z" fill="#3F3D56"/>
<path d="M135.236 108.047H125.977C125.675 108.046 125.385 107.93 125.172 107.722C124.958 107.515 124.838 107.233 124.837 106.94V96.335C124.838 96.0416 124.958 95.7603 125.172 95.5528C125.385 95.3453 125.675 95.2286 125.977 95.2283H135.236C135.538 95.2286 135.828 95.3453 136.041 95.5528C136.255 95.7603 136.375 96.0416 136.376 96.335V106.94C136.375 107.233 136.255 107.515 136.041 107.722C135.828 107.93 135.538 108.046 135.236 108.047Z" fill="#061178"/>
<path d="M154.317 115.682H125.686C125.553 115.682 125.421 115.657 125.297 115.607C125.174 115.558 125.062 115.485 124.968 115.394C124.874 115.303 124.799 115.194 124.748 115.075C124.697 114.955 124.671 114.827 124.671 114.698C124.671 114.568 124.697 114.44 124.748 114.321C124.799 114.201 124.874 114.093 124.968 114.002C125.062 113.91 125.174 113.838 125.297 113.788C125.421 113.739 125.553 113.714 125.686 113.714H154.317C154.585 113.714 154.842 113.818 155.032 114.003C155.222 114.187 155.328 114.437 155.328 114.698C155.328 114.958 155.222 115.208 155.032 115.393C154.842 115.577 154.585 115.681 154.317 115.682Z" fill="#CCCCCC"/>
<path d="M154.317 120.846H125.686C125.553 120.847 125.421 120.821 125.297 120.772C125.174 120.723 125.062 120.65 124.968 120.559C124.874 120.467 124.799 120.359 124.748 120.239C124.697 120.12 124.671 119.992 124.671 119.863C124.671 119.733 124.697 119.605 124.748 119.486C124.799 119.366 124.874 119.258 124.968 119.166C125.062 119.075 125.174 119.003 125.297 118.953C125.421 118.904 125.553 118.879 125.686 118.879H154.317C154.585 118.879 154.843 118.982 155.033 119.167C155.223 119.351 155.33 119.602 155.33 119.863C155.33 120.124 155.223 120.374 155.033 120.558C154.843 120.743 154.585 120.846 154.317 120.846Z" fill="#CCCCCC"/>
<path d="M154.317 126.011H125.686C125.553 126.011 125.421 125.986 125.297 125.937C125.174 125.888 125.062 125.815 124.968 125.724C124.874 125.632 124.799 125.524 124.748 125.404C124.697 125.285 124.671 125.157 124.671 125.027C124.671 124.898 124.697 124.77 124.748 124.651C124.799 124.531 124.874 124.423 124.968 124.331C125.062 124.24 125.174 124.167 125.297 124.118C125.421 124.069 125.553 124.043 125.686 124.044H154.317C154.585 124.044 154.843 124.147 155.033 124.332C155.223 124.516 155.33 124.767 155.33 125.027C155.33 125.288 155.223 125.539 155.033 125.723C154.843 125.908 154.585 126.011 154.317 126.011Z" fill="#CCCCCC"/>
<path d="M154.317 131.176H125.686C125.553 131.176 125.421 131.151 125.297 131.102C125.174 131.052 125.062 130.98 124.968 130.889C124.874 130.797 124.799 130.689 124.748 130.569C124.697 130.45 124.671 130.322 124.671 130.192C124.671 130.063 124.697 129.935 124.748 129.815C124.799 129.696 124.874 129.587 124.968 129.496C125.062 129.405 125.174 129.332 125.297 129.283C125.421 129.234 125.553 129.208 125.686 129.209H154.317C154.585 129.209 154.843 129.312 155.033 129.497C155.223 129.681 155.33 129.931 155.33 130.192C155.33 130.453 155.223 130.703 155.033 130.888C154.843 131.072 154.585 131.176 154.317 131.176Z" fill="#CCCCCC"/>
<path d="M154.317 136.341H125.686C125.553 136.341 125.421 136.316 125.297 136.267C125.174 136.217 125.062 136.145 124.968 136.053C124.874 135.962 124.799 135.853 124.748 135.734C124.697 135.615 124.671 135.486 124.671 135.357C124.671 135.228 124.697 135.1 124.748 134.98C124.799 134.861 124.874 134.752 124.968 134.661C125.062 134.57 125.174 134.497 125.297 134.448C125.421 134.398 125.553 134.373 125.686 134.373H154.317C154.585 134.374 154.842 134.478 155.032 134.662C155.222 134.847 155.328 135.097 155.328 135.357C155.328 135.618 155.222 135.868 155.032 136.052C154.842 136.237 154.585 136.34 154.317 136.341Z" fill="#CCCCCC"/>
<path d="M195.063 108.716L171.086 130.875L171.436 131.231L195.413 109.072L195.063 108.716Z" fill="#E6E6E6"/>
<path d="M170.863 131.42L173.906 131.385L173.9 130.893L171.402 130.922L171.554 128.501L171.048 128.472L170.863 131.42Z" fill="#E6E6E6"/>
<path d="M195.636 108.526L195.451 111.475L194.945 111.445L195.097 109.024L192.599 109.053L192.593 108.561L195.636 108.526Z" fill="#E6E6E6"/>
<path d="M183.25 122.679C184.789 122.679 186.037 121.468 186.037 119.973C186.037 118.479 184.789 117.268 183.25 117.268C181.71 117.268 180.463 118.479 180.463 119.973C180.463 121.468 181.71 122.679 183.25 122.679Z" fill="#E6E6E6"/>
<path d="M162.927 56.3319L138.95 78.4905L139.299 78.8468L163.276 56.6882L162.927 56.3319Z" fill="#E6E6E6"/>
<path d="M138.726 79.0361L141.769 79.0014L141.764 78.509L139.265 78.5382L139.418 76.1173L138.911 76.0876L138.726 79.0361Z" fill="#E6E6E6"/>
<path d="M163.499 56.1416L163.314 59.0904L162.808 59.061L162.96 56.6398L160.462 56.669L160.456 56.1769L163.499 56.1416Z" fill="#E6E6E6"/>
<path d="M151.113 70.2947C152.652 70.2947 153.9 69.0834 153.9 67.5893C153.9 66.0952 152.652 64.8839 151.113 64.8839C149.574 64.8839 148.326 66.0952 148.326 67.5893C148.326 69.0834 149.574 70.2947 151.113 70.2947Z" fill="#E6E6E6"/>
<path d="M258.894 200.301H258.288V202.95H258.894V200.301Z" fill="#3F3D56"/>
</g>
<rect x="0.5" y="0.5" width="327" height="283" rx="7.5" stroke="#D9D9D9"/>
<defs>
<clipPath id="clip0_382_35245">
<rect width="271" height="190" fill="white" transform="translate(28.5 47)"/>
</clipPath>
</defs>
</svg>
