<svg width="98" height="15" viewBox="0 0 98 15" fill="none" xmlns="http://www.w3.org/2000/svg">
<path d="M7.40909 4.72727L6.20455 5.06818C6.12879 4.86742 6.01705 4.67235 5.86932 4.48295C5.72538 4.28977 5.52841 4.13068 5.27841 4.00568C5.02841 3.88068 4.70833 3.81818 4.31818 3.81818C3.78409 3.81818 3.33902 3.94129 2.98295 4.1875C2.63068 4.42992 2.45455 4.73864 2.45455 5.11364C2.45455 5.44697 2.57576 5.71023 2.81818 5.90341C3.06061 6.09659 3.43939 6.25758 3.95455 6.38636L5.25 6.70455C6.0303 6.89394 6.61174 7.18371 6.99432 7.57386C7.37689 7.96023 7.56818 8.45833 7.56818 9.06818C7.56818 9.56818 7.42424 10.0152 7.13636 10.4091C6.85227 10.803 6.45455 11.1136 5.94318 11.3409C5.43182 11.5682 4.83712 11.6818 4.15909 11.6818C3.26894 11.6818 2.5322 11.4886 1.94886 11.1023C1.36553 10.7159 0.996212 10.1515 0.840909 9.40909L2.11364 9.09091C2.23485 9.56061 2.46402 9.91288 2.80114 10.1477C3.14205 10.3826 3.58712 10.5 4.13636 10.5C4.76136 10.5 5.25758 10.3674 5.625 10.1023C5.99621 9.83333 6.18182 9.51136 6.18182 9.13636C6.18182 8.83333 6.07576 8.57955 5.86364 8.375C5.65152 8.16667 5.32576 8.01136 4.88636 7.90909L3.43182 7.56818C2.63258 7.37879 2.04545 7.08523 1.67045 6.6875C1.29924 6.28598 1.11364 5.78409 1.11364 5.18182C1.11364 4.68939 1.25189 4.25379 1.52841 3.875C1.80871 3.49621 2.18939 3.19886 2.67045 2.98295C3.1553 2.76705 3.70455 2.65909 4.31818 2.65909C5.18182 2.65909 5.85985 2.84848 6.35227 3.22727C6.84848 3.60606 7.20076 4.10606 7.40909 4.72727ZM14.7666 7.93182V2.77273H16.1076V11.5H14.7666V10.0227H14.6757C14.4712 10.4659 14.153 10.8428 13.7212 11.1534C13.2894 11.4602 12.7439 11.6136 12.0848 11.6136C11.5394 11.6136 11.0545 11.4943 10.6303 11.2557C10.206 11.0133 9.87271 10.6496 9.63028 10.1648C9.38786 9.67614 9.26665 9.06061 9.26665 8.31818V2.77273H10.6076V8.22727C10.6076 8.86364 10.7856 9.37121 11.1416 9.75C11.5015 10.1288 11.9598 10.3182 12.5166 10.3182C12.85 10.3182 13.189 10.233 13.5337 10.0625C13.8822 9.89205 14.1738 9.63068 14.4087 9.27841C14.6473 8.92614 14.7666 8.47727 14.7666 7.93182ZM18.2435 11.5V2.77273H19.539V4.09091H19.6299C19.789 3.65909 20.0769 3.30871 20.4935 3.03977C20.9102 2.77083 21.3799 2.63636 21.9026 2.63636C22.0011 2.63636 22.1242 2.63826 22.2719 2.64205C22.4197 2.64583 22.5314 2.65152 22.6072 2.65909V4.02273C22.5617 4.01136 22.4575 3.99432 22.2947 3.97159C22.1356 3.94508 21.967 3.93182 21.789 3.93182C21.3647 3.93182 20.9859 4.02083 20.6526 4.19886C20.3231 4.37311 20.0617 4.61553 19.8685 4.92614C19.6791 5.23295 19.5844 5.58333 19.5844 5.97727V11.5H18.2435ZM31.2786 2.77273L28.0514 11.5H26.6877L23.4605 2.77273H24.915L27.3241 9.72727H27.415L29.8241 2.77273H31.2786ZM36.0751 11.6818C35.2342 11.6818 34.5088 11.4962 33.899 11.125C33.2929 10.75 32.8251 10.2273 32.4956 9.55682C32.1698 8.88258 32.0069 8.09848 32.0069 7.20455C32.0069 6.31061 32.1698 5.52273 32.4956 4.84091C32.8251 4.1553 33.2834 3.62121 33.8706 3.23864C34.4615 2.85227 35.1509 2.65909 35.9387 2.65909C36.3933 2.65909 36.8422 2.73485 37.2853 2.88636C37.7285 3.03788 38.1319 3.28409 38.4956 3.625C38.8592 3.96212 39.149 4.40909 39.3649 4.96591C39.5808 5.52273 39.6887 6.20833 39.6887 7.02273V7.59091H32.9615V6.43182H38.3251C38.3251 5.93939 38.2266 5.5 38.0297 5.11364C37.8365 4.72727 37.56 4.42235 37.2001 4.19886C36.8441 3.97538 36.4236 3.86364 35.9387 3.86364C35.4047 3.86364 34.9425 3.99621 34.5524 4.26136C34.166 4.52273 33.8687 4.86364 33.6603 5.28409C33.452 5.70455 33.3478 6.1553 33.3478 6.63636V7.40909C33.3478 8.06818 33.4615 8.62689 33.6887 9.08523C33.9198 9.53977 34.2399 9.88636 34.649 10.125C35.0581 10.3598 35.5334 10.4773 36.0751 10.4773C36.4274 10.4773 36.7456 10.428 37.0297 10.3295C37.3175 10.2273 37.5656 10.0758 37.774 9.875C37.9823 9.67045 38.1433 9.41667 38.2569 9.11364L39.5524 9.47727C39.416 9.91667 39.1869 10.303 38.8649 10.6364C38.5429 10.9659 38.1452 11.2235 37.6717 11.4091C37.1982 11.5909 36.666 11.6818 36.0751 11.6818ZM42.0065 14.7727C41.7793 14.7727 41.5766 14.7538 41.3986 14.7159C41.2206 14.6818 41.0974 14.6477 41.0293 14.6136L41.3702 13.4318C41.6959 13.5152 41.9838 13.5455 42.2338 13.5227C42.4838 13.5 42.7054 13.3883 42.8986 13.1875C43.0956 12.9905 43.2755 12.6705 43.4384 12.2273L43.6884 11.5455L40.4611 2.77273H41.9156L44.3247 9.72727H44.4156L46.8247 2.77273H48.2793L44.5747 12.7727C44.4081 13.2235 44.2016 13.5966 43.9554 13.892C43.7092 14.1913 43.4232 14.4129 43.0974 14.5568C42.7755 14.7008 42.4118 14.7727 42.0065 14.7727ZM55.911 4.72727L54.7064 5.06818C54.6307 4.86742 54.5189 4.67235 54.3712 4.48295C54.2273 4.28977 54.0303 4.13068 53.7803 4.00568C53.5303 3.88068 53.2102 3.81818 52.8201 3.81818C52.286 3.81818 51.8409 3.94129 51.4848 4.1875C51.1326 4.42992 50.9564 4.73864 50.9564 5.11364C50.9564 5.44697 51.0776 5.71023 51.3201 5.90341C51.5625 6.09659 51.9413 6.25758 52.4564 6.38636L53.7519 6.70455C54.5322 6.89394 55.1136 7.18371 55.4962 7.57386C55.8788 7.96023 56.0701 8.45833 56.0701 9.06818C56.0701 9.56818 55.9261 10.0152 55.6382 10.4091C55.3541 10.803 54.9564 11.1136 54.4451 11.3409C53.9337 11.5682 53.339 11.6818 52.661 11.6818C51.7708 11.6818 51.0341 11.4886 50.4507 11.1023C49.8674 10.7159 49.4981 10.1515 49.3428 9.40909L50.6155 9.09091C50.7367 9.56061 50.9659 9.91288 51.303 10.1477C51.6439 10.3826 52.089 10.5 52.6382 10.5C53.2632 10.5 53.7595 10.3674 54.1269 10.1023C54.4981 9.83333 54.6837 9.51136 54.6837 9.13636C54.6837 8.83333 54.5776 8.57955 54.3655 8.375C54.1534 8.16667 53.8276 8.01136 53.3882 7.90909L51.9337 7.56818C51.1345 7.37879 50.5473 7.08523 50.1723 6.6875C49.8011 6.28598 49.6155 5.78409 49.6155 5.18182C49.6155 4.68939 49.7538 4.25379 50.0303 3.875C50.3106 3.49621 50.6913 3.19886 51.1723 2.98295C51.6572 2.76705 52.2064 2.65909 52.8201 2.65909C53.6837 2.65909 54.3617 2.84848 54.8541 3.22727C55.3504 3.60606 55.7026 4.10606 55.911 4.72727ZM61.564 2.77273V3.90909H57.0412V2.77273H61.564ZM58.3594 0.681818H59.7003V9C59.7003 9.37879 59.7553 9.66288 59.8651 9.85227C59.9787 10.0379 60.1227 10.1629 60.2969 10.2273C60.475 10.2879 60.6625 10.3182 60.8594 10.3182C61.0072 10.3182 61.1284 10.3106 61.2231 10.2955C61.3178 10.2765 61.3935 10.2614 61.4503 10.25L61.7231 11.4545C61.6322 11.4886 61.5053 11.5227 61.3424 11.5568C61.1795 11.5947 60.9731 11.6136 60.7231 11.6136C60.3443 11.6136 59.9731 11.5322 59.6094 11.3693C59.2496 11.2064 58.9503 10.9583 58.7117 10.625C58.4769 10.2917 58.3594 9.87121 58.3594 9.36364V0.681818ZM63.261 11.5V2.77273H64.5565V4.09091H64.6474C64.8065 3.65909 65.0944 3.30871 65.511 3.03977C65.9277 2.77083 66.3974 2.63636 66.9201 2.63636C67.0186 2.63636 67.1417 2.63826 67.2894 2.64205C67.4372 2.64583 67.5489 2.65152 67.6247 2.65909V4.02273C67.5792 4.01136 67.475 3.99432 67.3122 3.97159C67.1531 3.94508 66.9845 3.93182 66.8065 3.93182C66.3822 3.93182 66.0034 4.02083 65.6701 4.19886C65.3406 4.37311 65.0792 4.61553 64.886 4.92614C64.6966 5.23295 64.6019 5.58333 64.6019 5.97727V11.5H63.261ZM72.2876 11.6818C71.4467 11.6818 70.7213 11.4962 70.1115 11.125C69.5054 10.75 69.0376 10.2273 68.7081 9.55682C68.3823 8.88258 68.2194 8.09848 68.2194 7.20455C68.2194 6.31061 68.3823 5.52273 68.7081 4.84091C69.0376 4.1553 69.4959 3.62121 70.0831 3.23864C70.674 2.85227 71.3634 2.65909 72.1513 2.65909C72.6058 2.65909 73.0547 2.73485 73.4978 2.88636C73.941 3.03788 74.3444 3.28409 74.7081 3.625C75.0717 3.96212 75.3615 4.40909 75.5774 4.96591C75.7933 5.52273 75.9013 6.20833 75.9013 7.02273V7.59091H69.174V6.43182H74.5376C74.5376 5.93939 74.4391 5.5 74.2422 5.11364C74.049 4.72727 73.7725 4.42235 73.4126 4.19886C73.0566 3.97538 72.6361 3.86364 72.1513 3.86364C71.6172 3.86364 71.155 3.99621 70.7649 4.26136C70.3785 4.52273 70.0812 4.86364 69.8728 5.28409C69.6645 5.70455 69.5603 6.1553 69.5603 6.63636V7.40909C69.5603 8.06818 69.674 8.62689 69.9013 9.08523C70.1323 9.53977 70.4524 9.88636 70.8615 10.125C71.2706 10.3598 71.746 10.4773 72.2876 10.4773C72.6399 10.4773 72.9581 10.428 73.2422 10.3295C73.53 10.2273 73.7781 10.0758 73.9865 9.875C74.1948 9.67045 74.3558 9.41667 74.4694 9.11364L75.7649 9.47727C75.6285 9.91667 75.3994 10.303 75.0774 10.6364C74.7554 10.9659 74.3577 11.2235 73.8842 11.4091C73.4107 11.5909 72.8785 11.6818 72.2876 11.6818ZM80.1892 11.7045C79.6362 11.7045 79.1343 11.6004 78.6835 11.392C78.2328 11.1799 77.8748 10.875 77.6097 10.4773C77.3445 10.0758 77.2119 9.59091 77.2119 9.02273C77.2119 8.52273 77.3104 8.11742 77.5074 7.80682C77.7044 7.49242 77.9676 7.24621 78.2972 7.06818C78.6267 6.89015 78.9903 6.75758 79.3881 6.67045C79.7896 6.57955 80.193 6.50758 80.5983 6.45455C81.1286 6.38636 81.5585 6.33523 81.8881 6.30114C82.2214 6.26326 82.4638 6.20076 82.6153 6.11364C82.7706 6.02652 82.8483 5.875 82.8483 5.65909V5.61364C82.8483 5.05303 82.6949 4.61742 82.3881 4.30682C82.085 3.99621 81.6248 3.84091 81.0074 3.84091C80.3672 3.84091 79.8653 3.98106 79.5017 4.26136C79.1381 4.54167 78.8824 4.84091 78.7347 5.15909L77.4619 4.70455C77.6892 4.17424 77.9922 3.76136 78.371 3.46591C78.7536 3.16667 79.1703 2.95833 79.621 2.84091C80.0756 2.7197 80.5225 2.65909 80.9619 2.65909C81.2422 2.65909 81.5642 2.69318 81.9278 2.76136C82.2953 2.82576 82.6494 2.96023 82.9903 3.16477C83.335 3.36932 83.621 3.67803 83.8483 4.09091C84.0756 4.50379 84.1892 5.05682 84.1892 5.75V11.5H82.8483V10.3182H82.7801C82.6892 10.5076 82.5377 10.7102 82.3256 10.9261C82.1135 11.142 81.8313 11.3258 81.479 11.4773C81.1267 11.6288 80.6968 11.7045 80.1892 11.7045ZM80.3938 10.5C80.9241 10.5 81.371 10.3958 81.7347 10.1875C82.1021 9.97917 82.3786 9.71023 82.5642 9.38068C82.7536 9.05114 82.8483 8.70455 82.8483 8.34091V7.11364C82.7915 7.18182 82.6665 7.24432 82.4733 7.30114C82.2839 7.35417 82.0642 7.40151 81.8142 7.44318C81.568 7.48106 81.3275 7.51515 81.0926 7.54545C80.8616 7.57197 80.6741 7.5947 80.5301 7.61364C80.1816 7.65909 79.8559 7.73295 79.5528 7.83523C79.2536 7.93371 79.0112 8.08333 78.8256 8.28409C78.6438 8.48106 78.5528 8.75 78.5528 9.09091C78.5528 9.55682 78.7252 9.90909 79.0699 10.1477C79.4184 10.3826 79.8597 10.5 80.3938 10.5ZM86.3167 11.5V2.77273H87.6121V4.13636H87.7257C87.9076 3.67045 88.2011 3.30871 88.6064 3.05114C89.0117 2.78977 89.4985 2.65909 90.0667 2.65909C90.6424 2.65909 91.1216 2.78977 91.5042 3.05114C91.8905 3.30871 92.1917 3.67045 92.4076 4.13636H92.4985C92.722 3.68561 93.0572 3.32765 93.5042 3.0625C93.9511 2.79356 94.4871 2.65909 95.1121 2.65909C95.8924 2.65909 96.5307 2.90341 97.0269 3.39205C97.5231 3.87689 97.7712 4.63258 97.7712 5.65909V11.5H96.4303V5.65909C96.4303 5.01515 96.2542 4.55492 95.9019 4.27841C95.5496 4.00189 95.1348 3.86364 94.6576 3.86364C94.0439 3.86364 93.5685 4.04924 93.2314 4.42045C92.8943 4.78788 92.7257 5.25379 92.7257 5.81818V11.5H91.3621V5.52273C91.3621 5.02652 91.2011 4.62689 90.8792 4.32386C90.5572 4.01705 90.1424 3.86364 89.6348 3.86364C89.2863 3.86364 88.9606 3.95644 88.6576 4.14205C88.3583 4.32765 88.1159 4.58523 87.9303 4.91477C87.7485 5.24053 87.6576 5.61742 87.6576 6.04545V11.5H86.3167Z" fill="#AFCBE8"/>
</svg>
