<svg width="140" height="22" viewBox="0 0 140 22" fill="none" xmlns="http://www.w3.org/2000/svg">
<path d="M11.04 3.076C10.96 3.212 10.876 3.312 10.788 3.376C10.7 3.44 10.588 3.472 10.452 3.472C10.308 3.472 10.144 3.408 9.96 3.28C9.776 3.144 9.544 2.996 9.264 2.836C8.992 2.668 8.664 2.52 8.28 2.392C7.896 2.256 7.436 2.188 6.9 2.188C6.396 2.188 5.952 2.256 5.568 2.392C5.192 2.52 4.876 2.7 4.62 2.932C4.364 3.156 4.168 3.424 4.032 3.736C3.904 4.04 3.84 4.372 3.84 4.732C3.84 5.196 3.956 5.58 4.188 5.884C4.428 6.188 4.74 6.448 5.124 6.664C5.508 6.88 5.944 7.068 6.432 7.228C6.92 7.388 7.42 7.556 7.932 7.732C8.444 7.9 8.944 8.096 9.432 8.32C9.92 8.544 10.356 8.828 10.74 9.172C11.124 9.508 11.432 9.924 11.664 10.42C11.904 10.908 12.024 11.508 12.024 12.22C12.024 12.98 11.892 13.692 11.628 14.356C11.372 15.02 10.996 15.6 10.5 16.096C10.004 16.592 9.392 16.984 8.664 17.272C7.944 17.552 7.124 17.692 6.204 17.692C5.652 17.692 5.116 17.636 4.596 17.524C4.076 17.42 3.584 17.272 3.12 17.08C2.656 16.88 2.22 16.644 1.812 16.372C1.412 16.092 1.052 15.78 0.732 15.436L1.464 14.212C1.536 14.116 1.62 14.036 1.716 13.972C1.82 13.908 1.936 13.876 2.064 13.876C2.232 13.876 2.424 13.964 2.64 14.14C2.864 14.316 3.136 14.512 3.456 14.728C3.784 14.936 4.172 15.128 4.62 15.304C5.076 15.48 5.628 15.568 6.276 15.568C6.804 15.568 7.276 15.5 7.692 15.364C8.108 15.22 8.456 15.02 8.736 14.764C9.024 14.5 9.244 14.184 9.396 13.816C9.548 13.448 9.624 13.04 9.624 12.592C9.624 12.088 9.508 11.676 9.276 11.356C9.044 11.036 8.736 10.768 8.352 10.552C7.968 10.336 7.532 10.152 7.044 10C6.556 9.848 6.056 9.692 5.544 9.532C5.032 9.364 4.532 9.172 4.044 8.956C3.556 8.74 3.12 8.46 2.736 8.116C2.352 7.764 2.044 7.328 1.812 6.808C1.58 6.28 1.464 5.632 1.464 4.864C1.464 4.248 1.584 3.652 1.824 3.076C2.064 2.5 2.412 1.992 2.868 1.552C3.332 1.104 3.9 0.747999 4.572 0.483999C5.244 0.211999 6.012 0.0759997 6.876 0.0759997C7.844 0.0759997 8.732 0.231999 9.54 0.543999C10.356 0.847999 11.064 1.288 11.664 1.864L11.04 3.076ZM24.1243 5.308V17.5H22.7203C22.4003 17.5 22.1923 17.344 22.0963 17.032L21.9283 15.808C21.6643 16.088 21.3883 16.344 21.1003 16.576C20.8123 16.808 20.5043 17.008 20.1763 17.176C19.8483 17.336 19.5003 17.46 19.1323 17.548C18.7643 17.644 18.3683 17.692 17.9443 17.692C17.2723 17.692 16.6803 17.58 16.1683 17.356C15.6643 17.132 15.2403 16.82 14.8963 16.42C14.5523 16.012 14.2923 15.524 14.1163 14.956C13.9403 14.388 13.8523 13.76 13.8523 13.072V5.308H16.2043V13.072C16.2043 13.944 16.4043 14.624 16.8043 15.112C17.2043 15.592 17.8163 15.832 18.6403 15.832C19.2403 15.832 19.8003 15.692 20.3203 15.412C20.8403 15.124 21.3283 14.732 21.7843 14.236V5.308H24.1243ZM29.1186 7.648C29.5106 6.848 29.9826 6.22 30.5346 5.764C31.0866 5.308 31.7506 5.08 32.5266 5.08C32.7906 5.08 33.0386 5.112 33.2706 5.176C33.5106 5.232 33.7186 5.32 33.8946 5.44L33.7386 7.204C33.6826 7.42 33.5506 7.528 33.3426 7.528C33.2306 7.528 33.0626 7.508 32.8386 7.468C32.6146 7.42 32.3746 7.396 32.1186 7.396C31.7426 7.396 31.4106 7.452 31.1226 7.564C30.8346 7.668 30.5746 7.828 30.3426 8.044C30.1186 8.252 29.9186 8.512 29.7426 8.824C29.5666 9.128 29.4026 9.476 29.2506 9.868V17.5H26.9106V5.308H28.2546C28.5106 5.308 28.6826 5.356 28.7706 5.452C28.8666 5.54 28.9346 5.7 28.9746 5.932L29.1186 7.648ZM45.8036 5.308L40.8596 17.5H38.7476L33.8036 5.308H35.7356C35.9196 5.308 36.0716 5.352 36.1916 5.44C36.3116 5.528 36.3916 5.64 36.4316 5.776L39.3476 13.264C39.4516 13.576 39.5396 13.888 39.6116 14.2C39.6916 14.504 39.7636 14.808 39.8276 15.112C39.8916 14.808 39.9636 14.504 40.0436 14.2C40.1236 13.896 40.2196 13.584 40.3316 13.264L43.2836 5.776C43.3316 5.64 43.4156 5.528 43.5356 5.44C43.6556 5.352 43.7996 5.308 43.9676 5.308H45.8036ZM54.9094 10.048C54.9094 9.584 54.8414 9.156 54.7054 8.764C54.5774 8.372 54.3854 8.032 54.1294 7.744C53.8734 7.456 53.5614 7.232 53.1934 7.072C52.8254 6.912 52.4014 6.832 51.9214 6.832C50.9374 6.832 50.1614 7.116 49.5934 7.684C49.0334 8.252 48.6774 9.04 48.5254 10.048H54.9094ZM56.8414 15.76C56.5534 16.096 56.2214 16.388 55.8454 16.636C55.4694 16.876 55.0694 17.072 54.6454 17.224C54.2214 17.376 53.7814 17.488 53.3254 17.56C52.8774 17.632 52.4334 17.668 51.9934 17.668C51.1534 17.668 50.3734 17.528 49.6534 17.248C48.9414 16.96 48.3214 16.544 47.7934 16C47.2734 15.448 46.8654 14.768 46.5694 13.96C46.2814 13.144 46.1374 12.208 46.1374 11.152C46.1374 10.304 46.2694 9.516 46.5334 8.788C46.7974 8.052 47.1734 7.412 47.6614 6.868C48.1574 6.324 48.7614 5.896 49.4734 5.584C50.1854 5.272 50.9854 5.116 51.8734 5.116C52.6174 5.116 53.3014 5.24 53.9254 5.488C54.5574 5.728 55.1014 6.08 55.5574 6.544C56.0134 7.008 56.3694 7.58 56.6254 8.26C56.8894 8.94 57.0214 9.716 57.0214 10.588C57.0214 10.948 56.9814 11.192 56.9014 11.32C56.8214 11.44 56.6734 11.5 56.4574 11.5H48.4654C48.4894 12.228 48.5934 12.864 48.7774 13.408C48.9614 13.944 49.2134 14.392 49.5334 14.752C49.8614 15.112 50.2494 15.38 50.6974 15.556C51.1454 15.732 51.6454 15.82 52.1974 15.82C52.7174 15.82 53.1654 15.76 53.5414 15.64C53.9254 15.52 54.2534 15.392 54.5254 15.256C54.8054 15.112 55.0374 14.98 55.2214 14.86C55.4134 14.74 55.5814 14.68 55.7254 14.68C55.9174 14.68 56.0654 14.752 56.1694 14.896L56.8414 15.76ZM69.3844 5.308L62.6164 21.04C62.5444 21.216 62.4484 21.352 62.3284 21.448C62.2084 21.544 62.0324 21.592 61.8004 21.592H60.0604L62.2924 16.732L57.2884 5.308H59.3284C59.5284 5.308 59.6844 5.356 59.7964 5.452C59.9084 5.548 59.9884 5.656 60.0364 5.776L63.1324 13.096C63.1964 13.28 63.2564 13.468 63.3124 13.66C63.3764 13.844 63.4284 14.028 63.4684 14.212C63.5244 14.02 63.5844 13.832 63.6484 13.648C63.7124 13.456 63.7804 13.268 63.8524 13.084L66.8404 5.776C66.8964 5.64 66.9844 5.528 67.1044 5.44C67.2244 5.352 67.3604 5.308 67.5124 5.308H69.3844ZM79.9959 3.076C79.9159 3.212 79.8319 3.312 79.7439 3.376C79.6559 3.44 79.5439 3.472 79.4079 3.472C79.2639 3.472 79.0999 3.408 78.9159 3.28C78.7319 3.144 78.4999 2.996 78.2199 2.836C77.9479 2.668 77.6199 2.52 77.2359 2.392C76.8519 2.256 76.3919 2.188 75.8559 2.188C75.3519 2.188 74.9079 2.256 74.5239 2.392C74.1479 2.52 73.8319 2.7 73.5759 2.932C73.3199 3.156 73.1239 3.424 72.9879 3.736C72.8599 4.04 72.7959 4.372 72.7959 4.732C72.7959 5.196 72.9119 5.58 73.1439 5.884C73.3839 6.188 73.6959 6.448 74.0799 6.664C74.4639 6.88 74.8999 7.068 75.3879 7.228C75.8759 7.388 76.3759 7.556 76.8879 7.732C77.3999 7.9 77.8999 8.096 78.3879 8.32C78.8759 8.544 79.3119 8.828 79.6959 9.172C80.0799 9.508 80.3879 9.924 80.6199 10.42C80.8599 10.908 80.9799 11.508 80.9799 12.22C80.9799 12.98 80.8479 13.692 80.5839 14.356C80.3279 15.02 79.9519 15.6 79.4559 16.096C78.9599 16.592 78.3479 16.984 77.6199 17.272C76.8999 17.552 76.0799 17.692 75.1599 17.692C74.6079 17.692 74.0719 17.636 73.5519 17.524C73.0319 17.42 72.5399 17.272 72.0759 17.08C71.6119 16.88 71.1759 16.644 70.7679 16.372C70.3679 16.092 70.0079 15.78 69.6879 15.436L70.4199 14.212C70.4919 14.116 70.5759 14.036 70.6719 13.972C70.7759 13.908 70.8919 13.876 71.0199 13.876C71.1879 13.876 71.3799 13.964 71.5959 14.14C71.8199 14.316 72.0919 14.512 72.4119 14.728C72.7399 14.936 73.1279 15.128 73.5759 15.304C74.0319 15.48 74.5839 15.568 75.2319 15.568C75.7599 15.568 76.2319 15.5 76.6479 15.364C77.0639 15.22 77.4119 15.02 77.6919 14.764C77.9799 14.5 78.1999 14.184 78.3519 13.816C78.5039 13.448 78.5799 13.04 78.5799 12.592C78.5799 12.088 78.4639 11.676 78.2319 11.356C77.9999 11.036 77.6919 10.768 77.3079 10.552C76.9239 10.336 76.4879 10.152 75.9999 10C75.5119 9.848 75.0119 9.692 74.4999 9.532C73.9879 9.364 73.4879 9.172 72.9999 8.956C72.5119 8.74 72.0759 8.46 71.6919 8.116C71.3079 7.764 70.9999 7.328 70.7679 6.808C70.5359 6.28 70.4199 5.632 70.4199 4.864C70.4199 4.248 70.5399 3.652 70.7799 3.076C71.0199 2.5 71.3679 1.992 71.8239 1.552C72.2879 1.104 72.8559 0.747999 73.5279 0.483999C74.1999 0.211999 74.9679 0.0759997 75.8319 0.0759997C76.7999 0.0759997 77.6879 0.231999 78.4959 0.543999C79.3119 0.847999 80.0199 1.288 80.6199 1.864L79.9959 3.076ZM86.4516 17.692C85.4676 17.692 84.7076 17.416 84.1716 16.864C83.6436 16.312 83.3796 15.524 83.3796 14.5V7.204H81.9636C81.8276 7.204 81.7116 7.164 81.6156 7.084C81.5276 6.996 81.4836 6.868 81.4836 6.7V5.752L83.4636 5.476L83.9916 1.84C84.0236 1.704 84.0836 1.6 84.1716 1.528C84.2676 1.448 84.3876 1.408 84.5316 1.408H85.7196V5.5H89.1756V7.204H85.7196V14.344C85.7196 14.824 85.8356 15.184 86.0676 15.424C86.3076 15.656 86.6116 15.772 86.9796 15.772C87.1956 15.772 87.3796 15.744 87.5316 15.688C87.6916 15.632 87.8276 15.572 87.9396 15.508C88.0516 15.436 88.1476 15.372 88.2276 15.316C88.3076 15.26 88.3796 15.232 88.4436 15.232C88.5236 15.232 88.5836 15.252 88.6236 15.292C88.6716 15.324 88.7196 15.38 88.7676 15.46L89.4636 16.588C89.0796 16.94 88.6236 17.212 88.0956 17.404C87.5676 17.596 87.0196 17.692 86.4516 17.692ZM93.0589 7.648C93.4509 6.848 93.9229 6.22 94.4749 5.764C95.0269 5.308 95.6909 5.08 96.4669 5.08C96.7309 5.08 96.9789 5.112 97.2109 5.176C97.4509 5.232 97.6589 5.32 97.8349 5.44L97.6789 7.204C97.6229 7.42 97.4909 7.528 97.2829 7.528C97.1709 7.528 97.0029 7.508 96.7789 7.468C96.5549 7.42 96.3149 7.396 96.0589 7.396C95.6829 7.396 95.3509 7.452 95.0629 7.564C94.7749 7.668 94.5149 7.828 94.2829 8.044C94.0589 8.252 93.8589 8.512 93.6829 8.824C93.5069 9.128 93.3429 9.476 93.1909 9.868V17.5H90.8509V5.308H92.1949C92.4509 5.308 92.6229 5.356 92.7109 5.452C92.8069 5.54 92.8749 5.7 92.9149 5.932L93.0589 7.648ZM106.791 10.048C106.791 9.584 106.723 9.156 106.587 8.764C106.459 8.372 106.267 8.032 106.011 7.744C105.755 7.456 105.443 7.232 105.075 7.072C104.707 6.912 104.283 6.832 103.803 6.832C102.819 6.832 102.043 7.116 101.475 7.684C100.915 8.252 100.559 9.04 100.407 10.048H106.791ZM108.723 15.76C108.435 16.096 108.103 16.388 107.727 16.636C107.351 16.876 106.951 17.072 106.527 17.224C106.103 17.376 105.663 17.488 105.207 17.56C104.759 17.632 104.315 17.668 103.875 17.668C103.035 17.668 102.255 17.528 101.535 17.248C100.823 16.96 100.203 16.544 99.6746 16C99.1546 15.448 98.7466 14.768 98.4506 13.96C98.1626 13.144 98.0186 12.208 98.0186 11.152C98.0186 10.304 98.1506 9.516 98.4146 8.788C98.6786 8.052 99.0546 7.412 99.5426 6.868C100.039 6.324 100.643 5.896 101.355 5.584C102.067 5.272 102.867 5.116 103.755 5.116C104.499 5.116 105.183 5.24 105.807 5.488C106.439 5.728 106.983 6.08 107.439 6.544C107.895 7.008 108.251 7.58 108.507 8.26C108.771 8.94 108.903 9.716 108.903 10.588C108.903 10.948 108.863 11.192 108.783 11.32C108.703 11.44 108.555 11.5 108.339 11.5H100.347C100.371 12.228 100.475 12.864 100.659 13.408C100.843 13.944 101.095 14.392 101.415 14.752C101.743 15.112 102.131 15.38 102.579 15.556C103.027 15.732 103.527 15.82 104.079 15.82C104.599 15.82 105.047 15.76 105.423 15.64C105.807 15.52 106.135 15.392 106.407 15.256C106.687 15.112 106.919 14.98 107.103 14.86C107.295 14.74 107.463 14.68 107.607 14.68C107.799 14.68 107.947 14.752 108.051 14.896L108.723 15.76ZM117.49 12.088C116.538 12.12 115.73 12.196 115.066 12.316C114.402 12.428 113.862 12.58 113.446 12.772C113.03 12.964 112.73 13.192 112.546 13.456C112.362 13.712 112.27 14 112.27 14.32C112.27 14.624 112.318 14.888 112.414 15.112C112.518 15.328 112.654 15.508 112.822 15.652C112.998 15.788 113.202 15.888 113.434 15.952C113.666 16.016 113.918 16.048 114.19 16.048C114.55 16.048 114.878 16.012 115.174 15.94C115.478 15.868 115.762 15.768 116.026 15.64C116.29 15.504 116.542 15.34 116.782 15.148C117.022 14.956 117.258 14.736 117.49 14.488V12.088ZM110.626 7.012C111.306 6.364 112.042 5.88 112.834 5.56C113.634 5.24 114.51 5.08 115.462 5.08C116.158 5.08 116.774 5.196 117.31 5.428C117.846 5.652 118.298 5.968 118.666 6.376C119.034 6.784 119.31 7.272 119.494 7.84C119.686 8.408 119.782 9.036 119.782 9.724V17.5H118.738C118.506 17.5 118.33 17.464 118.21 17.392C118.09 17.312 117.994 17.168 117.922 16.96L117.67 15.892C117.358 16.18 117.05 16.436 116.746 16.66C116.442 16.876 116.122 17.064 115.786 17.224C115.458 17.376 115.106 17.492 114.73 17.572C114.354 17.652 113.938 17.692 113.482 17.692C113.002 17.692 112.55 17.628 112.126 17.5C111.71 17.364 111.346 17.16 111.034 16.888C110.722 16.616 110.474 16.276 110.29 15.868C110.114 15.46 110.026 14.984 110.026 14.44C110.026 13.96 110.154 13.5 110.41 13.06C110.674 12.612 111.098 12.212 111.682 11.86C112.274 11.508 113.042 11.22 113.986 10.996C114.938 10.772 116.106 10.644 117.49 10.612V9.724C117.49 8.804 117.294 8.116 116.902 7.66C116.51 7.204 115.934 6.976 115.174 6.976C114.662 6.976 114.23 7.04 113.878 7.168C113.534 7.296 113.234 7.44 112.978 7.6C112.73 7.752 112.51 7.892 112.318 8.02C112.134 8.148 111.942 8.212 111.742 8.212C111.582 8.212 111.442 8.168 111.322 8.08C111.21 7.992 111.118 7.888 111.046 7.768L110.626 7.012ZM122.434 17.5V5.308H123.838C124.166 5.308 124.37 5.464 124.45 5.776L124.618 6.94C125.066 6.404 125.562 5.968 126.106 5.632C126.658 5.288 127.302 5.116 128.038 5.116C128.846 5.116 129.502 5.34 130.006 5.788C130.51 6.228 130.878 6.828 131.11 7.588C131.286 7.156 131.514 6.784 131.794 6.472C132.074 6.16 132.386 5.904 132.73 5.704C133.074 5.504 133.438 5.356 133.822 5.26C134.214 5.164 134.61 5.116 135.01 5.116C135.658 5.116 136.234 5.22 136.738 5.428C137.25 5.628 137.682 5.924 138.034 6.316C138.386 6.708 138.654 7.192 138.838 7.768C139.022 8.344 139.114 9 139.114 9.736V17.5H136.762V9.736C136.762 8.824 136.562 8.136 136.162 7.672C135.77 7.208 135.194 6.976 134.434 6.976C134.098 6.976 133.778 7.036 133.474 7.156C133.17 7.268 132.902 7.44 132.67 7.672C132.446 7.904 132.266 8.192 132.13 8.536C132.002 8.88 131.938 9.28 131.938 9.736V17.5H129.586V9.736C129.586 8.792 129.398 8.096 129.022 7.648C128.646 7.2 128.094 6.976 127.366 6.976C126.862 6.976 126.394 7.108 125.962 7.372C125.53 7.636 125.134 7.996 124.774 8.452V17.5H122.434Z" fill="white"/>
</svg>
