<svg width="104" height="15" viewBox="0 0 104 15" fill="none" xmlns="http://www.w3.org/2000/svg">
<path d="M8.22727 5.26136L6.01136 5.39773C5.97348 5.20833 5.89205 5.03788 5.76705 4.88636C5.64205 4.73106 5.47727 4.60795 5.27273 4.51705C5.07197 4.42235 4.83144 4.375 4.55114 4.375C4.17614 4.375 3.85985 4.45455 3.60227 4.61364C3.3447 4.76894 3.21591 4.97727 3.21591 5.23864C3.21591 5.44697 3.29924 5.62311 3.46591 5.76705C3.63258 5.91098 3.91856 6.02652 4.32386 6.11364L5.90341 6.43182C6.75189 6.60606 7.38447 6.88636 7.80114 7.27273C8.2178 7.65909 8.42614 8.16667 8.42614 8.79545C8.42614 9.36742 8.25758 9.86932 7.92045 10.3011C7.58712 10.733 7.12879 11.0701 6.54545 11.3125C5.96591 11.5511 5.29735 11.6705 4.53977 11.6705C3.38447 11.6705 2.46402 11.4299 1.77841 10.9489C1.09659 10.464 0.69697 9.80492 0.579545 8.97159L2.96023 8.84659C3.0322 9.19886 3.20644 9.4678 3.48295 9.65341C3.75947 9.83523 4.11364 9.92614 4.54545 9.92614C4.9697 9.92614 5.31061 9.8447 5.56818 9.68182C5.82955 9.51515 5.96212 9.30114 5.96591 9.03977C5.96212 8.82008 5.86932 8.64015 5.6875 8.5C5.50568 8.35606 5.22538 8.24621 4.84659 8.17045L3.33523 7.86932C2.48295 7.69886 1.84848 7.40341 1.43182 6.98295C1.01894 6.5625 0.8125 6.02652 0.8125 5.375C0.8125 4.81439 0.964015 4.33144 1.26705 3.92614C1.57386 3.52083 2.00379 3.20833 2.55682 2.98864C3.11364 2.76894 3.76515 2.65909 4.51136 2.65909C5.61364 2.65909 6.48106 2.89205 7.11364 3.35795C7.75 3.82386 8.12121 4.45833 8.22727 5.26136ZM15.2269 7.78409V2.77273H17.6473V11.5H15.3235V9.91477H15.2326C15.0356 10.4261 14.7079 10.8371 14.2496 11.1477C13.7951 11.4583 13.2401 11.6136 12.5848 11.6136C12.0015 11.6136 11.4882 11.4811 11.0451 11.2159C10.6019 10.9508 10.2553 10.5739 10.0053 10.0852C9.75907 9.59659 9.63407 9.01136 9.63028 8.32955V2.77273H12.0507V7.89773C12.0545 8.41288 12.1928 8.82008 12.4655 9.11932C12.7382 9.41856 13.1038 9.56818 13.5621 9.56818C13.8538 9.56818 14.1265 9.50189 14.3803 9.36932C14.6341 9.23295 14.8386 9.0322 14.9939 8.76705C15.153 8.50189 15.2307 8.17424 15.2269 7.78409ZM19.2634 11.5V2.77273H21.61V4.29545H21.7009C21.86 3.75379 22.127 3.3447 22.502 3.06818C22.877 2.78788 23.3089 2.64773 23.7975 2.64773C23.9187 2.64773 24.0494 2.6553 24.1895 2.67045C24.3297 2.68561 24.4528 2.70644 24.5589 2.73295V4.88068C24.4452 4.84659 24.288 4.81629 24.0873 4.78977C23.8865 4.76326 23.7028 4.75 23.5361 4.75C23.1801 4.75 22.8619 4.82765 22.5816 4.98295C22.3051 5.13447 22.0854 5.34659 21.9225 5.61932C21.7634 5.89205 21.6839 6.20644 21.6839 6.5625V11.5H19.2634ZM33.8923 2.77273L30.8411 11.5H28.1139L25.0627 2.77273H27.6195L29.432 9.01705H29.523L31.3298 2.77273H33.8923ZM38.5069 11.6705C37.6092 11.6705 36.8365 11.4886 36.1888 11.125C35.5448 10.7576 35.0486 10.2386 34.7001 9.56818C34.3516 8.89394 34.1774 8.09659 34.1774 7.17614C34.1774 6.27841 34.3516 5.49053 34.7001 4.8125C35.0486 4.13447 35.5391 3.60606 36.1717 3.22727C36.8081 2.84848 37.5543 2.65909 38.4103 2.65909C38.9861 2.65909 39.5221 2.75189 40.0183 2.9375C40.5183 3.11932 40.9539 3.39394 41.3251 3.76136C41.7001 4.12879 41.9918 4.59091 42.2001 5.14773C42.4084 5.70076 42.5126 6.34848 42.5126 7.09091V7.75568H35.1433V6.25568H40.2342C40.2342 5.9072 40.1584 5.59848 40.0069 5.32955C39.8554 5.06061 39.6452 4.85038 39.3763 4.69886C39.1111 4.54356 38.8024 4.46591 38.4501 4.46591C38.0827 4.46591 37.7569 4.55114 37.4728 4.72159C37.1925 4.88826 36.9728 5.11364 36.8138 5.39773C36.6547 5.67803 36.5732 5.99053 36.5694 6.33523V7.76136C36.5694 8.19318 36.649 8.56629 36.8081 8.88068C36.9709 9.19508 37.2001 9.4375 37.4956 9.60795C37.791 9.77841 38.1414 9.86364 38.5467 9.86364C38.8156 9.86364 39.0619 9.82576 39.2853 9.75C39.5088 9.67424 39.7001 9.56061 39.8592 9.40909C40.0183 9.25758 40.1395 9.07197 40.2228 8.85227L42.4615 9C42.3478 9.53788 42.1149 10.0076 41.7626 10.4091C41.4141 10.8068 40.9634 11.1174 40.4103 11.3409C39.8611 11.5606 39.2266 11.6705 38.5069 11.6705ZM45.0321 14.7727C44.7253 14.7727 44.4374 14.7481 44.1685 14.6989C43.9033 14.6534 43.6836 14.5947 43.5094 14.5227L44.0548 12.7159C44.3389 12.803 44.5946 12.8504 44.8219 12.858C45.0529 12.8655 45.2518 12.8125 45.4185 12.6989C45.5889 12.5852 45.7272 12.392 45.8332 12.1193L45.9753 11.75L42.8446 2.77273H45.3901L47.1969 9.18182H47.2878L49.1116 2.77273H51.6741L48.2821 12.4432C48.1192 12.9129 47.8976 13.322 47.6173 13.6705C47.3408 14.0227 46.9904 14.2936 46.5662 14.483C46.142 14.6761 45.6306 14.7727 45.0321 14.7727ZM59.8541 5.26136L57.6382 5.39773C57.6004 5.20833 57.5189 5.03788 57.3939 4.88636C57.2689 4.73106 57.1041 4.60795 56.8996 4.51705C56.6988 4.42235 56.4583 4.375 56.178 4.375C55.803 4.375 55.4867 4.45455 55.2291 4.61364C54.9716 4.76894 54.8428 4.97727 54.8428 5.23864C54.8428 5.44697 54.9261 5.62311 55.0928 5.76705C55.2595 5.91098 55.5454 6.02652 55.9507 6.11364L57.5303 6.43182C58.3788 6.60606 59.0113 6.88636 59.428 7.27273C59.8447 7.65909 60.053 8.16667 60.053 8.79545C60.053 9.36742 59.8845 9.86932 59.5473 10.3011C59.214 10.733 58.7557 11.0701 58.1723 11.3125C57.5928 11.5511 56.9242 11.6705 56.1666 11.6705C55.0113 11.6705 54.0909 11.4299 53.4053 10.9489C52.7235 10.464 52.3238 9.80492 52.2064 8.97159L54.5871 8.84659C54.6591 9.19886 54.8333 9.4678 55.1098 9.65341C55.3863 9.83523 55.7405 9.92614 56.1723 9.92614C56.5966 9.92614 56.9375 9.8447 57.1951 9.68182C57.4564 9.51515 57.589 9.30114 57.5928 9.03977C57.589 8.82008 57.4962 8.64015 57.3144 8.5C57.1326 8.35606 56.8523 8.24621 56.4735 8.17045L54.9621 7.86932C54.1098 7.69886 53.4754 7.40341 53.0587 6.98295C52.6458 6.5625 52.4394 6.02652 52.4394 5.375C52.4394 4.81439 52.5909 4.33144 52.8939 3.92614C53.2007 3.52083 53.6307 3.20833 54.1837 2.98864C54.7405 2.76894 55.392 2.65909 56.1382 2.65909C57.2405 2.65909 58.1079 2.89205 58.7405 3.35795C59.3769 3.82386 59.7481 4.45833 59.8541 5.26136ZM65.8992 2.77273V4.59091H60.6435V2.77273H65.8992ZM61.8367 0.681818H64.2572V8.81818C64.2572 9.04167 64.2912 9.21591 64.3594 9.34091C64.4276 9.46212 64.5223 9.54735 64.6435 9.59659C64.7685 9.64583 64.9125 9.67045 65.0753 9.67045C65.189 9.67045 65.3026 9.66098 65.4162 9.64205C65.5299 9.61932 65.617 9.60227 65.6776 9.59091L66.0583 11.392C65.9371 11.4299 65.7666 11.4735 65.5469 11.5227C65.3272 11.5758 65.0602 11.608 64.7458 11.6193C64.1625 11.642 63.6511 11.5644 63.2117 11.3864C62.7761 11.2083 62.4371 10.9318 62.1947 10.5568C61.9522 10.1818 61.8329 9.70833 61.8367 9.13636V0.681818ZM67.1559 11.5V2.77273H69.5025V4.29545H69.5934C69.7525 3.75379 70.0195 3.3447 70.3945 3.06818C70.7695 2.78788 71.2014 2.64773 71.69 2.64773C71.8112 2.64773 71.9419 2.6553 72.082 2.67045C72.2222 2.68561 72.3453 2.70644 72.4514 2.73295V4.88068C72.3377 4.84659 72.1805 4.81629 71.9798 4.78977C71.779 4.76326 71.5953 4.75 71.4286 4.75C71.0726 4.75 70.7544 4.82765 70.4741 4.98295C70.1976 5.13447 69.9779 5.34659 69.815 5.61932C69.6559 5.89205 69.5764 6.20644 69.5764 6.5625V11.5H67.1559ZM76.9538 11.6705C76.0561 11.6705 75.2834 11.4886 74.6356 11.125C73.9917 10.7576 73.4955 10.2386 73.147 9.56818C72.7985 8.89394 72.6243 8.09659 72.6243 7.17614C72.6243 6.27841 72.7985 5.49053 73.147 4.8125C73.4955 4.13447 73.986 3.60606 74.6186 3.22727C75.2549 2.84848 76.0012 2.65909 76.8572 2.65909C77.433 2.65909 77.969 2.75189 78.4652 2.9375C78.9652 3.11932 79.4008 3.39394 79.772 3.76136C80.147 4.12879 80.4387 4.59091 80.647 5.14773C80.8553 5.70076 80.9595 6.34848 80.9595 7.09091V7.75568H73.5902V6.25568H78.6811C78.6811 5.9072 78.6053 5.59848 78.4538 5.32955C78.3023 5.06061 78.0921 4.85038 77.8231 4.69886C77.558 4.54356 77.2493 4.46591 76.897 4.46591C76.5296 4.46591 76.2038 4.55114 75.9197 4.72159C75.6394 4.88826 75.4197 5.11364 75.2606 5.39773C75.1015 5.67803 75.0201 5.99053 75.0163 6.33523V7.76136C75.0163 8.19318 75.0959 8.56629 75.2549 8.88068C75.4178 9.19508 75.647 9.4375 75.9424 9.60795C76.2379 9.77841 76.5883 9.86364 76.9936 9.86364C77.2625 9.86364 77.5087 9.82576 77.7322 9.75C77.9557 9.67424 78.147 9.56061 78.3061 9.40909C78.4652 9.25758 78.5864 9.07197 78.6697 8.85227L80.9084 9C80.7947 9.53788 80.5618 10.0076 80.2095 10.4091C79.861 10.8068 79.4102 11.1174 78.8572 11.3409C78.308 11.5606 77.6735 11.6705 76.9538 11.6705ZM84.7077 11.6648C84.1509 11.6648 83.6546 11.5682 83.219 11.375C82.7834 11.178 82.4387 10.8883 82.1849 10.5057C81.9349 10.1193 81.8099 9.63826 81.8099 9.0625C81.8099 8.57765 81.899 8.17045 82.077 7.84091C82.255 7.51136 82.4974 7.24621 82.8043 7.04545C83.1111 6.8447 83.4596 6.69318 83.8497 6.59091C84.2437 6.48864 84.6565 6.41667 85.0884 6.375C85.5959 6.32197 86.005 6.27273 86.3156 6.22727C86.6262 6.17803 86.8516 6.10606 86.9918 6.01136C87.1319 5.91667 87.202 5.77652 87.202 5.59091V5.55682C87.202 5.19697 87.0884 4.91856 86.8611 4.72159C86.6376 4.52462 86.3194 4.42614 85.9065 4.42614C85.4709 4.42614 85.1243 4.52273 84.8668 4.71591C84.6092 4.9053 84.4387 5.14394 84.3554 5.43182L82.1168 5.25C82.2304 4.7197 82.4539 4.26136 82.7872 3.875C83.1206 3.48485 83.5505 3.18561 84.077 2.97727C84.6073 2.76515 85.2209 2.65909 85.9179 2.65909C86.4027 2.65909 86.8668 2.71591 87.3099 2.82955C87.7569 2.94318 88.1527 3.11932 88.4974 3.35795C88.8459 3.59659 89.1206 3.90341 89.3213 4.27841C89.5221 4.64962 89.6224 5.0947 89.6224 5.61364V11.5H87.327V10.2898H87.2588C87.1187 10.5625 86.9312 10.803 86.6963 11.0114C86.4615 11.2159 86.1793 11.3769 85.8497 11.4943C85.5202 11.608 85.1395 11.6648 84.7077 11.6648ZM85.4009 9.99432C85.7569 9.99432 86.0713 9.92424 86.344 9.78409C86.6168 9.64015 86.8308 9.44697 86.9861 9.20455C87.1414 8.96212 87.219 8.6875 87.219 8.38068V7.45455C87.1433 7.50379 87.0391 7.54924 86.9065 7.59091C86.7777 7.62879 86.6319 7.66477 86.469 7.69886C86.3062 7.72917 86.1433 7.75758 85.9804 7.78409C85.8175 7.80682 85.6698 7.82765 85.5372 7.84659C85.2531 7.88826 85.005 7.95455 84.7929 8.04545C84.5808 8.13636 84.416 8.25947 84.2986 8.41477C84.1812 8.56629 84.1224 8.75568 84.1224 8.98295C84.1224 9.3125 84.2418 9.56439 84.4804 9.73864C84.7228 9.90909 85.0296 9.99432 85.4009 9.99432ZM91.1803 11.5V2.77273H93.4871V4.3125H93.5894C93.7712 3.80114 94.0742 3.39773 94.4985 3.10227C94.9227 2.80682 95.4303 2.65909 96.0212 2.65909C96.6197 2.65909 97.1292 2.80871 97.5496 3.10795C97.9701 3.40341 98.2504 3.80492 98.3905 4.3125H98.4814C98.6595 3.8125 98.9814 3.41288 99.4473 3.11364C99.917 2.81061 100.472 2.65909 101.112 2.65909C101.927 2.65909 102.587 2.91856 103.095 3.4375C103.606 3.95265 103.862 4.68371 103.862 5.63068V11.5H101.447V6.10795C101.447 5.62311 101.319 5.25947 101.061 5.01705C100.803 4.77462 100.481 4.65341 100.095 4.65341C99.6557 4.65341 99.3129 4.79356 99.0667 5.07386C98.8204 5.35038 98.6973 5.71591 98.6973 6.17045V11.5H96.3507V6.05682C96.3507 5.62879 96.2276 5.28788 95.9814 5.03409C95.739 4.7803 95.4189 4.65341 95.0212 4.65341C94.7523 4.65341 94.5098 4.72159 94.2939 4.85795C94.0818 4.99053 93.9132 5.17803 93.7882 5.42045C93.6632 5.65909 93.6007 5.93939 93.6007 6.26136V11.5H91.1803Z" fill="#AFCBE8"/>
</svg>
