<svg width="226" height="220" viewBox="0 0 226 220" fill="none" xmlns="http://www.w3.org/2000/svg">
<g clip-path="url(#clip0_95_18144)">
<path d="M143.339 49.4769H82.7115C81.3299 49.4786 80.0054 50.0291 79.0285 51.0077C78.0515 51.9863 77.5019 53.313 77.5002 54.697V189.671L76.8054 189.883L61.9325 194.446C61.2276 194.661 60.4663 194.587 59.8156 194.241C59.1649 193.894 58.678 193.303 58.4619 192.598L14.2216 47.8447C14.0063 47.1387 14.0797 46.3758 14.4256 45.7239C14.7716 45.072 15.3617 44.5844 16.0664 44.3682L38.9856 37.3384L105.429 16.9662L128.348 9.93648C128.697 9.82895 129.064 9.79138 129.427 9.82591C129.79 9.86044 130.143 9.96639 130.465 10.1377C130.788 10.309 131.073 10.5423 131.306 10.8243C131.538 11.1063 131.712 11.4313 131.819 11.7809L143.127 48.7809L143.339 49.4769Z" fill="#F2F2F2"/>
<path d="M156.569 48.7814L142.94 4.18794C142.713 3.44493 142.342 2.75396 141.849 2.15451C141.356 1.55506 140.749 1.05889 140.064 0.694335C139.379 0.329784 138.629 0.104 137.857 0.0298925C137.085 -0.0442149 136.306 0.034807 135.564 0.262434L103.341 10.1423L36.9013 30.518L4.67833 40.4014C3.18142 40.8618 1.92804 41.8984 1.1933 43.2835C0.458559 44.6687 0.30249 46.2893 0.759355 47.7896L47.3411 200.192C47.7122 201.403 48.4611 202.463 49.4778 203.216C50.4945 203.97 51.7255 204.377 52.9902 204.378C53.5755 204.378 54.1576 204.29 54.7168 204.117L76.8056 197.345L77.5004 197.129V196.402L76.8056 196.614L54.5118 203.452C53.1905 203.856 51.7634 203.718 50.5436 203.069C49.3237 202.42 48.4106 201.312 48.0047 199.99L1.42654 47.5842C1.22542 46.9289 1.15532 46.2403 1.22026 45.5578C1.2852 44.8753 1.4839 44.2123 1.80499 43.6069C2.12608 43.0014 2.56325 42.4653 3.09147 42.0293C3.61968 41.5934 4.22856 41.266 4.88324 41.0661L37.1062 31.1827L103.546 10.8105L135.769 0.927132C136.266 0.775331 136.782 0.697931 137.301 0.697447C138.416 0.699953 139.5 1.05978 140.395 1.72421C141.29 2.38865 141.95 3.32278 142.276 4.38979L155.843 48.7814L156.058 49.4774H156.781L156.569 48.7814Z" fill="#3F3D56"/>
<path d="M43.1215 44.482C42.4519 44.4815 41.8 44.2661 41.2616 43.8673C40.7232 43.4685 40.3265 42.9074 40.1297 42.2663L35.6549 27.6251C35.5346 27.2318 35.4929 26.8186 35.5321 26.4092C35.5713 25.9998 35.6906 25.6021 35.8832 25.2388C36.0759 24.8756 36.3381 24.5539 36.6548 24.2922C36.9716 24.0304 37.3367 23.8338 37.7294 23.7134L98.8536 4.96854C99.6466 4.72616 100.503 4.80883 101.235 5.19838C101.967 5.58794 102.515 6.25256 102.759 7.04638L107.234 21.6878C107.476 22.482 107.393 23.34 107.004 24.0733C106.615 24.8067 105.952 25.3556 105.159 25.5996L44.035 44.3445C43.739 44.4355 43.4311 44.4818 43.1215 44.482Z" fill="#2F54EB"/>
<path d="M66.5626 15.6448C70.4001 15.6448 73.5109 12.5287 73.5109 8.68472C73.5109 4.84076 70.4001 1.72461 66.5626 1.72461C62.7251 1.72461 59.6143 4.84076 59.6143 8.68472C59.6143 12.5287 62.7251 15.6448 66.5626 15.6448Z" fill="#2F54EB"/>
<path d="M66.5626 13.0921C68.9926 13.0921 70.9625 11.1188 70.9625 8.6847C70.9625 6.25059 68.9926 4.27734 66.5626 4.27734C64.1326 4.27734 62.1627 6.25059 62.1627 8.6847C62.1627 11.1188 64.1326 13.0921 66.5626 13.0921Z" fill="white"/>
<path d="M209.866 202.6H92.4393C91.6564 202.599 90.9058 202.287 90.3522 201.732C89.7985 201.178 89.4871 200.426 89.4862 199.641V58.6993C89.4871 57.915 89.7985 57.1631 90.3521 56.6086C90.9057 56.054 91.6564 55.7421 92.4393 55.7412H209.866C210.649 55.7421 211.4 56.0541 211.953 56.6086C212.507 57.1631 212.818 57.915 212.819 58.6993V199.641C212.818 200.426 212.507 201.178 211.953 201.732C211.4 202.287 210.649 202.599 209.866 202.6Z" fill="#E6E6E6"/>
<path d="M155.843 48.7812H82.7115C81.1458 48.7835 79.6449 49.4075 78.5377 50.5165C77.4306 51.6255 76.8076 53.129 76.8054 54.6973V196.614L77.5003 196.402V54.6973C77.5019 53.3134 78.0515 51.9866 79.0285 51.008C80.0054 50.0295 81.3299 49.4789 82.7115 49.4773H156.058L155.843 48.7812ZM219.594 48.7812H82.7115C81.1458 48.7835 79.6449 49.4075 78.5377 50.5165C77.4306 51.6255 76.8076 53.129 76.8054 54.6973V214.084C76.8076 215.652 77.4306 217.156 78.5377 218.265C79.6449 219.374 81.1458 219.998 82.7115 220H219.594C221.16 219.998 222.661 219.374 223.768 218.265C224.875 217.156 225.498 215.652 225.5 214.084V54.6973C225.498 53.129 224.875 51.6255 223.768 50.5165C222.661 49.4075 221.16 48.7835 219.594 48.7812ZM224.805 214.084C224.803 215.468 224.254 216.795 223.277 217.773C222.3 218.752 220.975 219.302 219.594 219.304H82.7115C81.3299 219.302 80.0054 218.752 79.0285 217.773C78.0515 216.795 77.5019 215.468 77.5003 214.084V54.6973C77.5019 53.3134 78.0515 51.9866 79.0285 51.008C80.0054 50.0295 81.3299 49.4789 82.7115 49.4773H219.594C220.975 49.4789 222.3 50.0295 223.277 51.008C224.254 51.9866 224.803 53.3134 224.805 54.6973V214.084Z" fill="#3F3D56"/>
<path d="M183.115 64.0939H119.19C118.361 64.093 117.567 63.7627 116.98 63.1755C116.394 62.5884 116.065 61.7923 116.064 60.9619V45.6496C116.065 44.8192 116.394 44.0231 116.981 43.436C117.567 42.8488 118.361 42.5185 119.19 42.5176H183.115C183.944 42.5185 184.739 42.8488 185.325 43.436C185.911 44.0231 186.241 44.8192 186.242 45.6496V60.9619C186.241 61.7923 185.911 62.5884 185.325 63.1755C184.739 63.7627 183.944 64.093 183.115 64.0939Z" fill="#2F54EB"/>
<path d="M151.153 43.5608C154.99 43.5608 158.101 40.4447 158.101 36.6007C158.101 32.7568 154.99 29.6406 151.153 29.6406C147.315 29.6406 144.204 32.7568 144.204 36.6007C144.204 40.4447 147.315 43.5608 151.153 43.5608Z" fill="#2F54EB"/>
<path d="M151.153 40.84C153.49 40.84 155.385 38.942 155.385 36.6007C155.385 34.2594 153.49 32.3613 151.153 32.3613C148.815 32.3613 146.921 34.2594 146.921 36.6007C146.921 38.942 148.815 40.84 151.153 40.84Z" fill="white"/>
</g>
<defs>
<clipPath id="clip0_95_18144">
<rect width="225" height="220" fill="white" transform="translate(0.5)"/>
</clipPath>
</defs>
</svg>
